<svg width="333" height="328" viewBox="0 0 333 328" fill="none" xmlns="http://www.w3.org/2000/svg">
<path d="M223.723 0L223.716 309.075L190.57 301.665V59.4438H162.948V0H223.723Z" fill="url(#paint0_linear_3547_34642)"/>
<path d="M143.615 121.853V288.285C121.819 277.861 103.905 261.205 85.6016 245.193V121.853H143.615Z" fill="url(#paint1_linear_3547_34642)"/>
<path d="M182.297 71.3291V300.177L151.906 294.234V112.939H124.283V71.3291H182.297Z" fill="url(#paint2_linear_3547_34642)"/>
<path d="M68.1587 112.009L48.2936 118.824C5.87442 136.332 43.2186 206.001 61.5018 230.606C88.3994 266.813 131.161 296.028 171.722 311.146L220.093 325.93C153.603 329.029 29.2524 271.897 5.24829 201.959C-12.9163 149.039 18.0083 111.01 68.1587 112.002V112.009Z" fill="url(#paint3_linear_3547_34642)"/>
<path d="M278.448 118.466L291.107 134.84C316.735 172.169 253.765 207.387 227.448 217.025C188.729 231.211 140.636 231.08 101 220.879L55.2725 206.118C107.005 245.15 233.643 267.795 286.068 225.027C325.736 192.667 319.052 145.236 278.451 118.461L278.448 118.466Z" fill="url(#paint4_linear_3547_34642)"/>
<defs>
<linearGradient id="paint0_linear_3547_34642" x1="162.948" y1="154.541" x2="223.723" y2="154.541" gradientUnits="userSpaceOnUse">
<stop stop-color="#28A8E0"/>
<stop offset="0.53" stop-color="#2D6DB0"/>
<stop offset="1" stop-color="#2A3B8F"/>
</linearGradient>
<linearGradient id="paint1_linear_3547_34642" x1="85.6016" y1="205.072" x2="143.615" y2="205.072" gradientUnits="userSpaceOnUse">
<stop stop-color="#28A8E0"/>
<stop offset="0.53" stop-color="#2D6DB0"/>
<stop offset="1" stop-color="#2A3B8F"/>
</linearGradient>
<linearGradient id="paint2_linear_3547_34642" x1="124.283" y1="185.756" x2="182.297" y2="185.756" gradientUnits="userSpaceOnUse">
<stop stop-color="#28A8E0"/>
<stop offset="0.53" stop-color="#2D6DB0"/>
<stop offset="1" stop-color="#2A3B8F"/>
</linearGradient>
<linearGradient id="paint3_linear_3547_34642" x1="-0.00468151" y1="219.027" x2="220.093" y2="219.027" gradientUnits="userSpaceOnUse">
<stop stop-color="#28A8E0"/>
<stop offset="0.53" stop-color="#2D6DB0"/>
<stop offset="1" stop-color="#2A3B8F"/>
</linearGradient>
<linearGradient id="paint4_linear_3547_34642" x1="282.154" y1="241.559" x2="98.8171" y2="132.741" gradientUnits="userSpaceOnUse">
<stop stop-color="#28A8E0"/>
<stop offset="0.53" stop-color="#2D6DB0"/>
<stop offset="1" stop-color="#2A3B8F"/>
</linearGradient>
</defs>
</svg>
