<svg width="374" height="444" viewBox="0 0 374 444" fill="none" xmlns="http://www.w3.org/2000/svg">
<path d="M105.368 91.4053H15.8184V172.727H105.368V91.4053Z" fill="#D7DDF4"/>
<mask id="mask0_2475_45679" style="mask-type:luminance" maskUnits="userSpaceOnUse" x="15" y="91" width="91" height="82">
<path d="M105.368 91.4053H15.8184V172.727H105.368V91.4053Z" fill="white"/>
</mask>
<g mask="url(#mask0_2475_45679)">
<path opacity="0.37" d="M105.368 91.4053H15.8184V172.727H105.368V91.4053Z" fill="black"/>
</g>
<path d="M79.6332 91.4053H15.8184V172.727H79.6332V91.4053Z" fill="#D7DDF4"/>
<path d="M54.2021 91.4053H40.4902V114.105H54.2021V91.4053Z" fill="white"/>
<path d="M73.5962 120.737H57.7051V128.85H73.5962V120.737Z" fill="white"/>
<path d="M66.3226 149.631L49.9453 145.578L47.5306 155.336L63.9078 159.389L66.3226 149.631Z" fill="white"/>
<path d="M172.102 91.4053H82.5527V172.727H172.102V91.4053Z" fill="#D7DDF4"/>
<mask id="mask1_2475_45679" style="mask-type:luminance" maskUnits="userSpaceOnUse" x="82" y="91" width="91" height="82">
<path d="M172.102 91.4053H82.5527V172.727H172.102V91.4053Z" fill="white"/>
</mask>
<g mask="url(#mask1_2475_45679)">
<path opacity="0.37" d="M172.102 91.4053H82.5527V172.727H172.102V91.4053Z" fill="black"/>
</g>
<path d="M146.368 91.4053H82.5527V172.727H146.368V91.4053Z" fill="#D7DDF4"/>
<path d="M120.936 91.4053H107.225V114.105H120.936V91.4053Z" fill="white"/>
<path d="M140.331 120.737H124.439V128.85H140.331V120.737Z" fill="white"/>
<path d="M133.051 149.636L116.674 145.583L114.259 155.341L130.636 159.393L133.051 149.636Z" fill="white"/>
<path d="M238.836 91.4053H149.287V172.727H238.836V91.4053Z" fill="#D7DDF4"/>
<mask id="mask2_2475_45679" style="mask-type:luminance" maskUnits="userSpaceOnUse" x="149" y="91" width="90" height="82">
<path d="M238.836 91.4053H149.287V172.727H238.836V91.4053Z" fill="white"/>
</mask>
<g mask="url(#mask2_2475_45679)">
<path opacity="0.37" d="M238.836 91.4053H149.287V172.727H238.836V91.4053Z" fill="black"/>
</g>
<path d="M213.102 91.4053H149.287V172.727H213.102V91.4053Z" fill="#D7DDF4"/>
<path d="M187.671 91.4053H173.959V114.105H187.671V91.4053Z" fill="white"/>
<path d="M207.065 120.737H191.174V128.85H207.065V120.737Z" fill="white"/>
<path d="M199.782 149.641L183.404 145.588L180.99 155.345L197.367 159.398L199.782 149.641Z" fill="white"/>
<path d="M305.571 91.4053H216.021V172.727H305.571V91.4053Z" fill="#D7DDF4"/>
<mask id="mask3_2475_45679" style="mask-type:luminance" maskUnits="userSpaceOnUse" x="216" y="91" width="90" height="82">
<path d="M305.571 91.4053H216.021V172.727H305.571V91.4053Z" fill="white"/>
</mask>
<g mask="url(#mask3_2475_45679)">
<path opacity="0.37" d="M305.571 91.4053H216.021V172.727H305.571V91.4053Z" fill="black"/>
</g>
<path d="M279.836 91.4053H216.021V172.727H279.836V91.4053Z" fill="#D7DDF4"/>
<path d="M254.405 91.4053H240.693V114.105H254.405V91.4053Z" fill="white"/>
<path d="M273.799 120.737H257.908V128.85H273.799V120.737Z" fill="white"/>
<path d="M266.524 149.646L250.146 145.593L247.732 155.35L264.109 159.403L266.524 149.646Z" fill="white"/>
<path d="M105.368 202.977H15.8184V284.299H105.368V202.977Z" fill="#D7DDF4"/>
<mask id="mask4_2475_45679" style="mask-type:luminance" maskUnits="userSpaceOnUse" x="15" y="202" width="91" height="83">
<path d="M105.368 202.977H15.8184V284.299H105.368V202.977Z" fill="white"/>
</mask>
<g mask="url(#mask4_2475_45679)">
<path opacity="0.37" d="M105.368 202.977H15.8184V284.299H105.368V202.977Z" fill="black"/>
</g>
<path d="M79.6332 202.977H15.8184V284.299H79.6332V202.977Z" fill="#D7DDF4"/>
<path d="M54.2021 202.977H40.4902V225.677H54.2021V202.977Z" fill="white"/>
<path d="M73.5962 232.309H57.7051V240.421H73.5962V232.309Z" fill="white"/>
<path d="M66.3069 261.199L49.9297 257.146L47.5149 266.904L63.8922 270.957L66.3069 261.199Z" fill="white"/>
<path d="M172.102 202.977H82.5527V284.299H172.102V202.977Z" fill="#D7DDF4"/>
<mask id="mask5_2475_45679" style="mask-type:luminance" maskUnits="userSpaceOnUse" x="82" y="202" width="91" height="83">
<path d="M172.102 202.977H82.5527V284.299H172.102V202.977Z" fill="white"/>
</mask>
<g mask="url(#mask5_2475_45679)">
<path opacity="0.37" d="M172.102 202.977H82.5527V284.299H172.102V202.977Z" fill="black"/>
</g>
<path d="M146.368 202.977H82.5527V284.299H146.368V202.977Z" fill="#D7DDF4"/>
<path d="M120.936 202.977H107.225V225.677H120.936V202.977Z" fill="white"/>
<path d="M140.331 232.309H124.439V240.421H140.331V232.309Z" fill="white"/>
<path d="M133.047 261.204L116.67 257.151L114.255 266.909L130.632 270.962L133.047 261.204Z" fill="white"/>
<path d="M238.836 202.977H149.287V284.299H238.836V202.977Z" fill="#D7DDF4"/>
<mask id="mask6_2475_45679" style="mask-type:luminance" maskUnits="userSpaceOnUse" x="149" y="202" width="90" height="83">
<path d="M238.836 202.977H149.287V284.299H238.836V202.977Z" fill="white"/>
</mask>
<g mask="url(#mask6_2475_45679)">
<path opacity="0.37" d="M238.836 202.977H149.287V284.299H238.836V202.977Z" fill="black"/>
</g>
<path d="M213.102 202.977H149.287V284.299H213.102V202.977Z" fill="#D7DDF4"/>
<path d="M187.671 202.977H173.959V225.677H187.671V202.977Z" fill="white"/>
<path d="M207.065 232.309H191.174V240.421H207.065V232.309Z" fill="white"/>
<path d="M199.778 261.209L183.4 257.156L180.986 266.914L197.363 270.967L199.778 261.209Z" fill="white"/>
<path d="M305.571 202.977H216.021V284.299H305.571V202.977Z" fill="#D7DDF4"/>
<mask id="mask7_2475_45679" style="mask-type:luminance" maskUnits="userSpaceOnUse" x="216" y="202" width="90" height="83">
<path d="M305.571 202.977H216.021V284.299H305.571V202.977Z" fill="white"/>
</mask>
<g mask="url(#mask7_2475_45679)">
<path opacity="0.37" d="M305.571 202.977H216.021V284.299H305.571V202.977Z" fill="black"/>
</g>
<path d="M279.836 202.977H216.021V284.299H279.836V202.977Z" fill="#D7DDF4"/>
<path d="M254.405 202.977H240.693V225.677H254.405V202.977Z" fill="white"/>
<path d="M273.799 232.309H257.908V240.421H273.799V232.309Z" fill="white"/>
<path d="M266.508 261.213L250.131 257.16L247.716 266.918L264.093 270.971L266.508 261.213Z" fill="white"/>
<path d="M105.368 314.549H15.8184V395.871H105.368V314.549Z" fill="#D7DDF4"/>
<mask id="mask8_2475_45679" style="mask-type:luminance" maskUnits="userSpaceOnUse" x="15" y="314" width="91" height="82">
<path d="M105.368 314.549H15.8184V395.871H105.368V314.549Z" fill="white"/>
</mask>
<g mask="url(#mask8_2475_45679)">
<path opacity="0.37" d="M105.368 314.549H15.8184V395.871H105.368V314.549Z" fill="black"/>
</g>
<path d="M79.6332 314.549H15.8184V395.871H79.6332V314.549Z" fill="#D7DDF4"/>
<path d="M54.2021 314.549H40.4902V337.249H54.2021V314.549Z" fill="white"/>
<path d="M73.5962 343.881H57.7051V351.993H73.5962V343.881Z" fill="white"/>
<path d="M66.303 372.767L49.9258 368.714L47.511 378.471L63.8883 382.524L66.303 372.767Z" fill="white"/>
<path d="M172.102 314.549H82.5527V395.871H172.102V314.549Z" fill="#D7DDF4"/>
<mask id="mask9_2475_45679" style="mask-type:luminance" maskUnits="userSpaceOnUse" x="82" y="314" width="91" height="82">
<path d="M172.102 314.549H82.5527V395.871H172.102V314.549Z" fill="white"/>
</mask>
<g mask="url(#mask9_2475_45679)">
<path opacity="0.37" d="M172.102 314.549H82.5527V395.871H172.102V314.549Z" fill="black"/>
</g>
<path d="M146.368 314.549H82.5527V395.871H146.368V314.549Z" fill="#D7DDF4"/>
<path d="M120.936 314.549H107.225V337.249H120.936V314.549Z" fill="white"/>
<path d="M140.331 343.881H124.439V351.993H140.331V343.881Z" fill="white"/>
<path d="M133.043 372.773L116.666 368.72L114.251 378.477L130.629 382.53L133.043 372.773Z" fill="white"/>
<path d="M238.836 314.549H149.287V395.871H238.836V314.549Z" fill="#D7DDF4"/>
<mask id="mask10_2475_45679" style="mask-type:luminance" maskUnits="userSpaceOnUse" x="149" y="314" width="90" height="82">
<path d="M238.836 314.549H149.287V395.871H238.836V314.549Z" fill="white"/>
</mask>
<g mask="url(#mask10_2475_45679)">
<path opacity="0.37" d="M238.836 314.549H149.287V395.871H238.836V314.549Z" fill="black"/>
</g>
<path d="M213.102 314.549H149.287V395.871H213.102V314.549Z" fill="#D7DDF4"/>
<path d="M187.671 314.549H173.959V337.249H187.671V314.549Z" fill="white"/>
<path d="M207.065 343.881H191.174V351.993H207.065V343.881Z" fill="white"/>
<path d="M199.774 372.778L183.396 368.725L180.982 378.482L197.359 382.535L199.774 372.778Z" fill="white"/>
<path d="M305.571 314.549H216.021V395.871H305.571V314.549Z" fill="#D7DDF4"/>
<mask id="mask11_2475_45679" style="mask-type:luminance" maskUnits="userSpaceOnUse" x="216" y="314" width="90" height="82">
<path d="M305.571 314.549H216.021V395.871H305.571V314.549Z" fill="white"/>
</mask>
<g mask="url(#mask11_2475_45679)">
<path opacity="0.37" d="M305.571 314.549H216.021V395.871H305.571V314.549Z" fill="black"/>
</g>
<path d="M279.836 314.549H216.021V395.871H279.836V314.549Z" fill="#D7DDF4"/>
<path d="M254.405 314.549H240.693V337.249H254.405V314.549Z" fill="white"/>
<path d="M273.799 343.881H257.908V351.993H273.799V343.881Z" fill="white"/>
<path d="M266.502 372.781L250.125 368.729L247.71 378.486L264.087 382.539L266.502 372.781Z" fill="white"/>
<path d="M313.861 61.5205H1.04297V76.1187H313.861V61.5205Z" fill="#A3A3A3"/>
<path d="M313.861 169.964H1.04297V184.562H313.861V169.964Z" fill="#A3A3A3"/>
<path d="M313.861 278.397H1.04297V292.996H313.861V278.397Z" fill="#A3A3A3"/>
<path d="M313.861 386.841H1.04297V401.439H313.861V386.841Z" fill="#A3A3A3"/>
<path d="M373.298 0H359.742V443.158H373.298V0Z" fill="#7A7A7A"/>
<path d="M84.4597 0H70.9043V443.158H84.4597V0Z" fill="#7A7A7A"/>
<path d="M370.167 61.5205H306.561V76.1187H370.167V61.5205Z" fill="#757575"/>
<path d="M370.167 169.964H306.561V184.562H370.167V169.964Z" fill="#757575"/>
<path d="M370.167 278.397H306.561V292.996H370.167V278.397Z" fill="#757575"/>
<path d="M370.167 386.841H306.561V401.439H370.167V386.841Z" fill="#757575"/>
<path d="M13.5554 0H0V443.158H13.5554V0Z" fill="#A3A3A3"/>
<path d="M163.71 0H150.154V443.158H163.71V0Z" fill="#A3A3A3"/>
<path d="M313.86 0H300.305V443.158H313.86V0Z" fill="#A3A3A3"/>
</svg>
