<svg width="128" height="96" viewBox="0 0 128 96" fill="none" xmlns="http://www.w3.org/2000/svg">
<g clip-path="url(#clip0_15091_6511)">
<path d="M88.1481 38.9093C88.2562 39.1626 87.6612 41.0971 87.5587 41.4788L86.1181 46.8121L85.1518 50.4533C84.8812 51.5001 84.63 52.6211 84.2381 53.624C83.4268 52.3299 82.6906 50.9818 81.9093 49.6668C80.1568 51.2136 78.2956 52.6337 76.3387 53.9163C68.5387 59.0322 58.5224 62.7748 49.0685 62.297C41.3177 61.905 35.7188 56.6399 38.7116 48.6492C38.9833 47.6632 39.6993 46.3202 40.2508 45.4604C39.8053 46.6359 39.5653 47.8782 39.5412 49.1339C39.444 54.9885 44.766 56.8659 49.7143 56.8012C58.9971 56.6798 70.8825 51.3339 77.4318 44.9C76.3437 43.9307 75.0687 43.0447 73.975 42.0547C74.7693 41.808 76.3331 41.5286 77.2012 41.3418L82.6243 40.1313C83.7087 39.8892 87.2768 38.9396 88.1481 38.9093Z" fill="white"/>
<path d="M88.1481 38.9093C88.2562 39.1626 87.6612 41.0971 87.5587 41.4788L86.1181 46.8121L85.1518 50.4533C84.8812 51.5001 84.63 52.6211 84.2381 53.624C83.4268 52.3299 82.6906 50.9818 81.9093 49.6668C80.1568 51.2136 78.2956 52.6337 76.3387 53.9163C68.5387 59.0322 58.5224 62.7748 49.0685 62.297C41.3177 61.905 35.7188 56.6399 38.7116 48.6492C38.9848 49.0461 38.8035 49.9102 38.7769 50.3967C38.3924 57.4238 44.928 59.8544 50.8964 59.6966C54.2276 59.6085 56.9379 59.1222 60.2073 58.1639C71.0593 54.9831 80.2231 48.1611 87.4837 39.6725C87.6943 39.4261 87.9968 39.1902 88.1481 38.9093Z" fill="white"/>
<path d="M67.2294 8.54413C70.0307 9.71909 72.8413 10.8723 75.6607 12.0037C77.2894 12.6726 78.9238 13.3497 80.55 14.0238C80.7607 14.1111 80.9019 14.1195 80.9819 14.2943L80.8638 14.4218C78.4832 16.4205 76.0838 18.3979 73.6675 20.3536C72.3469 21.4387 70.71 22.8759 69.3588 23.8655C69.3769 22.2853 69.5113 20.8358 69.565 19.2856C65.5432 19.8443 61.0657 21.3014 57.3405 22.867C53.335 24.5504 49.3737 26.9339 46.1857 29.8841C43.8689 32.0616 41.4035 35.5405 41.9058 38.8667C42.5307 43.004 47.18 45.019 50.8486 45.759C51.7084 45.9341 52.6286 45.988 53.4772 46.1954C51.6432 46.3063 49.9718 46.159 48.1559 45.9116C43.3482 45.382 37.6581 42.5924 37.0185 37.2937C36.6234 34.0212 38.3754 30.4555 40.4034 27.9611C46.156 20.8856 55.066 16.5674 63.7294 14.1028C64.9844 13.7521 67.5675 13.0937 68.7969 12.9409C68.2607 11.4801 67.7382 10.0145 67.2294 8.54413Z" fill="white"/>
<path d="M67.2294 8.54413C70.0307 9.71909 72.8413 10.8723 75.6607 12.0037C77.2894 12.6726 78.9238 13.3497 80.55 14.0238C80.7607 14.1111 80.9019 14.1195 80.9819 14.2943L80.8638 14.4218C80.53 14.2424 78.8282 14.4956 78.3057 14.5508C73.1188 15.1393 67.8163 15.9218 62.8013 17.4736C54.6115 20.0082 45.168 24.5903 40.655 32.1647C37.8934 36.7997 39.099 41.9992 44.0634 44.3092C45.332 44.8995 46.5116 45.2995 47.8838 45.6327C48.0473 45.6788 48.0752 45.777 48.1559 45.9116C43.3482 45.382 37.6581 42.5924 37.0185 37.2937C36.6234 34.0212 38.3754 30.4555 40.4034 27.9611C46.156 20.8856 55.066 16.5674 63.7294 14.1028C64.9844 13.7521 67.5675 13.0937 68.7969 12.9409C68.2607 11.4801 67.7382 10.0145 67.2294 8.54413Z" fill="white"/>
<path d="M46.7474 32.1113C47.2584 32.3042 48.2875 32.8707 48.7936 33.1397C49.9253 33.7416 51.1651 34.3742 52.2544 35.0406C52.3623 36.757 52.2461 38.6366 52.273 40.3757C53.4242 41.041 54.7496 41.6952 55.9454 42.2875C55.9974 40.5517 55.9546 38.6899 55.9683 36.939L59.5857 38.8582C60.2956 39.2379 61.1534 39.6695 61.8141 40.1018C61.8412 40.7025 61.8471 41.358 61.8394 41.9591C61.7938 45.4914 61.9372 49.0993 61.796 52.625C60.398 53.1721 58.829 53.7622 57.3559 54.0543C56.805 53.8546 56.3976 53.6312 55.8783 53.3632C52.9208 51.8373 49.7032 49.997 46.7526 48.5648C46.7163 47.972 46.7256 47.5293 46.7434 46.9357C51.4099 47.3635 53.9822 47.1962 58.6044 46.0264C57.6832 45.8814 56.6733 45.7955 55.7373 45.6683C52.7743 45.2657 49.3104 44.5546 46.7507 42.9585C46.7237 42.4372 46.7201 41.8798 46.725 41.3573C46.754 38.2842 46.6513 35.1809 46.7474 32.1113Z" fill="white"/>
<path d="M62.4807 23.0803C62.7562 23.0885 64.3474 23.9708 64.6737 24.1399L69.8168 26.8697L74.7118 29.422C75.563 29.8658 76.7287 30.437 77.5237 30.9369C73.973 32.9517 70.1793 34.7135 66.6005 36.7044C65.3399 37.4055 63.8493 38.2691 62.5462 38.8369C60.9898 38.1061 58.2921 36.7015 56.8074 35.7959C59.0406 34.5206 61.459 33.5779 63.3487 31.8094C64.0105 31.1896 64.3843 30.0742 64.8524 29.6218C65.8487 29.6274 66.828 29.7123 67.8355 29.6737C66.2024 27.9419 64.2649 26.1199 62.5655 24.3957C62.2982 24.6331 62.0123 24.9092 61.7617 25.1641C60.2804 26.6711 58.7132 28.1324 57.2704 29.6731C57.8815 29.6776 59.6505 29.582 60.1231 29.7314L60.1252 29.8366C59.4427 30.6043 57.5866 31.3513 56.6327 31.8853C55.4477 32.5486 54.199 33.2186 52.9929 33.8447C51.2408 32.8875 49.3652 31.9533 47.6521 30.9588C49.5022 29.8653 51.816 28.7362 53.7579 27.7011L58.5017 25.2099C59.8035 24.5138 61.1675 23.7348 62.4807 23.0803Z" fill="white"/>
<path d="M78.0601 32.2181L78.2838 32.1367L78.357 32.1885C78.3957 32.7081 78.3932 33.2597 78.387 33.7827C78.3651 35.6751 78.4188 37.5887 78.3713 39.4791C76.202 39.8973 74.0382 40.4426 71.8907 40.8475C71.4007 40.9615 71.0676 41.045 70.5851 41.2087L71.1632 41.7411C72.2876 42.7835 73.9076 43.9572 74.9038 44.9916C72.1932 47.3207 68.8057 49.2922 65.6157 50.9131C65.1545 51.1472 64.0095 51.7458 63.5776 51.9063L63.4688 51.9641L63.3713 51.8872C63.2938 51.611 63.2932 49.1728 63.2982 48.7441C63.3295 45.9073 63.2213 42.9325 63.3263 40.1093C63.8851 39.7235 64.8376 39.2345 65.4601 38.9072L69.1876 36.9765C72.112 35.44 75.1426 33.712 78.0601 32.2181Z" fill="white"/>
<path d="M71.163 41.7411C72.2874 42.7835 73.9074 43.9572 74.9036 44.9916C72.193 47.3207 68.8055 49.2923 65.6155 50.9131C65.1543 51.1472 64.0093 51.7459 63.5774 51.9063C63.598 51.7963 70.5999 42.3516 71.163 41.7411Z" fill="white"/>
<path d="M78.06 32.2181L78.2838 32.1367L78.3569 32.1885C78.3956 32.7081 78.3931 33.2597 78.3869 33.7827C78.365 35.6751 78.4187 37.5887 78.3712 39.4791C76.2019 39.8973 74.0381 40.4426 71.8906 40.8475C72.0581 40.3854 73.0688 39.1232 73.4244 38.6532C74.6669 37.0356 75.8856 35.3998 77.0794 33.7465C77.3038 33.4341 78.0612 32.5257 78.06 32.2181Z" fill="white"/>
<path d="M48.8779 69.2472L50.2523 69.2503L50.261 73.0767C50.2639 74.9265 50.6054 77.1575 47.9592 77.0842C47.1031 77.0606 46.9292 77.0917 46.1995 76.5561C45.4731 77.2586 44.1528 77.1903 43.2645 76.8838L43.2262 76.9204C42.2629 77.8277 41.0265 77.8736 40.1046 76.8813C39.5765 77.0513 39.2027 77.0675 38.6512 77.0886C38.4865 78.6511 37.6732 78.9384 36.2633 79.0352L36.264 77.7451C36.6351 77.7017 37.1343 77.6347 37.3136 77.2698C37.2931 77.2226 37.2724 77.1761 37.2519 77.1295C36.6302 76.98 36.0341 77.1519 35.4949 76.6939C34.5862 75.9225 34.7434 74.6585 34.7345 73.5992C34.7288 72.9172 34.8186 72.242 35.2747 71.7121C35.7165 71.1995 36.1815 71.1077 36.8159 71.0717C39.3144 71.3639 38.5199 74.023 38.6859 75.7811L38.7998 75.8481C40.3929 75.8791 39.3936 73.4633 39.8549 72.448C40.3423 71.3751 41.4773 70.978 42.5126 71.4471C44.2182 72.2203 43.2804 74.1645 43.7152 75.5241C43.854 75.9604 44.9847 75.8692 45.3014 75.7178C45.7299 75.2126 45.5563 72.1123 45.5489 71.2529L46.9272 71.2473C46.9266 71.9169 46.7623 75.225 47.0893 75.611C47.23 75.7773 47.4516 75.8139 47.6577 75.8257C47.9479 75.8419 48.4669 75.8872 48.6829 75.665C48.7946 75.5502 48.8312 75.4131 48.8556 75.2598C48.9572 74.6163 48.8846 73.8927 48.8831 73.2386L48.8779 69.2472Z" fill="white"/>
<path d="M41.3784 72.4803C42.4403 72.3748 42.2774 73.444 42.2686 74.2334C42.261 74.9203 42.3953 75.8617 41.8849 76.3457C41.3083 76.4115 41.0439 75.9827 41.062 75.472C41.0909 74.6522 40.8593 73.1027 41.3784 72.4803Z" fill="#0E3B64"/>
<path d="M36.4286 72.2997C36.5376 72.2898 36.7 72.2805 36.8063 72.2898C36.931 72.3003 37.0453 72.363 37.1205 72.4623C37.3584 72.7794 37.3149 75.3677 37.2478 75.7934L37.0741 75.8654C36.511 75.8102 36.0969 75.7525 36.1243 75.0264C36.1532 74.2607 35.9192 72.9029 36.4286 72.2997Z" fill="#0E3B64"/>
<path d="M67.5124 71.0766C70.1168 70.9959 69.443 73.354 69.5343 75.0401C69.548 75.2945 69.4918 75.5812 69.5861 75.8164C70.8011 76.2316 70.6143 74.4301 70.6024 73.7394C70.5793 72.4474 71.1005 71.1356 72.638 71.2659C74.5099 71.4241 74.5643 73.0028 74.5055 74.4884C74.4893 74.9756 74.5055 75.4571 74.4655 75.9517C74.0868 77.8096 72.2774 78.0672 70.9568 76.89C70.1024 77.1698 67.3386 77.078 66.2649 77.0743L66.2655 75.8356L68.1655 75.8301C68.1624 74.9054 68.253 73.9032 68.1543 72.9929C68.0593 72.1179 67.338 72.1502 66.7005 72.2954C66.6936 71.9565 66.6299 71.5172 66.7955 71.251C67.0111 71.0872 67.2324 71.102 67.5124 71.0766Z" fill="white"/>
<path d="M72.2495 72.4853C72.3257 72.4766 72.402 72.4704 72.4782 72.466C73.5638 72.4133 72.9876 74.5703 73.1288 75.2449C73.1951 75.5614 73.0676 76.064 72.8295 76.3135C71.6495 76.648 71.9876 74.6349 71.9582 73.9845C71.9357 73.4788 71.9388 72.893 72.2495 72.4853Z" fill="#0E3B64"/>
<path d="M95.9944 71.0723C99.2257 71.269 97.4707 74.9644 98.1157 75.835C98.5451 75.8692 99.0782 75.7184 99.0794 75.1977C99.0832 73.8828 99.0694 72.5684 99.0801 71.2504H100.454C100.449 72.7788 100.818 75.544 99.7876 76.6331C99.1807 77.0799 98.7501 77.0687 98.0201 77.0892C97.9038 78.6555 97.0182 78.9192 95.6401 79.0421C95.6413 78.6219 95.6382 78.2018 95.6301 77.7817C95.9201 77.719 96.6751 77.5819 96.6376 77.199C96.2807 76.8838 94.2132 77.2797 94.1507 75.2951C94.0969 73.583 93.6794 71.4086 95.9944 71.0723Z" fill="white"/>
<path d="M95.8063 72.2997C95.9981 72.2792 96.4281 72.2687 96.4925 72.4623C96.7206 73.1555 96.7206 75.1233 96.6169 75.7928L96.4494 75.8617C96.2806 75.8493 95.835 75.8208 95.74 75.6942C95.3181 75.1295 95.355 72.8055 95.8063 72.2997Z" fill="#0E3B64"/>
<path d="M32.8031 71.2516L34.1775 71.2522C34.1702 72.5436 34.2292 73.8487 34.1667 75.1363C34.0586 77.3622 31.7914 77.1903 30.1776 77.0284C30.0502 78.2434 29.5562 78.9453 28.2534 79.0514C27.2995 79.1296 26.5254 78.4215 26.3513 77.5304C26.1969 76.7386 26.2531 75.7873 26.2546 74.9756L26.2633 71.2864C26.587 71.287 27.3206 71.184 27.5842 71.3559C27.6586 71.4043 27.6358 71.5383 27.6416 71.6587C27.648 72.7894 27.4789 76.5717 27.7421 77.3715C27.8089 77.5745 27.8815 77.6936 28.0733 77.7923C28.5282 77.8115 28.7456 77.6011 28.7783 77.1475C28.8272 76.468 28.8051 75.7705 28.8027 75.0879L28.7994 71.2864L30.1747 71.2826C30.1698 72.0739 30.0448 75.2058 30.3524 75.652C30.5473 75.778 30.7208 75.84 30.9534 75.8295C32.1416 75.7761 32.8216 76.1832 32.8158 74.6665C32.8114 73.5266 32.8101 72.3835 32.8031 71.2516Z" fill="white"/>
<path d="M86.0119 71.1232C87.1319 71.009 87.1438 71.5762 87.585 71.5004C87.6325 71.372 87.6263 71.3751 87.7156 71.2721C87.9975 71.2237 88.5569 71.2473 88.8638 71.251C88.8731 72.1266 88.7281 74.7007 89.005 75.611C89.0825 75.8654 90.1181 76.0026 90.1556 75.3057C90.2269 73.9765 90.185 72.6001 90.1831 71.251L91.5613 71.2541L91.56 74.0013C91.5775 75.521 91.5338 77.0805 89.4388 77.0817C88.7325 77.0817 88.2663 76.7715 87.7963 76.2638C87.1025 77.2449 85.9106 77.5527 85.2619 76.2936C84.7456 75.2914 84.9 73.2994 85.1 72.2079C85.19 71.7164 85.5731 71.349 86.0119 71.1232Z" fill="white"/>
<path d="M86.668 72.2861C86.7099 72.2842 86.7518 72.283 86.7937 72.2817C87.5593 72.2687 87.5474 73.2473 87.5174 73.8077C87.4837 74.432 87.6424 75.4224 87.1637 75.8692L87.0993 75.871C86.1499 75.9052 86.3018 74.8881 86.2987 74.1844C86.2962 73.5731 86.2255 72.7397 86.668 72.2861Z" fill="#0E3B64"/>
<path d="M54.744 71.071C55.0195 71.0779 55.3084 71.1126 55.5663 71.2131C56.0032 71.3832 56.4032 71.7388 56.5878 72.1738C56.9254 72.9681 56.8934 77.3337 56.529 78.0883C56.3506 78.4581 55.9764 78.6977 55.5976 78.8305C55.3022 78.9335 54.6799 79.1048 54.4047 78.9751L54.3877 78.7641L54.386 77.7824C54.7677 77.706 55.2949 77.6421 55.4037 77.2214C55.1455 76.8664 53.0089 77.3591 52.9101 75.2852C52.8296 73.5942 52.4557 71.4074 54.744 71.071Z" fill="white"/>
<path d="M54.5591 72.3022C54.7108 72.2824 54.8255 72.2911 54.9768 72.296C55.6118 72.6001 55.425 73.7469 55.4365 74.3463C55.4442 74.7472 55.4439 75.3926 55.3791 75.7767L55.2591 75.853C55.0539 75.8437 54.5794 75.8394 54.4769 75.6855C54.071 75.0761 54.1143 72.8173 54.5591 72.3022Z" fill="#0E3B64"/>
<path d="M77.945 69.2534L79.3225 69.2509L79.3256 73.076C79.34 75.2753 79.6681 77.2164 76.6843 77.109C76.1331 77.0892 75.1025 76.7069 75.0437 76.0876C75.1175 75.8816 75.0568 75.9597 75.2093 75.8294C75.3862 75.835 75.5168 75.8574 75.6768 75.786C75.7475 75.4869 75.7087 74.314 75.7037 73.9392L75.7 70.7309L77.0743 70.7303L77.0712 73.9951C77.0712 74.4586 77.0481 75.3324 77.0956 75.7612C77.4912 76.0758 77.9618 75.5508 77.9631 75.0928C77.9643 74.5629 77.9431 74.0391 77.9443 73.5104C77.955 72.0912 77.955 70.672 77.945 69.2534Z" fill="white"/>
<path d="M69.4924 85.5827C69.6393 85.5778 70.0537 85.543 70.1618 85.5952C70.3074 85.6659 70.2793 86.0978 70.1924 86.2399C69.9731 86.256 69.8462 86.2623 69.6299 86.3119C69.6318 86.5372 70.1993 86.8946 70.1387 87.3737C69.9712 88.6936 68.3781 88.1407 67.8868 88.5738L67.8893 88.6917C68.4374 89.2086 69.9943 88.639 70.4724 89.4432C70.7693 89.9434 70.1874 90.536 69.7624 90.7427C69.1099 90.8786 67.6193 91.0412 67.1474 90.4479C66.7543 89.9539 67.3556 89.6989 67.5331 89.5071C67.5237 89.0963 66.6212 88.8115 67.7724 88.3064C67.4668 88.0215 67.1518 87.5859 67.1456 87.2533C67.1281 86.3752 68.5899 86.284 69.1899 86.2461C69.1981 86.2461 69.2706 85.8142 69.4924 85.5827Z" fill="white"/>
<path d="M67.9081 89.6312C68.3581 89.6188 69.4825 89.4755 69.6044 89.9775C69.5381 90.1655 69.5156 90.1717 69.355 90.3052C68.8838 90.379 67.9956 90.4591 67.7288 89.9924C67.7619 89.7913 67.7663 89.7864 67.9081 89.6312Z" fill="#0E3B64"/>
<path d="M68.3845 86.8381C68.6639 86.6879 69.012 86.7915 69.1626 87.0683C69.3139 87.3457 69.2095 87.6914 68.9301 87.8409C68.6514 87.9905 68.3032 87.8875 68.1526 87.6101C68.002 87.3333 68.1057 86.9876 68.3845 86.8381Z" fill="#0E3B64"/>
<path d="M61.5775 71.0747C62.8564 71.1145 63.6314 71.5166 63.6314 72.9681C63.632 73.969 63.6976 75.1524 63.5832 76.1236C63.4514 77.2362 61.668 77.0842 60.8739 77.0792C60.5796 77.0755 60.6197 77.1214 60.4213 76.9831C60.2929 76.6821 60.3574 76.19 60.3664 75.8369C60.991 75.8294 61.6267 75.8356 62.2524 75.835C62.2526 74.9265 62.3261 73.9603 62.2633 73.063C62.1989 72.1421 61.4831 72.1458 60.8081 72.2892L60.8069 71.2131C61.0676 71.1356 61.3094 71.1107 61.5775 71.0747Z" fill="white"/>
<path d="M57.1455 84.8796C57.4533 84.8691 57.7852 84.8734 58.0953 84.8709C58.0751 86.3981 58.067 88.0985 58.1057 89.6176C57.8137 89.6306 57.4791 89.6691 57.2032 89.599C57.1741 89.4866 57.1659 89.4475 57.1577 89.3346L57.1514 89.2415C56.8557 89.2347 56.7634 89.6399 55.9314 89.62C53.9434 88.8971 55.1124 84.8871 57.1611 86.763L57.1455 84.8796Z" fill="white"/>
<path d="M56.3004 86.9964C56.5721 86.9746 56.888 86.9554 57.0392 87.2204C57.3299 87.7292 57.3393 88.5813 56.804 88.9244C55.5816 88.9908 55.6591 87.4711 56.3004 86.9964Z" fill="#0E3B64"/>
<path d="M92.1331 69.2485L93.5125 69.2522L93.5112 77.0712L92.1306 77.078L92.1331 69.2485Z" fill="white"/>
<path d="M50.8709 69.2416L52.2461 69.2522L52.2462 77.0699L50.8672 77.0743L50.8709 69.2416Z" fill="white"/>
<path d="M79.9812 69.2497L81.355 69.2522L81.3556 77.065C80.9162 77.0811 80.4268 77.0743 79.9831 77.078L79.9812 69.2497Z" fill="white"/>
<path d="M64.2705 69.2516H65.6411L65.6455 74.7472C65.6455 75.1475 65.6668 76.7876 65.6105 77.0358L65.453 77.0724L64.2774 77.0755C64.3211 74.535 64.3005 71.7903 64.2705 69.2516Z" fill="white"/>
<path d="M37.1313 86.279C37.3676 86.2728 37.8735 86.2225 38.0288 86.3435L38.0705 86.6917C38.3403 86.6631 38.5776 86.3162 38.8247 86.2827C40.3117 86.0823 40.6192 88.0712 40.0308 89.0485C39.7707 89.4804 39.5345 89.545 39.1025 89.6492C38.5173 89.5785 38.4727 89.5183 38.0567 89.1162L38.0537 90.8581L37.1262 90.8649L37.1313 86.279Z" fill="white"/>
<path d="M38.373 87.0032C39.6089 86.8455 39.5637 88.3299 38.9973 88.8971C37.6595 89.1106 37.8304 87.4413 38.373 87.0032Z" fill="#0E3B64"/>
<path d="M33.3057 86.2784C33.5522 86.274 34.0326 86.2343 34.2146 86.3417L34.2446 86.673C34.518 86.6668 34.7397 86.3566 35 86.3082C36.5689 86.0177 36.7877 88.2418 36.1208 89.1664C35.8542 89.5363 35.609 89.576 35.213 89.6511C34.6829 89.5661 34.6185 89.4935 34.2336 89.1187L34.2399 90.8562L33.3067 90.8661L33.3057 86.2784Z" fill="white"/>
<path d="M34.5447 87.0094C35.7792 86.8387 35.7512 88.289 35.1622 88.8996C34.4563 89.0188 34.16 88.7017 34.1786 87.9409C34.1891 87.5077 34.2113 87.2942 34.5447 87.0094Z" fill="#0E3B64"/>
<path d="M89.6886 85.2191C90.5305 85.144 91.0899 85.4896 91.5705 86.1443L90.7893 86.5682C90.1618 85.4133 88.763 85.6963 88.8143 87.4283C88.878 89.5729 90.8618 89.2564 90.728 87.9464C90.5411 87.7987 90.4218 87.9092 90.0593 87.8701C89.8774 87.7466 89.9449 87.8254 89.8536 87.6237C89.8693 87.4159 89.8805 87.4096 90.0118 87.2378C90.258 87.1099 90.3161 87.1602 90.6249 87.1701H91.6361L91.6399 89.6083C91.3905 89.6201 91.0643 89.6679 90.8499 89.5723C90.8468 89.4364 90.8411 89.3327 90.8293 89.1975C90.6099 89.1857 90.2161 89.5965 89.8799 89.6269C88.4755 89.764 87.7036 88.5347 87.8268 87.257C87.9399 86.0823 88.4718 85.3879 89.6886 85.2191Z" fill="white"/>
<path d="M64.9862 86.2734C66.9781 86.2238 67.4144 89.1 65.3131 89.6294C63.0162 89.6598 62.8694 86.6284 64.9862 86.2734Z" fill="white"/>
<path d="M64.8151 87.0026C66.0532 86.8822 65.9101 88.4131 65.3788 88.9176C64.7413 88.9586 64.4644 88.7501 64.4419 88.0041C64.4301 87.6113 64.5188 87.2781 64.8151 87.0026Z" fill="#0E3B64"/>
<path d="M26.9471 85.2179C27.6772 85.1775 28.1739 85.3457 28.7245 85.7993L28.0606 86.3783C27.5644 85.8769 26.6306 85.5908 26.38 86.4428C26.6143 87.2247 28.6977 86.8636 28.7855 88.0985C28.8638 89.2012 28.1177 89.5059 27.1784 89.6344C26.2828 89.607 26.0685 89.4984 25.3215 88.997C25.5363 88.7923 25.7598 88.5881 25.9774 88.3858C26.0882 88.4919 26.206 88.5906 26.33 88.6812C27.5433 89.5686 28.7778 87.9297 26.8697 87.715C24.9098 87.494 24.9669 85.5362 26.9471 85.2179Z" fill="white"/>
<path d="M93.598 86.2783C95.8924 86.1896 94.9568 87.8353 95.2655 88.8946L95.4686 88.9641C95.6111 89.1658 95.5905 89.3203 95.5493 89.571C94.9993 89.9012 94.6824 89.4817 94.3955 89.0789L94.3074 89.0777C93.7299 89.6523 93.7324 89.7044 92.8849 89.5791C92.443 89.2688 92.2511 89.0255 92.343 88.441C92.4936 87.4853 93.768 87.9296 94.2286 87.6119C94.3536 87.386 94.3518 87.4649 94.3318 87.2427C93.9505 86.8077 93.3699 87.023 92.9899 87.3358C92.8074 87.1775 92.5936 87.0174 92.4018 86.8673C92.8911 86.4695 92.9661 86.3814 93.598 86.2783Z" fill="white"/>
<path d="M93.3882 88.2598C93.7194 88.2176 94.1651 88.1022 94.3251 88.4391C94.2963 88.6675 94.2632 88.6973 94.1413 88.9027C93.7832 88.948 93.4901 88.9995 93.2701 88.6874C93.2563 88.472 93.2776 88.4571 93.3882 88.2598Z" fill="#0E3B64"/>
<path d="M48.866 86.2765C50.8132 86.2163 50.3711 87.4866 50.479 88.8301C50.6808 88.9827 50.766 89.0206 50.8694 89.2527C50.846 89.4941 50.8701 89.4047 50.7227 89.6145C50.1461 89.9018 49.8714 89.3625 49.5949 89.033C48.9068 89.3768 49.3978 89.8863 48.0446 89.54C47.5727 89.1714 47.4611 88.8965 47.6191 88.2871C47.8376 87.445 49.3648 88.0141 49.545 87.4829C49.3666 86.6383 48.6765 86.9827 48.2028 87.3302L47.6394 86.8598C48.1001 86.4552 48.2717 86.3621 48.866 86.2765Z" fill="white"/>
<path d="M48.6137 88.2585C48.9444 88.2238 49.4039 88.104 49.5677 88.436C49.5259 88.6638 49.5163 88.6904 49.3823 88.8791C49.0271 88.9412 48.6829 89.0224 48.4927 88.6576C48.4992 88.4497 48.5066 88.4428 48.6137 88.2585Z" fill="#0E3B64"/>
<path d="M99.7325 86.2753C101.121 86.2976 101.343 86.9951 101.458 88.1965C100.971 88.2201 99.5956 88.1481 99.2838 88.3126C99.2206 88.5502 99.3663 88.7836 99.6075 88.9027C100.001 89.0988 100.738 88.6154 100.929 88.6613C101.071 88.8189 101.181 88.9095 101.233 89.1137C101.106 89.3514 100.936 89.468 100.653 89.5437C98.7931 90.0414 97.7106 88.4379 98.6025 86.8567C98.7956 86.5154 99.3319 86.3429 99.7325 86.2753Z" fill="white"/>
<path d="M99.5776 87.0038C99.9976 86.966 100.551 87.0851 100.464 87.6231L100.322 87.6883C99.9969 87.6908 99.4194 87.7894 99.2732 87.4891C99.3213 87.262 99.4232 87.1807 99.5776 87.0038Z" fill="#0E3B64"/>
<path d="M42.51 86.2908C42.7851 86.2722 43.1283 86.2821 43.4104 86.2827C43.691 87.1732 43.9864 88.0699 44.1613 88.9859C44.363 88.0885 44.6653 87.159 44.9352 86.2747L45.8055 86.2871C45.6078 86.9622 45.2976 87.7956 45.0669 88.4751C44.9211 88.9083 44.7871 89.3731 44.642 89.805C44.3015 90.8196 43.8758 90.8711 42.9302 90.8854C42.9073 90.6589 42.8619 90.4876 42.9545 90.2872C43.1693 90.0967 43.2849 90.1724 43.5536 90.0911C43.8143 89.5922 42.6257 87.0392 42.51 86.2908Z" fill="white"/>
<path d="M29.4729 86.2815L30.3947 86.2809C30.4026 86.8456 30.0534 89.5785 31.2937 88.8096C31.6743 88.5732 31.5196 86.7376 31.5094 86.2896C31.8089 86.2765 32.1497 86.2809 32.4529 86.2784L32.4492 87.481L32.4514 89.6201C32.1622 89.6312 31.9317 89.6331 31.6425 89.6238C31.4077 89.4711 31.6378 89.3849 31.472 89.154C31.0831 89.4842 30.7714 89.7752 30.2167 89.6002C29.1966 89.2775 29.4667 87.1323 29.4729 86.2815Z" fill="white"/>
<path d="M51.335 86.2902C51.5818 86.2784 52.0793 86.2182 52.2481 86.3553L52.2608 86.6855L52.3277 86.7357C52.58 86.5291 52.7747 86.3137 53.1118 86.2802C54.6667 86.1239 54.2927 88.5732 54.297 89.6139C53.9943 89.6275 53.6667 89.6238 53.3618 89.6263L53.3628 88.0414C53.3654 87.697 53.4045 87.3532 53.2075 87.0714C51.9031 86.413 52.2536 88.9672 52.2615 89.6188L51.3433 89.6306L51.335 86.2902Z" fill="white"/>
<path d="M84.2856 86.2747C84.74 86.2591 85.4875 86.3125 85.6606 86.7916C85.62 87.0218 85.4425 87.1298 85.255 87.2942C84.9125 87.0671 84.3531 86.8679 83.9756 87.1217L83.9894 87.2582C84.4706 87.8962 85.6375 87.3879 85.845 88.3324C86.0282 89.1671 85.3075 89.4792 84.6231 89.6319C84.1275 89.6257 83.2956 89.5946 83.1375 89.0343C83.1881 88.814 83.3513 88.7215 83.5344 88.567C83.9232 88.8071 84.5888 89.2111 84.94 88.7004C84.7913 88.1947 83.2194 88.351 83.1113 87.5096C83.0057 86.6873 83.59 86.405 84.2856 86.2747Z" fill="white"/>
<path d="M73.6551 86.2784C74.3163 86.2728 74.617 86.3864 75.142 86.7488L74.6088 87.3017C74.2876 87.0721 73.6263 86.8226 73.307 87.1559C73.3463 87.4916 73.7938 87.5406 74.0913 87.6058C75.992 88.024 75.462 89.4532 73.7795 89.6387C73.1245 89.5884 72.8513 89.5134 72.3713 89.0572L72.8632 88.5726C73.2626 88.8053 74.0238 89.2577 74.2901 88.657C74.1676 88.1742 73.1588 88.3393 72.7507 87.9806C71.8882 87.2223 72.7663 86.4242 73.6551 86.2784Z" fill="white"/>
<path d="M60.4816 85.2197L61.4466 85.2178L61.4403 88.9275L63.1463 88.9294L63.1607 89.5766C62.8682 89.6647 60.9138 89.6275 60.481 89.6238L60.4816 85.2197Z" fill="white"/>
<path d="M81.1525 86.2784C81.96 86.2424 82.2488 86.4658 82.7244 87.069L81.9882 87.4276C81.2882 86.4434 80.5507 87.1813 80.755 88.1394C80.83 88.4925 80.7225 88.701 81.1 88.9356C81.5007 88.953 81.6932 88.7916 81.9788 88.5508L82.0363 88.5018L82.2113 88.5229C82.4157 88.6117 82.4494 88.616 82.6038 88.7674C82.6213 88.8729 82.6482 89.0336 82.5482 89.1205C80.1788 91.1882 78.4206 86.84 81.1525 86.2784Z" fill="white"/>
<path d="M96.3775 85.3873L97.2437 85.3835L97.2268 86.2672C97.6012 86.2647 97.6468 86.2132 97.8831 86.4813C97.9356 86.7184 97.9437 86.6191 97.825 86.8555C97.5712 87.0243 97.5712 86.9728 97.2262 86.9951C97.2268 87.383 97.1006 88.7501 97.3743 88.9443C97.5725 88.9213 97.6012 88.9064 97.7806 88.9747C97.8925 89.1993 97.8506 89.2049 97.8343 89.4736L97.8081 89.5593C97.5987 89.6772 97.1781 89.6343 96.9856 89.5984C95.8637 89.3905 96.4843 87.7814 96.2581 87.0348C96.23 86.9418 96.0081 87.0634 95.8218 86.7754C95.8043 86.5707 95.785 86.5117 95.8506 86.3237C96.0843 86.2753 96.1243 86.2821 96.2975 86.1338C96.4306 85.9048 96.3868 85.6628 96.3775 85.3873Z" fill="white"/>
<path d="M76.017 85.386L76.8676 85.3848L76.8664 86.266C77.2607 86.2635 77.3245 86.2014 77.5551 86.5309C77.5901 87.0268 77.2251 86.9908 76.8601 86.9939C76.8632 87.4518 76.7345 88.7221 77.0632 88.9772C77.2214 88.9585 77.2901 88.9356 77.4382 88.9952C77.5526 89.2136 77.5151 89.3731 77.5007 89.6238C76.7839 89.6412 76.112 89.6921 75.9551 88.8208C75.8764 88.3833 76.0357 87.3761 75.8839 87.0261C75.6139 86.956 75.5282 86.9678 75.4226 86.7066C75.437 86.5359 75.4276 86.4298 75.5251 86.2895C75.747 86.2529 75.7964 86.2622 75.9582 86.1238C76.0739 85.9067 76.0282 85.6442 76.017 85.386Z" fill="white"/>
<path d="M41.0137 84.8771L41.9415 84.8697C41.946 85.7025 41.8565 88.2182 42.0083 88.8692L42.273 88.9914C42.4191 89.2365 42.3679 89.2949 42.3702 89.6138C41.9945 89.6325 41.579 89.6771 41.2795 89.4022C40.806 88.9678 41.0117 85.5951 41.0137 84.8771Z" fill="white"/>
<path d="M78.2275 86.2802L79.1488 86.2784L79.1469 89.6132L78.23 89.63L78.2275 86.2802Z" fill="white"/>
<path d="M70.828 86.2883C71.133 86.2703 71.458 86.2802 71.7655 86.2833C71.7543 87.3916 71.7593 88.5006 71.7805 89.6089C71.478 89.625 71.1287 89.6219 70.8218 89.6263L70.828 86.2883Z" fill="white"/>
<path d="M46.9022 69.1641C47.2853 69.0561 47.6853 69.2702 47.8054 69.6468C47.9255 70.0241 47.7222 70.4275 47.3464 70.5584C47.0928 70.6466 46.8111 70.5907 46.6111 70.4126C46.411 70.2345 46.3244 69.9627 46.385 69.7027C46.4455 69.4427 46.6437 69.2367 46.9022 69.1641Z" fill="white"/>
<path d="M90.557 77.5999C90.9395 77.4627 91.362 77.6588 91.5001 78.0386C91.6388 78.4178 91.4413 78.8373 91.0588 78.975C90.6763 79.1128 90.2538 78.9161 90.1151 78.5363C89.977 78.1565 90.1745 77.737 90.557 77.5999Z" fill="white"/>
<path d="M85.8813 69.1572C86.1388 69.0933 86.4113 69.1715 86.5944 69.3626C86.7775 69.5531 86.8425 69.8274 86.7657 70.0794C86.6882 70.3313 86.48 70.5224 86.2207 70.5802C85.8275 70.6664 85.4375 70.4238 85.345 70.0347C85.2519 69.6456 85.4913 69.2553 85.8813 69.1572Z" fill="white"/>
<path d="M31.3686 77.6638C31.7485 77.5304 32.1661 77.7246 32.3053 78.1007C32.4444 78.4761 32.2533 78.8931 31.8766 79.0352C31.629 79.1289 31.3498 79.083 31.1456 78.9155C30.9414 78.7479 30.8438 78.4842 30.8899 78.2254C30.9361 77.966 31.1189 77.7519 31.3686 77.6638Z" fill="white"/>
<path d="M28.0382 69.156C28.3005 69.097 28.5744 69.1845 28.7525 69.3844C28.9305 69.5848 28.9844 69.8653 28.8929 70.1166C28.8014 70.3679 28.579 70.5491 28.3132 70.5895C27.9219 70.6497 27.553 70.3909 27.4789 70.0049C27.4049 69.6183 27.6521 69.2435 28.0382 69.156Z" fill="white"/>
<path d="M99.4687 77.5999C99.7219 77.5124 100.003 77.5695 100.202 77.7476C100.401 77.9257 100.486 78.1969 100.424 78.4556C100.363 78.715 100.165 78.9198 99.9069 78.9918C99.5244 79.0979 99.1262 78.8826 99.0081 78.5065C98.8894 78.1305 99.0937 77.7284 99.4687 77.5999Z" fill="white"/>
<path d="M33.122 77.6626C33.5024 77.5391 33.9125 77.742 34.0421 78.118C34.1716 78.4941 33.9725 78.9037 33.5954 79.0371C33.3471 79.1246 33.0704 79.0731 32.8712 78.9018C32.6719 78.7305 32.5809 78.4662 32.6327 78.2099C32.6847 77.9536 32.8716 77.7445 33.122 77.6626Z" fill="white"/>
<path d="M87.6113 69.1647C87.8657 69.0977 88.137 69.1715 88.3213 69.3583C88.5057 69.5451 88.5745 69.8156 88.502 70.067C88.4295 70.3183 88.2263 70.5113 87.9701 70.5727C87.5807 70.6658 87.1882 70.4306 87.0901 70.0453C86.9913 69.6593 87.2238 69.2671 87.6113 69.1647Z" fill="white"/>
<path d="M45.198 69.1628C45.4589 69.102 45.7321 69.1883 45.9099 69.3875C46.0878 69.586 46.1417 69.8659 46.0504 70.116C45.9591 70.3661 45.7372 70.546 45.4723 70.5857C45.0848 70.6435 44.7204 70.3872 44.6467 70.0049C44.573 69.6226 44.8163 69.2509 45.198 69.1628Z" fill="white"/>
<path d="M78.4043 84.9187C78.5824 84.8139 78.8042 84.8163 78.9805 84.9243C79.1561 85.0323 79.258 85.2278 79.2436 85.4332C79.2293 85.638 79.1011 85.8179 78.9118 85.9011C78.6424 86.0184 78.3267 85.9073 78.1924 85.6473C78.058 85.3866 78.1505 85.0677 78.4043 84.9187Z" fill="white"/>
<path d="M71.0107 84.9231C71.2713 84.7648 71.6126 84.8449 71.7732 85.1036C71.9345 85.3618 71.8545 85.7006 71.5951 85.8613C71.3345 86.0233 70.9901 85.9439 70.8282 85.6839C70.6663 85.4238 70.7482 85.0825 71.0107 84.9231Z" fill="white"/>
</g>
<defs>
<clipPath id="clip0_15091_6511">
<rect width="128" height="96" fill="white"/>
</clipPath>
</defs>
</svg>
