<svg width="106" height="80" viewBox="0 0 106 80" fill="none" xmlns="http://www.w3.org/2000/svg">
<g clip-path="url(#clip0_15653_1228)">
<path d="M72.9976 32.4243C73.0871 32.6354 72.5944 34.2475 72.5095 34.5656L71.3165 39.01L70.5163 42.0443C70.2922 42.9167 70.0842 43.8508 69.7596 44.6866C69.0878 43.6081 68.4781 42.4847 67.8311 41.3889C66.3799 42.6779 64.8385 43.8613 63.218 44.9301C56.7586 49.1934 48.4638 52.3123 40.6348 51.9141C34.2162 51.5874 29.5796 47.1999 32.058 40.5409C32.283 39.7192 32.876 38.6001 33.3326 37.8836C32.9637 38.8632 32.765 39.8984 32.745 40.9448C32.6645 45.8237 37.0718 47.3881 41.1697 47.3342C48.8569 47.2331 58.6995 42.7782 64.1232 37.4165C63.2221 36.6088 62.1662 35.8705 61.2605 35.0455C61.9183 34.8399 63.2133 34.6071 63.9322 34.4514L68.4232 33.4426C69.3212 33.2409 72.2761 32.4496 72.9976 32.4243Z" fill="white"/>
<path d="M72.9976 32.4243C73.0871 32.6354 72.5944 34.2475 72.5095 34.5656L71.3165 39.01L70.5163 42.0443C70.2922 42.9167 70.0842 43.8508 69.7596 44.6866C69.0878 43.6081 68.4781 42.4847 67.8311 41.3889C66.3799 42.6779 64.8385 43.8613 63.218 44.9301C56.7586 49.1934 48.4638 52.3123 40.6348 51.9141C34.2162 51.5874 29.5796 47.1999 32.058 40.5409C32.2843 40.8716 32.1341 41.5917 32.1121 41.9971C31.7937 47.8531 37.2059 49.8786 42.1486 49.747C44.9072 49.6736 47.1517 49.2684 49.8591 48.4698C58.846 45.8191 66.4347 40.1342 72.4474 33.0603C72.6218 32.855 72.8723 32.6584 72.9976 32.4243Z" fill="white"/>
<path d="M55.6742 7.12012C57.994 8.09925 60.3216 9.06029 62.6564 10.0031C64.0052 10.5605 65.3587 11.1247 66.7054 11.6865C66.8798 11.7593 66.9968 11.7663 67.063 11.9119L66.9652 12.0182C64.9938 13.6837 63.0068 15.3316 61.0058 16.9614C59.9122 17.8656 58.5566 19.0633 57.4376 19.888C57.4526 18.5711 57.5639 17.3632 57.6084 16.0713C54.2778 16.5369 50.5699 17.7512 47.485 19.0558C44.168 20.4587 40.8874 22.4449 38.2474 24.9034C36.3288 26.718 34.2872 29.6171 34.7032 32.3889C35.2206 35.8367 39.0708 37.5159 42.1089 38.1325C42.8209 38.2784 43.5829 38.3234 44.2857 38.4962C42.7669 38.5886 41.3828 38.4658 39.879 38.2597C35.8976 37.8183 31.1855 35.4937 30.6558 31.0781C30.3286 28.351 31.7795 25.3796 33.459 23.301C38.2228 17.4047 45.6014 13.8062 52.7758 11.7523C53.8151 11.4601 55.9543 10.9115 56.9723 10.7841C56.5282 9.56676 56.0956 8.3454 55.6742 7.12012Z" fill="white"/>
<path d="M55.6742 7.12012C57.994 8.09925 60.3216 9.06029 62.6564 10.0031C64.0052 10.5605 65.3587 11.1247 66.7054 11.6865C66.8798 11.7593 66.9968 11.7663 67.063 11.9119L66.9652 12.0182C66.6888 11.8687 65.2795 12.0797 64.8468 12.1257C60.5514 12.6161 56.1602 13.2682 52.0072 14.5613C45.225 16.6735 37.4047 20.492 33.6673 26.8039C31.3803 30.6664 32.3788 34.9994 36.4899 36.9244C37.5404 37.4163 38.5173 37.7496 39.6537 38.0273C39.7891 38.0656 39.8121 38.1475 39.879 38.2597C35.8976 37.8183 31.1855 35.4937 30.6558 31.0781C30.3286 28.351 31.7795 25.3796 33.459 23.301C38.2228 17.4047 45.6014 13.8062 52.7758 11.7523C53.8151 11.4601 55.9543 10.9115 56.9723 10.7841C56.5282 9.56676 56.0956 8.3454 55.6742 7.12012Z" fill="white"/>
<path d="M38.7126 26.7595C39.1358 26.9203 39.988 27.3923 40.4071 27.6166C41.3443 28.1181 42.371 28.6453 43.273 29.2006C43.3624 30.6309 43.2662 32.1972 43.2885 33.6466C44.2418 34.2009 45.3394 34.7461 46.3297 35.2397C46.3727 33.7932 46.3373 32.2417 46.3486 30.7826L49.3443 32.382C49.9321 32.6984 50.6426 33.0581 51.1897 33.4182C51.2121 33.9189 51.217 34.4651 51.2106 34.966C51.1729 37.9096 51.2916 40.9162 51.1747 43.8542C50.017 44.3102 48.7177 44.802 47.4977 45.0453C47.0415 44.879 46.7041 44.6928 46.2741 44.4694C43.8249 43.1979 41.1603 41.6642 38.7169 40.4708C38.6868 39.9768 38.6945 39.6079 38.7093 39.1132C42.5737 39.4697 44.7039 39.3303 48.5316 38.3554C47.7688 38.2346 46.9325 38.1631 46.1574 38.0571C43.7036 37.7215 40.8351 37.1289 38.7153 35.7988C38.6929 35.3644 38.6899 34.8999 38.694 34.4645C38.718 31.9036 38.633 29.3175 38.7126 26.7595Z" fill="white"/>
<path d="M51.7418 19.2336C51.97 19.2405 53.2877 19.9757 53.5579 20.1166L57.817 22.3915L61.8707 24.5184C62.5757 24.8882 63.5409 25.3642 64.1993 25.7808C61.2589 27.4598 58.1172 28.928 55.1536 30.587C54.1096 31.1713 52.8752 31.891 51.7961 32.3641C50.5072 31.7551 48.2732 30.5846 47.0437 29.8299C48.893 28.7672 50.8957 27.9816 52.4606 26.5079C53.0087 25.9914 53.3183 25.0619 53.7059 24.6849C54.5309 24.6896 55.342 24.7603 56.1763 24.7281C54.8239 23.285 53.2194 21.7666 51.8121 20.3298C51.5907 20.5277 51.3539 20.7577 51.1464 20.9701C49.9197 22.226 48.6219 23.4437 47.4271 24.7276C47.9332 24.7314 49.3981 24.6517 49.7895 24.7762L49.7912 24.8638C49.226 25.5036 47.6889 26.1261 46.899 26.5711C45.9177 27.1239 44.8836 27.6822 43.8847 28.204C42.4338 27.4063 40.8805 26.6278 39.4619 25.7991C40.994 24.8878 42.9101 23.9469 44.5182 23.0843L48.4468 21.0083C49.5248 20.4282 50.6543 19.779 51.7418 19.2336Z" fill="white"/>
<path d="M64.6434 26.8484L64.8287 26.7805L64.8893 26.8237C64.9214 27.2567 64.9193 27.7164 64.9141 28.1523C64.896 29.7292 64.9405 31.3239 64.9012 32.8992C63.1047 33.2477 61.3128 33.7021 59.5344 34.0395C59.1286 34.1346 58.8528 34.2042 58.4532 34.3405L58.932 34.7842C59.8631 35.6529 61.2046 36.631 62.0297 37.493C59.7849 39.4339 56.9796 41.0768 54.3379 42.4275C53.956 42.6226 53.0078 43.1215 52.6501 43.2552L52.56 43.3034L52.4793 43.2393C52.4151 43.0091 52.4146 40.9773 52.4187 40.6201C52.4446 38.256 52.3551 35.7771 52.442 33.4244C52.9048 33.1029 53.6935 32.6953 54.209 32.4227L57.2959 30.8137C59.7176 29.5333 62.2274 28.0933 64.6434 26.8484Z" fill="white"/>
<path d="M58.932 34.7842C59.8631 35.6528 61.2047 36.6309 62.0297 37.4929C59.785 39.4338 56.9797 41.0768 54.338 42.4275C53.956 42.6226 53.0078 43.1215 52.6501 43.2551C52.6672 43.1635 58.4657 35.2929 58.932 34.7842Z" fill="white"/>
<path d="M64.6434 26.8484L64.8287 26.7805L64.8893 26.8237C64.9214 27.2567 64.9193 27.7164 64.9141 28.1523C64.896 29.7292 64.9405 31.3239 64.9012 32.8992C63.1047 33.2477 61.3128 33.7021 59.5344 34.0395C59.6731 33.6545 60.5101 32.6027 60.8046 32.211C61.8335 30.8629 62.8428 29.4998 63.8314 28.1221C64.0172 27.8617 64.6445 27.1047 64.6434 26.8484Z" fill="white"/>
<path d="M40.4768 57.7061L41.615 57.7086L41.6222 60.8973C41.6246 62.4388 41.9074 64.2979 39.716 64.2369C39.0071 64.2172 38.8631 64.2431 38.2588 63.7968C37.6572 64.3822 36.5639 64.3253 35.8283 64.0699L35.7966 64.1004C34.9988 64.8564 33.9749 64.8947 33.2114 64.0678C32.7741 64.2095 32.4646 64.2229 32.0079 64.2405C31.8715 65.5426 31.198 65.7821 30.0304 65.8627L30.031 64.7876C30.3383 64.7514 30.7517 64.6956 30.9002 64.3915C30.8832 64.3522 30.8661 64.3134 30.8491 64.2746C30.3343 64.15 29.8406 64.2933 29.394 63.9116C28.6416 63.2688 28.7718 62.2154 28.7644 61.3327C28.7596 60.7644 28.834 60.2017 29.2117 59.7601C29.5776 59.3329 29.9626 59.2564 30.488 59.2264C32.5571 59.47 31.8992 61.6859 32.0366 63.1509L32.1309 63.2068C33.4502 63.2326 32.6227 61.2194 33.0047 60.3734C33.4083 59.4793 34.3482 59.1483 35.2056 59.5393C36.618 60.1836 35.8414 61.8038 36.2015 62.9368C36.3164 63.3004 37.2528 63.2243 37.5151 63.0982C37.8699 62.6772 37.7262 60.0936 37.7201 59.3774L38.8615 59.3728C38.861 59.9307 38.7249 62.6876 38.9957 63.0092C39.1122 63.1478 39.2957 63.1783 39.4664 63.1881C39.7067 63.2016 40.1365 63.2393 40.3153 63.0542C40.4078 62.9585 40.4382 62.8443 40.4584 62.7165C40.5425 62.1803 40.4824 61.5773 40.4811 61.0322L40.4768 57.7061Z" fill="white"/>
<path d="M34.2664 60.4003C35.1458 60.3124 35.0109 61.2034 35.0036 61.8612C34.9973 62.4337 35.1085 63.2182 34.6858 63.6215C34.2084 63.6763 33.9894 63.319 34.0043 62.8934C34.0283 62.2103 33.8365 60.919 34.2664 60.4003Z" fill="#0E3B64"/>
<path d="M30.1674 60.2498C30.2577 60.2415 30.3922 60.2337 30.4802 60.2415C30.5835 60.2503 30.6781 60.3025 30.7404 60.3852C30.9374 60.6495 30.9014 62.8064 30.8458 63.1612L30.702 63.2212C30.2357 63.1752 29.8928 63.1271 29.9154 62.522C29.9393 61.8839 29.7456 60.7524 30.1674 60.2498Z" fill="#0E3B64"/>
<path d="M55.9088 59.2304C58.0656 59.1632 57.5076 61.1283 57.5832 62.5333C57.5946 62.7454 57.548 62.9843 57.6261 63.1803C58.6323 63.5262 58.4776 62.025 58.4677 61.4494C58.4486 60.3728 58.8802 59.2796 60.1535 59.3882C61.7036 59.52 61.7487 60.8356 61.7 62.0736C61.6865 62.4796 61.7 62.8809 61.6669 63.293C61.3532 64.8413 59.8548 65.0559 58.7612 64.0749C58.0537 64.3081 55.7649 64.2316 54.8757 64.2285L54.8763 63.1963L56.4497 63.1917C56.4471 62.4211 56.5221 61.586 56.4404 60.8273C56.3617 60.0982 55.7644 60.1251 55.2365 60.2461C55.2308 59.9637 55.178 59.5976 55.3152 59.3758C55.4937 59.2392 55.6769 59.2516 55.9088 59.2304Z" fill="white"/>
<path d="M59.8316 60.4045C59.8948 60.3973 59.9579 60.3921 60.021 60.3885C60.9201 60.3445 60.4429 62.1421 60.5598 62.7042C60.6147 62.9679 60.5091 63.3868 60.3119 63.5947C59.3347 63.8734 59.6147 62.1959 59.5904 61.6539C59.5718 61.2324 59.5744 60.7443 59.8316 60.4045Z" fill="#0E3B64"/>
<path d="M79.4953 59.2268C82.1712 59.3907 80.7178 62.4702 81.252 63.1958C81.6076 63.2242 82.0491 63.0986 82.0501 62.6647C82.0532 61.5689 82.0418 60.4736 82.0506 59.3752H83.1882C83.1846 60.6489 83.4895 62.9532 82.6365 63.8608C82.1339 64.2331 81.7773 64.2238 81.1728 64.2409C81.0765 65.5461 80.3431 65.7659 79.2019 65.8683C79.2029 65.5182 79.2003 65.1681 79.1936 64.818C79.4337 64.7658 80.059 64.6515 80.0279 64.3324C79.7324 64.0697 78.0202 64.3997 77.9685 62.7459C77.924 61.3191 77.5782 59.5071 79.4953 59.2268Z" fill="white"/>
<path d="M79.3396 60.2498C79.4985 60.2327 79.8546 60.2239 79.9079 60.3853C80.0968 60.9629 80.0968 62.6027 80.0109 63.1607L79.8721 63.2181C79.7324 63.2078 79.3634 63.184 79.2847 63.0785C78.9353 62.6079 78.9659 60.6713 79.3396 60.2498Z" fill="#0E3B64"/>
<path d="M27.1649 59.3762L28.3031 59.3767C28.297 60.4529 28.3459 61.5404 28.2941 62.6135C28.2046 64.4684 26.3271 64.3252 24.9906 64.1902C24.8852 65.2027 24.4761 65.7876 23.3972 65.876C22.6072 65.9412 21.9662 65.3511 21.822 64.6085C21.6941 63.9487 21.7407 63.1559 21.7419 62.4795L21.7491 59.4052C22.0172 59.4057 22.6247 59.3199 22.843 59.4631C22.9046 59.5034 22.8858 59.6151 22.8906 59.7155C22.8958 60.6577 22.7558 63.8096 22.9737 64.4762C23.0291 64.6453 23.0892 64.7445 23.2481 64.8268C23.6248 64.8428 23.8048 64.6675 23.8319 64.2895C23.8724 63.7232 23.8541 63.142 23.8521 62.5731L23.8493 59.4052L24.9883 59.4021C24.9842 60.0614 24.8807 62.6714 25.1354 63.0432C25.2968 63.1482 25.4405 63.1999 25.6332 63.1911C26.6171 63.1466 27.1802 63.4859 27.1754 62.222C27.1718 61.272 27.1707 60.3195 27.1649 59.3762Z" fill="white"/>
<path d="M71.2287 59.2693C72.1562 59.1741 72.166 59.6468 72.5314 59.5837C72.5708 59.4767 72.5656 59.4793 72.6396 59.3934C72.873 59.3531 73.3362 59.3727 73.5904 59.3758C73.5981 60.1055 73.4781 62.2505 73.7074 63.0092C73.7715 63.2212 74.6292 63.3355 74.6602 62.7548C74.7192 61.6471 74.6845 60.5001 74.683 59.3758L75.8242 59.3784L75.8232 61.6677C75.8377 62.9342 75.8015 64.2337 74.0666 64.2348C73.4817 64.2348 73.0956 63.9762 72.7064 63.5532C72.1318 64.3708 71.1448 64.6273 70.6076 63.578C70.1801 62.7429 70.3079 61.0829 70.4735 60.1732C70.5481 59.7637 70.8653 59.4575 71.2287 59.2693Z" fill="white"/>
<path d="M71.772 60.2383C71.8067 60.2368 71.8414 60.2358 71.8761 60.2347C72.5101 60.2239 72.5003 61.0394 72.4754 61.5063C72.4475 62.0266 72.5789 62.8519 72.1825 63.2243L72.1292 63.2258C71.343 63.2542 71.4687 62.4067 71.4661 61.8202C71.4641 61.3109 71.4056 60.6164 71.772 60.2383Z" fill="#0E3B64"/>
<path d="M45.3349 59.2258C45.5631 59.2315 45.8022 59.2605 46.0159 59.3442C46.3776 59.4859 46.7089 59.7823 46.8618 60.1448C47.1414 60.8067 47.1148 64.4447 46.8131 65.0735C46.6654 65.3817 46.3554 65.5814 46.0418 65.692C45.7971 65.7779 45.2818 65.9206 45.0539 65.8125L45.0398 65.6367L45.0384 64.8186C45.3545 64.755 45.7911 64.7017 45.8812 64.3511C45.6674 64.0553 43.898 64.4659 43.8162 62.7377C43.7495 61.3285 43.4399 59.5061 45.3349 59.2258Z" fill="white"/>
<path d="M45.1818 60.2518C45.3073 60.2353 45.4023 60.2425 45.5276 60.2466C46.0535 60.5 45.8988 61.4557 45.9083 61.9552C45.9147 62.2893 45.9144 62.8271 45.8608 63.1472L45.7614 63.2108C45.5915 63.2031 45.1986 63.1995 45.1136 63.0712C44.7775 62.5634 44.8134 60.681 45.1818 60.2518Z" fill="#0E3B64"/>
<path d="M64.5481 57.7111L65.6889 57.709L65.6914 60.8966C65.7033 62.7293 65.9751 64.3469 63.5042 64.2574C63.0476 64.2409 62.1942 63.9223 62.1455 63.4062C62.2066 63.2345 62.1564 63.2997 62.2827 63.1911C62.4291 63.1957 62.5373 63.2144 62.6698 63.1549C62.7283 62.9056 62.6962 61.9283 62.6921 61.6159L62.689 58.9423L63.8271 58.9418L63.8245 61.6624C63.8245 62.0487 63.8054 62.7769 63.8447 63.1342C64.1723 63.3964 64.5621 62.9589 64.5631 62.5772C64.5642 62.1356 64.5466 61.6992 64.5476 61.2586C64.5564 60.0759 64.5564 58.8932 64.5481 57.7111Z" fill="white"/>
<path d="M57.5483 71.3189C57.67 71.3148 58.0131 71.2858 58.1027 71.3293C58.2233 71.3882 58.2 71.7482 58.128 71.8666C57.9464 71.88 57.8413 71.8852 57.6622 71.9266C57.6638 72.1143 58.1337 72.4122 58.0835 72.8114C57.9448 73.9113 56.6255 73.4506 56.2187 73.8115L56.2208 73.9098C56.6747 74.3405 57.964 73.8658 58.3599 74.536C58.6058 74.9528 58.1239 75.4467 57.7719 75.6189C57.2316 75.7321 55.9972 75.8676 55.6064 75.3732C55.2808 74.9616 55.7787 74.7491 55.9257 74.5893C55.918 74.2469 55.1706 74.0096 56.124 73.5886C55.8709 73.3513 55.61 72.9882 55.6048 72.7111C55.5903 71.9793 56.801 71.9033 57.2978 71.8718C57.3046 71.8718 57.3646 71.5118 57.5483 71.3189Z" fill="white"/>
<path d="M56.2364 74.6928C56.6091 74.6824 57.5402 74.5629 57.6411 74.9813C57.5863 75.138 57.5676 75.1432 57.4346 75.2544C57.0444 75.3159 56.3089 75.3826 56.0879 74.9937C56.1153 74.8262 56.1189 74.822 56.2364 74.6928Z" fill="#0E3B64"/>
<path d="M56.6308 72.365C56.8622 72.2399 57.1505 72.3262 57.2752 72.5569C57.4005 72.788 57.3141 73.0761 57.0827 73.2007C56.8519 73.3253 56.5636 73.2395 56.4388 73.0083C56.3141 72.7777 56.4 72.4897 56.6308 72.365Z" fill="#0E3B64"/>
<path d="M50.9939 59.229C52.0529 59.2621 52.6947 59.5972 52.6947 60.8068C52.6952 61.6409 52.7496 62.6271 52.6549 63.4364C52.5457 64.3636 51.0688 64.2369 50.4112 64.2328C50.1675 64.2297 50.2007 64.2679 50.0364 64.1526C49.9301 63.9018 49.9835 63.4917 49.9909 63.1975C50.5082 63.1913 51.0346 63.1964 51.5528 63.1959C51.5529 62.4388 51.6138 61.6337 51.5618 60.8859C51.5084 60.1185 50.9156 60.1216 50.3567 60.241L50.3557 59.3443C50.5716 59.2797 50.7718 59.259 50.9939 59.229Z" fill="white"/>
<path d="M47.3237 70.7331C47.5786 70.7243 47.8535 70.7279 48.1103 70.7258C48.0936 71.9985 48.0868 73.4154 48.1189 74.6814C47.8771 74.6922 47.6 74.7243 47.3715 74.6658C47.3474 74.5722 47.3406 74.5397 47.3338 74.4455L47.3286 74.368C47.0838 74.3623 47.0073 74.7 46.3183 74.6834C44.672 74.081 45.6401 70.7393 47.3367 72.3026L47.3237 70.7331Z" fill="white"/>
<path d="M46.6238 72.4969C46.8488 72.4788 47.1104 72.4628 47.2356 72.6836C47.4763 73.1076 47.4842 73.8176 47.0408 74.1036C46.0285 74.1589 46.0927 72.8925 46.6238 72.4969Z" fill="#0E3B64"/>
<path d="M76.2977 57.707L77.44 57.7101L77.439 64.226L76.2957 64.2317L76.2977 57.707Z" fill="white"/>
<path d="M42.1276 57.7014L43.2664 57.7102L43.2665 64.225L42.1245 64.2286L42.1276 57.7014Z" fill="white"/>
<path d="M66.2344 57.708L67.372 57.7101L67.3725 64.2207C67.0087 64.2342 66.6034 64.2285 66.2359 64.2316L66.2344 57.708Z" fill="white"/>
<path d="M53.2241 57.7097H54.3592L54.3628 62.2894C54.3628 62.623 54.3804 63.9897 54.3338 64.1966L54.2034 64.2271L53.2298 64.2297C53.266 62.1126 53.249 59.8253 53.2241 57.7097Z" fill="white"/>
<path d="M30.7493 71.8992C30.945 71.8941 31.364 71.8522 31.4926 71.953L31.5271 72.2431C31.7505 72.2193 31.947 71.9303 32.1516 71.9023C33.3831 71.7353 33.6377 73.3927 33.1505 74.2072C32.935 74.5671 32.7394 74.6209 32.3817 74.7078C31.8971 74.6488 31.8602 74.5986 31.5156 74.2635L31.5132 75.7151L30.7451 75.7208L30.7493 71.8992Z" fill="white"/>
<path d="M31.7777 72.5026C32.8013 72.3713 32.7638 73.6083 32.2948 74.0809C31.1869 74.2588 31.3284 72.8677 31.7777 72.5026Z" fill="#0E3B64"/>
<path d="M27.5813 71.8986C27.7855 71.895 28.1833 71.8619 28.334 71.9513L28.3589 72.2275C28.5852 72.2223 28.7688 71.9638 28.9845 71.9234C30.2837 71.6814 30.4649 73.5348 29.9126 74.3053C29.6918 74.6135 29.4888 74.6466 29.1608 74.7092C28.7218 74.6383 28.6685 74.5778 28.3497 74.2655L28.355 75.7135L27.5822 75.7217L27.5813 71.8986Z" fill="white"/>
<path d="M28.6071 72.5079C29.6295 72.3657 29.6063 73.5742 29.1185 74.0831C28.5339 74.1824 28.2885 73.9181 28.3039 73.2841C28.3126 72.9231 28.331 72.7452 28.6071 72.5079Z" fill="#0E3B64"/>
<path d="M74.2734 71.016C74.9706 70.9534 75.4338 71.2415 75.8318 71.7871L75.1849 72.1403C74.6652 71.1779 73.5069 71.4137 73.5493 72.857C73.6021 74.6442 75.2449 74.3805 75.1341 73.2888C74.9794 73.1657 74.8805 73.2578 74.5803 73.2252C74.4297 73.1223 74.4856 73.188 74.41 73.0199C74.423 72.8467 74.4323 72.8415 74.541 72.6982C74.7449 72.5917 74.7931 72.6336 75.0487 72.6419H75.8862L75.8893 74.6737C75.6828 74.6835 75.4126 74.7233 75.2351 74.6437C75.2325 74.5304 75.2278 74.4441 75.218 74.3313C75.0363 74.3215 74.7102 74.6638 74.4318 74.6892C73.2688 74.8035 72.6296 73.779 72.7315 72.7143C72.8252 71.7353 73.2657 71.1567 74.2734 71.016Z" fill="white"/>
<path d="M53.8167 71.8946C55.4662 71.8532 55.8275 74.2501 54.0874 74.6912C52.1853 74.7165 52.0636 72.1904 53.8167 71.8946Z" fill="white"/>
<path d="M53.6748 72.5022C54.7002 72.4019 54.5816 73.6776 54.1417 74.098C53.6138 74.1322 53.3845 73.9584 53.3658 73.3368C53.356 73.0095 53.4295 72.7318 53.6748 72.5022Z" fill="#0E3B64"/>
<path d="M22.3157 71.0148C22.9203 70.9812 23.3316 71.1214 23.7875 71.4994L23.2378 71.9819C22.8269 71.564 22.0535 71.3256 21.8461 72.0356C22.04 72.6872 23.7654 72.3863 23.8381 73.4153C23.903 74.3343 23.285 74.5882 22.5072 74.6952C21.7656 74.6725 21.5881 74.582 20.9695 74.1642C21.1473 73.9935 21.3324 73.8234 21.5126 73.6548C21.6044 73.7432 21.702 73.8254 21.8046 73.9009C22.8094 74.6404 23.8317 73.2747 22.2515 73.0958C20.6286 72.9117 20.6758 71.2801 22.3157 71.0148Z" fill="white"/>
<path d="M77.511 71.8986C79.411 71.8247 78.6362 73.1961 78.8919 74.0788L79.0601 74.1368C79.1781 74.3048 79.1611 74.4336 79.1269 74.6425C78.6714 74.9176 78.409 74.568 78.1714 74.2324L78.0985 74.2314C77.6202 74.7103 77.6223 74.7537 76.9205 74.6492C76.5545 74.3907 76.3956 74.188 76.4717 73.7008C76.5965 72.9044 77.6518 73.2747 78.0333 73.0099C78.1368 72.8217 78.1352 72.8874 78.1187 72.7022C77.8029 72.3397 77.3221 72.5192 77.0074 72.7798C76.8563 72.6479 76.6793 72.5145 76.5204 72.3894C76.9256 72.0579 76.9877 71.9845 77.511 71.8986Z" fill="white"/>
<path d="M77.337 73.5498C77.6113 73.5146 77.9803 73.4184 78.1128 73.6992C78.089 73.8895 78.0616 73.9143 77.9607 74.0855C77.6641 74.1233 77.4213 74.1662 77.2392 73.9061C77.2278 73.7266 77.2454 73.7142 77.337 73.5498Z" fill="#0E3B64"/>
<path d="M40.4673 71.897C42.0798 71.8468 41.7137 72.9054 41.803 74.025C41.9701 74.1522 42.0407 74.1837 42.1263 74.3771C42.107 74.5783 42.1269 74.5038 42.0048 74.6786C41.5273 74.918 41.2999 74.4687 41.0709 74.1941C40.5011 74.4806 40.9076 74.9051 39.787 74.6166C39.3962 74.3094 39.3038 74.0803 39.4347 73.5725C39.6156 72.8707 40.8803 73.3449 41.0296 72.9023C40.8818 72.1985 40.3103 72.4855 39.918 72.7751L39.4515 72.3831C39.833 72.0459 39.9751 71.9683 40.4673 71.897Z" fill="white"/>
<path d="M40.2582 73.5487C40.532 73.5198 40.9125 73.42 41.0482 73.6966C41.0136 73.8864 41.0056 73.9086 40.8947 74.0659C40.6005 74.1176 40.3155 74.1853 40.158 73.8812C40.1633 73.708 40.1695 73.7023 40.2582 73.5487Z" fill="#0E3B64"/>
<path d="M82.5909 71.896C83.7404 71.9146 83.9242 72.4959 84.0194 73.497C83.6167 73.5167 82.4775 73.4567 82.2193 73.5937C82.167 73.7918 82.2876 73.9862 82.4874 74.0855C82.8129 74.2489 83.4237 73.8461 83.5815 73.8844C83.699 74.0157 83.7906 74.0912 83.8331 74.2613C83.7285 74.4594 83.5877 74.5566 83.3528 74.6197C81.813 75.0345 80.9165 73.6982 81.6551 72.3805C81.815 72.0961 82.2591 71.9524 82.5909 71.896Z" fill="white"/>
<path d="M82.4625 72.5032C82.8103 72.4716 83.2684 72.5709 83.197 73.0193L83.0789 73.0736C82.8098 73.0756 82.3316 73.1579 82.2104 72.9076C82.2503 72.7183 82.3347 72.6506 82.4625 72.5032Z" fill="#0E3B64"/>
<path d="M35.2036 71.909C35.4315 71.8934 35.7157 71.9017 35.9493 71.9022C36.1816 72.6443 36.4263 73.3916 36.5711 74.1548C36.7381 73.4071 36.9884 72.6324 37.212 71.8955L37.9327 71.9058C37.7689 72.4685 37.5121 73.163 37.321 73.7292C37.2003 74.0902 37.0893 74.4775 36.9692 74.8375C36.6872 75.683 36.3347 75.7259 35.5516 75.7378C35.5326 75.549 35.4951 75.4063 35.5717 75.2393C35.7496 75.0805 35.8453 75.1436 36.0678 75.0759C36.2837 74.6601 35.2994 72.5326 35.2036 71.909Z" fill="white"/>
<path d="M24.4072 71.9013L25.1706 71.9008C25.1771 72.3713 24.888 74.6488 25.9151 74.0081C26.2303 73.811 26.1021 72.2814 26.0937 71.908C26.3417 71.8971 26.6239 71.9008 26.8751 71.8987L26.872 72.9009L26.8738 74.6834C26.6343 74.6927 26.4434 74.6943 26.2039 74.6865C26.0095 74.5593 26.2 74.4874 26.0627 74.2951C25.7407 74.5702 25.4825 74.8127 25.0232 74.6669C24.1784 74.398 24.4021 72.6103 24.4072 71.9013Z" fill="white"/>
<path d="M42.5117 71.9086C42.7162 71.8987 43.1282 71.8486 43.2679 71.9629L43.2785 72.238L43.3338 72.2799C43.5428 72.1077 43.704 71.9282 43.9832 71.9003C45.2708 71.77 44.9611 73.8111 44.9646 74.6783C44.714 74.6897 44.4427 74.6866 44.1902 74.6887L44.1911 73.3679C44.1932 73.0809 44.2256 72.7944 44.0624 72.5596C42.9822 72.011 43.2725 74.1395 43.279 74.6825L42.5186 74.6923L42.5117 71.9086Z" fill="white"/>
<path d="M69.799 71.8954C70.1752 71.8825 70.7943 71.927 70.9376 72.3262C70.904 72.5181 70.757 72.608 70.6017 72.7451C70.3181 72.5558 69.8549 72.3898 69.5422 72.6013L69.5536 72.7151C69.9522 73.2467 70.9185 72.8232 71.0903 73.6102C71.242 74.3058 70.6452 74.5659 70.0784 74.6931C69.668 74.6879 68.9791 74.6621 68.8482 74.1951C68.8901 74.0115 69.0252 73.9345 69.1768 73.8057C69.4988 74.0058 70.05 74.3425 70.3409 73.9169C70.2177 73.4954 68.916 73.6258 68.8264 72.9245C68.739 72.2393 69.2229 72.004 69.799 71.8954Z" fill="white"/>
<path d="M60.9955 71.8986C61.5431 71.8939 61.792 71.9886 62.2268 72.2906L61.7853 72.7513C61.5193 72.56 60.9717 72.3521 60.7072 72.6298C60.7398 72.9096 61.1104 72.9504 61.3567 73.0047C62.9307 73.3533 62.4918 74.5442 61.0985 74.6989C60.5561 74.657 60.3299 74.5944 59.9324 74.2143L60.3397 73.8104C60.6704 74.0044 61.3009 74.3813 61.5213 73.8808C61.4199 73.4784 60.5845 73.616 60.2465 73.3171C59.5323 72.6852 60.2595 72.0201 60.9955 71.8986Z" fill="white"/>
<path d="M50.0862 71.0164L50.8854 71.0149L50.8801 74.1063L52.293 74.1078L52.3049 74.6472C52.0626 74.7206 50.4441 74.6896 50.0857 74.6865L50.0862 71.0164Z" fill="white"/>
<path d="M67.2044 71.8986C67.8731 71.8686 68.1122 72.0548 68.5061 72.5574L67.8964 72.8563C67.3167 72.0362 66.706 72.651 66.8752 73.4495C66.9373 73.7437 66.8483 73.9175 67.1609 74.113C67.4927 74.1274 67.6521 73.993 67.8886 73.7923L67.9363 73.7515L68.0812 73.7691C68.2504 73.843 68.2784 73.8466 68.4062 73.9728C68.4207 74.0607 68.443 74.1947 68.3602 74.2671C66.398 75.9901 64.9421 72.3666 67.2044 71.8986Z" fill="white"/>
<path d="M79.8125 71.1559L80.5299 71.1528L80.5159 71.8892C80.8259 71.8872 80.8637 71.8442 81.0593 72.0676C81.1028 72.2652 81.1095 72.1824 81.0112 72.3795C80.8011 72.5201 80.8011 72.4772 80.5154 72.4958C80.5159 72.819 80.4113 73.9583 80.638 74.1201C80.8021 74.101 80.8259 74.0886 80.9745 74.1455C81.0671 74.3327 81.0324 74.3373 81.019 74.5612L80.9972 74.6326C80.8238 74.7308 80.4755 74.6952 80.3161 74.6652C79.3871 74.4919 79.901 73.151 79.7136 72.5289C79.6904 72.4513 79.5066 72.5527 79.3524 72.3128C79.3379 72.1421 79.3218 72.093 79.3762 71.9363C79.5698 71.8959 79.6029 71.9016 79.7462 71.778C79.8565 71.5872 79.8203 71.3855 79.8125 71.1559Z" fill="white"/>
<path d="M62.9514 71.1551L63.6559 71.1541L63.6548 71.8884C63.9814 71.8863 64.0342 71.8346 64.2252 72.1092C64.2542 72.5224 63.9519 72.4924 63.6497 72.495C63.6522 72.8766 63.5456 73.9352 63.8179 74.1477C63.9488 74.1322 64.0058 74.1131 64.1284 74.1627C64.2231 74.3447 64.1921 74.4776 64.1802 74.6866C63.5865 74.701 63.0301 74.7435 62.9002 74.0174C62.835 73.6528 62.967 72.8135 62.8412 72.5219C62.6176 72.4634 62.5467 72.4733 62.4592 72.2555C62.4711 72.1133 62.4634 72.0249 62.5441 71.908C62.7279 71.8775 62.7687 71.8853 62.9028 71.77C62.9985 71.589 62.9608 71.3702 62.9514 71.1551Z" fill="white"/>
<path d="M33.9645 70.7311L34.7328 70.7249C34.7366 71.4188 34.6625 73.5153 34.7881 74.0578L35.0073 74.1596C35.1284 74.3639 35.086 74.4125 35.0879 74.6783C34.7768 74.6938 34.4326 74.7311 34.1847 74.502C33.7925 74.14 33.9628 71.3294 33.9645 70.7311Z" fill="white"/>
<path d="M64.7822 71.9002L65.5451 71.8987L65.5436 74.6777L64.7843 74.6917L64.7822 71.9002Z" fill="white"/>
<path d="M58.6546 71.9069C58.9072 71.8919 59.1763 71.9002 59.431 71.9028C59.4216 72.8264 59.4258 73.7505 59.4434 74.6741C59.1929 74.6875 58.9035 74.685 58.6494 74.6886L58.6546 71.9069Z" fill="white"/>
<path d="M38.8408 57.6368C39.158 57.5468 39.4893 57.7252 39.5888 58.0391C39.6882 58.3536 39.5199 58.6897 39.2086 58.7988C38.9987 58.8722 38.7653 58.8257 38.5997 58.6773C38.434 58.5289 38.3623 58.3024 38.4125 58.0857C38.4626 57.869 38.6267 57.6973 38.8408 57.6368Z" fill="white"/>
<path d="M74.9925 64.6666C75.3093 64.5523 75.6591 64.7157 75.7735 65.0322C75.8884 65.3482 75.7249 65.6977 75.4081 65.8125C75.0913 65.9273 74.7415 65.7634 74.6266 65.4469C74.5122 65.1304 74.6757 64.7809 74.9925 64.6666Z" fill="white"/>
<path d="M71.1204 57.631C71.3336 57.5778 71.5593 57.6429 71.7109 57.8022C71.8626 57.961 71.9164 58.1896 71.8528 58.3995C71.7886 58.6095 71.6162 58.7687 71.4014 58.8168C71.0759 58.8887 70.7529 58.6865 70.6763 58.3623C70.5992 58.038 70.7974 57.7128 71.1204 57.631Z" fill="white"/>
<path d="M25.9773 64.7199C26.2919 64.6087 26.6377 64.7706 26.7529 65.0839C26.8681 65.3968 26.7099 65.7443 26.3979 65.8627C26.1929 65.9408 25.9617 65.9025 25.7926 65.7629C25.6235 65.6233 25.5426 65.4035 25.5809 65.1879C25.6191 64.9717 25.7705 64.7933 25.9773 64.7199Z" fill="white"/>
<path d="M23.2191 57.6301C23.4363 57.5809 23.6631 57.6538 23.8106 57.8204C23.9581 57.9874 24.0027 58.2211 23.9269 58.4306C23.8511 58.64 23.667 58.791 23.4469 58.8246C23.1228 58.8748 22.8173 58.6591 22.756 58.3375C22.6946 58.0153 22.8994 57.703 23.2191 57.6301Z" fill="white"/>
<path d="M82.3725 64.6665C82.5822 64.5936 82.8151 64.6411 82.9797 64.7895C83.1442 64.938 83.2146 65.164 83.1639 65.3796C83.1132 65.5958 82.9491 65.7664 82.7354 65.8264C82.4186 65.9148 82.0889 65.7354 81.9911 65.422C81.8927 65.1086 82.062 64.7735 82.3725 64.6665Z" fill="white"/>
<path d="M27.429 64.7188C27.744 64.6159 28.0836 64.785 28.1909 65.0984C28.2982 65.4118 28.1333 65.7531 27.821 65.8643C27.6154 65.9372 27.3863 65.8943 27.2213 65.7516C27.0563 65.6088 26.9809 65.3885 27.0238 65.175C27.0668 64.9614 27.2216 64.7871 27.429 64.7188Z" fill="white"/>
<path d="M72.553 57.6372C72.7637 57.5813 72.9883 57.6429 73.141 57.7985C73.2937 57.9542 73.3506 58.1797 73.2906 58.3891C73.2305 58.5985 73.0623 58.7594 72.8501 58.8106C72.5276 58.8881 72.2026 58.6921 72.1213 58.371C72.0396 58.0493 72.2321 57.7225 72.553 57.6372Z" fill="white"/>
<path d="M37.4296 57.6356C37.6456 57.5849 37.8719 57.6568 38.0192 57.8228C38.1665 57.9883 38.2111 58.2215 38.1355 58.4299C38.0599 58.6383 37.8761 58.7883 37.6568 58.8214C37.3358 58.8695 37.0341 58.6559 36.973 58.3373C36.912 58.0188 37.1135 57.709 37.4296 57.6356Z" fill="white"/>
<path d="M64.9286 70.7656C65.0761 70.6782 65.2598 70.6803 65.4058 70.7703C65.5512 70.8603 65.6356 71.0232 65.6237 71.1943C65.6118 71.365 65.5057 71.5149 65.3488 71.5842C65.1257 71.682 64.8644 71.5894 64.7531 71.3727C64.6418 71.1555 64.7184 70.8897 64.9286 70.7656Z" fill="white"/>
<path d="M58.8056 70.7693C59.0215 70.6374 59.3041 70.7041 59.4371 70.9198C59.5706 71.1349 59.5044 71.4172 59.2896 71.5512C59.0737 71.6861 58.7886 71.62 58.6545 71.4033C58.5205 71.1866 58.5883 70.9022 58.8056 70.7693Z" fill="white"/>
</g>
<defs>
<clipPath id="clip0_15653_1228">
<rect width="106" height="80" fill="white"/>
</clipPath>
</defs>
</svg>
