<svg width="121" height="169" viewBox="0 0 121 169" fill="none" xmlns="http://www.w3.org/2000/svg">
<path d="M80.6216 0L80.6192 111.373L68.6748 108.703V21.4201H58.7207V0H80.6216Z" fill="white"/>
<path d="M51.7533 43.9082V103.881C43.8989 100.125 37.4433 94.1227 30.8477 88.3531V43.9082H51.7533Z" fill="white"/>
<path d="M65.6889 25.7021V108.166L54.7373 106.024V40.696H44.7832V25.7021H65.6889Z" fill="white"/>
<path d="M24.5617 40.3619L17.4031 42.8175C2.11691 49.1262 15.5743 74.2309 22.1628 83.0974C31.8556 96.1442 47.2653 106.672 61.8817 112.119L79.3126 117.447C55.3525 118.563 10.5414 97.9762 1.89127 72.7745C-4.65452 53.7051 6.48948 40.0017 24.5617 40.3594V40.3619Z" fill="white"/>
<g filter="url(#filter0_dd_4678_5851)">
<path d="M100.342 42.6882L104.904 48.5883C114.139 62.0395 91.4467 74.7303 81.9634 78.2033C68.0106 83.3149 50.6798 83.2678 36.3965 79.5921L19.9181 74.2731C38.5603 88.3378 84.1958 96.4976 103.087 81.0866C117.383 69.4258 114.974 52.3345 100.343 42.6862L100.342 42.6882Z" fill="white"/>
</g>
<path d="M24.1055 161.071V160.545C24.1055 160.463 24.1435 160.422 24.2195 160.422H25.2693C25.3453 160.422 25.3833 160.463 25.3833 160.545V164.508C25.3833 164.753 25.4261 164.922 25.5139 165.017C25.6018 165.111 25.7396 165.157 25.9296 165.157H26.3618C26.6659 165.157 26.8179 165.364 26.8179 165.776C26.8179 166.023 26.7822 166.187 26.7086 166.266C26.6374 166.345 26.521 166.384 26.3618 166.384H25.4379C25.065 166.384 24.7753 166.315 24.5663 166.174C24.3573 166.034 24.2195 165.786 24.1506 165.431C23.9915 165.581 23.8015 165.694 23.5806 165.768C23.3597 165.842 23.1293 165.88 22.8847 165.88C22.5878 165.88 22.3099 165.834 22.0463 165.745C21.785 165.655 21.557 165.515 21.3622 165.328C21.1675 165.139 21.0155 164.902 20.9015 164.61C20.7875 164.319 20.7305 163.972 20.7305 163.563C20.7305 163.087 20.7922 162.691 20.9181 162.372C21.044 162.053 21.2102 161.797 21.4193 161.605C21.6283 161.414 21.8658 161.276 22.1318 161.194C22.3978 161.112 22.6757 161.071 22.9631 161.071H24.1031H24.1055ZM21.9275 159.574C21.8515 159.574 21.8135 159.533 21.8135 159.451V158.386C21.8135 158.304 21.8515 158.261 21.9275 158.261H22.8847C22.9607 158.261 22.9987 158.302 22.9987 158.386V159.451C22.9987 159.533 22.9607 159.574 22.8847 159.574H21.9275ZM23.0343 164.651C23.4001 164.651 23.6685 164.539 23.8442 164.317C24.02 164.092 24.1055 163.765 24.1055 163.335V162.298H23.0913C22.7636 162.298 22.5023 162.387 22.3052 162.566C22.108 162.745 22.0083 163.075 22.0083 163.555C22.0083 163.928 22.0985 164.207 22.2814 164.386C22.4643 164.564 22.7137 164.654 23.0343 164.654V164.651ZM23.4096 159.574C23.3336 159.574 23.2956 159.533 23.2956 159.451V158.386C23.2956 158.304 23.3336 158.261 23.4096 158.261H24.3668C24.4428 158.261 24.4808 158.302 24.4808 158.386V159.451C24.4808 159.533 24.4428 159.574 24.3668 159.574H23.4096Z" fill="white"/>
<path d="M27.0571 165.155C27.2471 165.155 27.3849 165.109 27.4728 165.014C27.5607 164.92 27.6034 164.751 27.6034 164.506V158.164C27.6034 158.082 27.6414 158.041 27.7174 158.041H28.7672C28.8432 158.041 28.8812 158.082 28.8812 158.164V164.396C28.8812 164.641 28.9667 164.828 29.1377 164.958C29.3087 165.088 29.5391 165.155 29.8265 165.155H30.0213C30.1733 165.155 30.2873 165.201 30.3633 165.29C30.4393 165.382 30.4773 165.533 30.4773 165.747C30.4773 165.988 30.4417 166.151 30.368 166.243C30.2968 166.335 30.1804 166.379 30.0213 166.379C29.7244 166.379 29.4655 166.34 29.247 166.261C29.0261 166.182 28.8527 166.011 28.7245 165.747C28.62 165.98 28.4656 166.141 28.2661 166.238C28.0666 166.333 27.7958 166.381 27.4562 166.381H26.499C26.347 166.381 26.233 166.343 26.157 166.264C26.081 166.184 26.043 166.013 26.043 165.75C26.043 165.528 26.0786 165.372 26.1522 165.285C26.2235 165.198 26.3399 165.155 26.499 165.155H27.0571Z" fill="white"/>
<path d="M30.0322 166.381C29.8802 166.381 29.7662 166.332 29.6902 166.238C29.6142 166.143 29.5762 165.985 29.5762 165.76C29.5762 165.52 29.6118 165.359 29.6854 165.277C29.7567 165.195 29.8731 165.152 30.0322 165.152H33.0652C33.2623 165.152 33.4215 165.136 33.545 165.103C33.6661 165.07 33.7611 165.014 33.83 164.932C33.8989 164.85 33.944 164.743 33.9677 164.607C33.9915 164.472 34.001 164.308 34.001 164.112C34.001 163.851 33.9772 163.608 33.9321 163.386C33.887 163.164 33.811 162.969 33.7041 162.806C33.5972 162.642 33.4595 162.517 33.2885 162.428C33.1175 162.338 32.9037 162.292 32.6448 162.292C32.3859 162.292 32.165 162.346 31.9608 162.451C31.7565 162.558 31.5736 162.701 31.4145 162.88C31.3623 162.936 31.3076 162.941 31.2554 162.893L30.6616 162.231C30.5998 162.165 30.5927 162.108 30.6378 162.06C30.873 161.774 31.1556 161.536 31.481 161.349C31.8064 161.163 32.2078 161.068 32.6781 161.068C33.1863 161.068 33.6139 161.153 33.9559 161.319C34.2979 161.487 34.571 161.712 34.7777 161.993C34.9819 162.274 35.1292 162.601 35.2171 162.975C35.3049 163.348 35.3477 163.741 35.3477 164.158C35.3477 164.6 35.3097 164.962 35.2337 165.249C35.1577 165.535 35.046 165.762 34.8964 165.928C34.7492 166.097 34.5615 166.212 34.3383 166.278C34.115 166.345 33.8537 166.375 33.5568 166.375H30.0346L30.0322 166.381Z" fill="white"/>
<path d="M37.2034 161.414C37.2034 161.332 37.2414 161.291 37.3174 161.291H38.3672C38.4432 161.291 38.4812 161.332 38.4812 161.414V164.396C38.4812 164.641 38.5667 164.827 38.7377 164.958C38.9088 165.088 39.1391 165.154 39.4265 165.154H39.6213C39.7733 165.154 39.8873 165.2 39.9633 165.29C40.0393 165.382 40.0773 165.533 40.0773 165.747C40.0773 165.987 40.0417 166.151 39.9681 166.243C39.8944 166.335 39.7804 166.378 39.6213 166.378C39.3624 166.378 39.1415 166.353 38.9539 166.304C38.7686 166.256 38.6095 166.143 38.4812 165.97V166.202C38.4812 166.644 38.448 167.033 38.3791 167.362C38.3102 167.694 38.201 167.97 38.0466 168.19C37.8922 168.412 37.6856 168.576 37.4291 168.688C37.1726 168.801 36.8543 168.854 36.4743 168.854H36.0515C35.9755 168.854 35.9375 168.813 35.9375 168.732V167.751C35.9375 167.669 35.9755 167.628 36.0515 167.628H36.3033C36.5242 167.628 36.6952 167.587 36.8163 167.505C36.9374 167.423 37.0277 167.303 37.0847 167.142C37.1417 166.981 37.1749 166.79 37.1868 166.565C37.1987 166.34 37.2034 166.079 37.2034 165.786V161.406V161.414Z" fill="white"/>
<path d="M39.6338 166.381C39.4817 166.381 39.3677 166.342 39.2917 166.263C39.2157 166.184 39.1777 166.026 39.1777 165.785C39.1777 165.545 39.2134 165.392 39.287 165.295C39.3582 165.2 39.4746 165.152 39.6338 165.152H40.1919C40.3819 165.152 40.5197 165.106 40.6075 165.011C40.6954 164.917 40.7382 164.748 40.7382 164.503V158.161C40.7382 158.079 40.7762 158.038 40.8522 158.038H41.902C41.978 158.038 42.016 158.079 42.016 158.161V164.832C42.016 165.364 41.9139 165.755 41.7096 166.003C41.5053 166.253 41.1681 166.376 40.6931 166.376H39.6338V166.381Z" fill="white"/>
<path d="M44.7856 166.258C44.7856 166.34 44.7476 166.381 44.6716 166.381H43.6218C43.5458 166.381 43.5078 166.34 43.5078 166.258V158.164C43.5078 158.082 43.5458 158.041 43.6218 158.041H44.6716C44.7476 158.041 44.7856 158.082 44.7856 158.164V166.258Z" fill="white"/>
<path d="M52.0606 161.071V160.545C52.0606 160.463 52.0986 160.422 52.1746 160.422H53.2244C53.3004 160.422 53.3384 160.463 53.3384 160.545V164.508C53.3384 164.753 53.3811 164.922 53.469 165.017C53.5569 165.111 53.6946 165.157 53.8847 165.157H54.3169C54.6209 165.157 54.7729 165.364 54.7729 165.776C54.7729 166.023 54.7373 166.187 54.6637 166.266C54.5924 166.345 54.4761 166.384 54.3169 166.384H53.393C53.0201 166.384 52.7304 166.315 52.5213 166.174C52.3123 166.034 52.1746 165.786 52.1057 165.431C51.9466 165.581 51.7566 165.694 51.5357 165.768C51.3148 165.842 51.0844 165.88 50.8398 165.88C50.5429 165.88 50.265 165.834 50.0014 165.745C49.7401 165.655 49.5121 165.515 49.3173 165.328C49.1226 165.139 48.9706 164.902 48.8566 164.61C48.7425 164.319 48.6855 163.972 48.6855 163.563C48.6855 163.087 48.7473 162.691 48.8732 162.372C48.9991 162.053 49.1653 161.797 49.3743 161.605C49.5833 161.414 49.8208 161.276 50.0869 161.194C50.3529 161.112 50.6308 161.071 50.9181 161.071H52.0582H52.0606ZM49.8826 159.574C49.8066 159.574 49.7686 159.533 49.7686 159.451V158.386C49.7686 158.304 49.8066 158.261 49.8826 158.261H50.8398C50.9158 158.261 50.9538 158.302 50.9538 158.386V159.451C50.9538 159.533 50.9158 159.574 50.8398 159.574H49.8826ZM50.9894 164.651C51.3552 164.651 51.6236 164.539 51.7993 164.317C51.9751 164.092 52.0606 163.765 52.0606 163.335V162.298H51.0464C50.7186 162.298 50.4574 162.387 50.2602 162.566C50.0631 162.745 49.9634 163.075 49.9634 163.555C49.9634 163.928 50.0536 164.207 50.2365 164.386C50.4194 164.564 50.6688 164.654 50.9894 164.654V164.651ZM51.3647 159.574C51.2887 159.574 51.2507 159.533 51.2507 159.451V158.386C51.2507 158.304 51.2887 158.261 51.3647 158.261H52.3218C52.3978 158.261 52.4358 158.302 52.4358 158.386V159.451C52.4358 159.533 52.3978 159.574 52.3218 159.574H51.3647Z" fill="white"/>
<path d="M54.4541 166.381C54.3021 166.381 54.1881 166.342 54.1121 166.263C54.0361 166.184 53.998 166.033 53.998 165.811C53.998 165.571 54.0337 165.402 54.1073 165.302C54.1786 165.203 54.2949 165.154 54.4541 165.154H55.1951C55.3851 165.154 55.5229 165.108 55.6107 165.014C55.6986 164.919 55.7414 164.75 55.7414 164.505V161.411C55.7414 161.329 55.7794 161.288 55.8554 161.288H56.9052C56.9812 161.288 57.0192 161.329 57.0192 161.411V164.832C57.0192 165.364 56.9171 165.755 56.7152 166.002C56.5109 166.253 56.1736 166.375 55.6986 166.375H54.4564L54.4541 166.381ZM54.8863 168.736C54.8103 168.736 54.7723 168.696 54.7723 168.614V167.548C54.7723 167.467 54.8103 167.426 54.8863 167.426H55.8435C55.9195 167.426 55.9575 167.467 55.9575 167.548V168.614C55.9575 168.696 55.9195 168.736 55.8435 168.736H54.8863ZM56.3684 168.736C56.2924 168.736 56.2544 168.696 56.2544 168.614V167.548C56.2544 167.467 56.2924 167.426 56.3684 167.426H57.3256C57.4016 167.426 57.4396 167.467 57.4396 167.548V168.614C57.4396 168.696 57.4016 168.736 57.3256 168.736H56.3684Z" fill="white"/>
<path d="M58.5801 158.164C58.5801 158.082 58.6181 158.041 58.6941 158.041H59.7439C59.8199 158.041 59.8579 158.082 59.8579 158.164V164.506C59.8579 164.751 59.9006 164.92 59.9885 165.014C60.0764 165.109 60.2141 165.155 60.4042 165.155H60.8032C60.9552 165.155 61.0692 165.203 61.1452 165.298C61.2212 165.392 61.2592 165.556 61.2592 165.788C61.2592 166.044 61.2236 166.207 61.1499 166.279C61.0787 166.348 60.9623 166.384 60.8032 166.384H59.903C59.428 166.384 59.0883 166.258 58.8865 166.011C58.6822 165.76 58.5825 165.372 58.5825 164.84V158.169L58.5801 158.164Z" fill="white"/>
<path d="M60.3583 165.763C60.3583 165.522 60.3939 165.361 60.4675 165.28C60.5388 165.198 60.6552 165.154 60.8143 165.154H61.9306V163.759C61.9306 163.261 61.9947 162.842 62.1253 162.5C62.256 162.157 62.4246 161.881 62.6336 161.669C62.8426 161.457 63.0849 161.304 63.3628 161.212C63.6407 161.12 63.928 161.071 64.2226 161.071C64.5646 161.071 64.8805 161.117 65.1679 161.212C65.4576 161.306 65.7046 161.449 65.9136 161.646C66.1226 161.843 66.2865 162.096 66.4029 162.41C66.5193 162.724 66.5787 163.103 66.5787 163.542C66.5787 163.851 66.5359 164.158 66.4528 164.459C66.3697 164.761 66.277 164.993 66.1797 165.157H67.3435C67.5026 165.157 67.619 165.198 67.6902 165.282C67.7615 165.364 67.7995 165.525 67.7995 165.765C67.7995 165.987 67.7615 166.146 67.6855 166.243C67.6095 166.338 67.4955 166.386 67.3435 166.386H66.2367C66.3958 166.624 66.4765 166.91 66.4765 167.245C66.4765 167.809 66.277 168.241 65.878 168.545C65.479 168.847 64.9375 169 64.2534 169C63.9043 169 63.586 168.964 63.301 168.895C63.016 168.826 62.7714 168.714 62.5647 168.563C62.3605 168.412 62.2013 168.216 62.0921 167.975C61.9828 167.735 61.9258 167.441 61.9258 167.099V166.389H60.8095C60.5055 166.389 60.3535 166.182 60.3535 165.77L60.3583 165.763ZM64.2416 162.298C63.9233 162.298 63.6715 162.413 63.4863 162.64C63.301 162.868 63.2084 163.202 63.2084 163.642V165.167H64.3318C64.5052 165.167 64.6548 165.124 64.7807 165.039C64.9042 164.955 65.0063 164.845 65.0871 164.71C65.1655 164.574 65.2249 164.421 65.2629 164.245C65.3009 164.069 65.3199 163.89 65.3199 163.701C65.3199 163.236 65.2272 162.885 65.042 162.65C64.8567 162.415 64.5907 162.295 64.2416 162.295V162.298ZM64.2463 167.804C64.6026 167.804 64.8567 167.743 65.004 167.62C65.1512 167.498 65.2272 167.321 65.2272 167.094C65.2272 166.971 65.213 166.864 65.1869 166.769C65.1607 166.675 65.1061 166.596 65.0277 166.529C64.947 166.463 64.8377 166.414 64.6976 166.381C64.5575 166.348 64.3769 166.332 64.1561 166.332H63.2108V166.981C63.2108 167.528 63.5575 167.804 64.2487 167.804H64.2463Z" fill="white"/>
<path d="M69.7758 164.395C69.7758 164.641 69.8613 164.827 70.0323 164.958C70.2033 165.088 70.4337 165.154 70.721 165.154H70.9158C71.0678 165.154 71.1818 165.2 71.2578 165.29C71.3338 165.382 71.3718 165.532 71.3718 165.747C71.3718 165.987 71.3362 166.151 71.2626 166.243C71.1913 166.335 71.0749 166.378 70.9158 166.378C70.6189 166.378 70.36 166.34 70.1415 166.261C69.9206 166.181 69.7472 166.01 69.619 165.747C69.5145 165.987 69.3577 166.151 69.1487 166.243C68.9421 166.335 68.6571 166.378 68.2937 166.378H67.3935C67.2415 166.378 67.1275 166.35 67.0515 166.296C66.9755 166.243 66.9375 166.125 66.9375 165.944C66.9375 165.737 66.9731 165.553 67.0468 165.392C67.1204 165.231 67.2391 165.149 67.4054 165.149H67.9517C68.0799 165.149 68.1844 165.129 68.2604 165.088C68.3364 165.047 68.3911 164.981 68.4267 164.891C68.4599 164.802 68.4813 164.684 68.4884 164.536C68.4956 164.388 68.5003 164.209 68.5003 163.997V161.406C68.5003 161.324 68.5383 161.283 68.612 161.283H69.6641C69.7401 161.283 69.7781 161.324 69.7781 161.406V164.388L69.7758 164.395ZM68.6024 160.064C68.5264 160.064 68.4884 160.023 68.4884 159.942V158.876C68.4884 158.794 68.5264 158.751 68.6024 158.751H69.6974C69.7734 158.751 69.8114 158.792 69.8114 158.876V159.942C69.8114 160.023 69.7734 160.064 69.6974 160.064H68.6024Z" fill="white"/>
<path d="M70.8701 166.381C70.7181 166.381 70.6041 166.342 70.5281 166.263C70.4521 166.184 70.4141 166.026 70.4141 165.785C70.4141 165.545 70.4497 165.392 70.5233 165.295C70.5946 165.2 70.7109 165.152 70.8701 165.152H71.4282C71.6182 165.152 71.756 165.106 71.8439 165.011C71.9318 164.917 71.9745 164.748 71.9745 164.503V158.161C71.9745 158.079 72.0125 158.038 72.0885 158.038H73.1383C73.2143 158.038 73.2523 158.079 73.2523 158.161V164.832C73.2523 165.364 73.1502 165.755 72.9459 166.003C72.7417 166.253 72.4044 166.376 71.9294 166.376H70.8701V166.381Z" fill="white"/>
<path d="M85.6227 164.396C85.6227 164.641 85.7058 164.828 85.8744 164.958C86.0407 165.088 86.2687 165.155 86.5585 165.155H86.7532C86.9052 165.155 87.0192 165.201 87.0952 165.29C87.1712 165.382 87.2092 165.533 87.2092 165.748C87.2092 165.988 87.1736 166.151 87.1 166.243C87.0287 166.335 86.9124 166.379 86.7532 166.379C86.4635 166.379 86.2093 166.34 85.9884 166.261C85.7676 166.182 85.5942 166.011 85.4659 165.748C85.359 165.988 85.1999 166.151 84.9885 166.243C84.7748 166.335 84.4874 166.379 84.124 166.379H78.5781C78.1007 166.379 77.7587 166.254 77.5544 166.001C77.3502 165.748 77.248 165.354 77.248 164.82V162.183C77.248 162.101 77.2861 162.061 77.3621 162.061H78.4118C78.4879 162.061 78.5259 162.101 78.5259 162.183V164.501C78.5259 164.795 78.5971 164.976 78.742 165.048C78.8869 165.117 79.141 165.152 79.5068 165.152H83.7938C83.9316 165.152 84.0337 165.132 84.1074 165.091C84.1786 165.05 84.2356 164.984 84.2736 164.894C84.3116 164.805 84.3354 164.687 84.3425 164.539C84.3496 164.391 84.3544 164.212 84.3544 164V158.159C84.3544 158.077 84.3924 158.036 84.4684 158.036H85.5182C85.5942 158.036 85.6322 158.077 85.6322 158.159V164.391L85.6227 164.396ZM81.5802 160.936H81.775C82.0268 160.936 82.2096 161.01 82.3189 161.156C82.4305 161.304 82.4852 161.532 82.4852 161.843V162.076C82.4852 162.403 82.4329 162.623 82.326 162.738C82.2191 162.853 82.0481 162.909 81.813 162.909H80.4687C80.3927 162.909 80.3547 162.868 80.3547 162.786V162.418C80.3547 162.337 80.3927 162.296 80.4687 162.296H81.6206C81.7204 162.296 81.7821 162.275 81.8083 162.234C81.8344 162.193 81.8486 162.127 81.8486 162.038C81.8486 161.818 81.8225 161.68 81.7726 161.626C81.7228 161.573 81.6016 161.547 81.4092 161.547H80.8725C80.7656 161.547 80.7133 161.491 80.7133 161.376V161.095C80.7133 161.054 80.7228 161.018 80.7418 160.985C80.7608 160.952 80.7775 160.929 80.7941 160.911L81.6752 159.794C81.737 159.712 81.7988 159.705 81.8605 159.769L82.1455 160.039C82.1835 160.08 82.1978 160.114 82.1906 160.137C82.1835 160.162 82.1669 160.193 82.1455 160.234L81.5802 160.934V160.936Z" fill="white"/>
<path d="M89.954 161.071C90.828 161.071 91.4669 161.248 91.8683 161.598C92.2697 161.948 92.4716 162.408 92.4716 162.98C92.4716 163.225 92.4359 163.455 92.3623 163.67C92.2911 163.887 92.1961 164.086 92.0821 164.27C91.968 164.454 91.8398 164.618 91.6949 164.766C91.55 164.914 91.4099 165.034 91.2721 165.131C91.3339 165.149 91.4004 165.157 91.4717 165.157H93.1295C93.3052 165.157 93.4216 165.206 93.4834 165.305C93.5451 165.405 93.5736 165.571 93.5736 165.801C93.5736 166.031 93.538 166.187 93.4644 166.266C93.3931 166.345 93.2791 166.384 93.1271 166.384H91.4289C91.1558 166.384 90.8945 166.358 90.6475 166.304C90.4005 166.251 90.1677 166.151 89.9468 166.003C89.6951 166.151 89.4291 166.251 89.1488 166.304C88.8685 166.358 88.6168 166.384 88.3959 166.384H86.7547C86.6098 166.384 86.5006 166.343 86.4246 166.261C86.3486 166.179 86.3105 166.026 86.3105 165.803C86.3105 165.581 86.3343 165.428 86.3842 165.321C86.4341 165.213 86.5576 165.16 86.7547 165.16H88.0895C88.2106 165.16 88.3484 165.154 88.5004 165.142C88.6524 165.129 88.8305 165.098 89.0372 165.05C88.9754 164.781 88.8947 164.549 88.7925 164.352C88.6904 164.155 88.574 163.984 88.4458 163.833C88.3175 163.683 88.1774 163.547 88.0301 163.43C87.8829 163.312 87.7309 163.195 87.5789 163.082C87.4957 163.018 87.4482 162.957 87.4363 162.906C87.4245 162.852 87.4197 162.793 87.4197 162.73V161.958C87.4197 161.869 87.491 161.771 87.6359 161.664C87.7807 161.557 87.9707 161.462 88.2059 161.378C88.441 161.294 88.7118 161.222 89.0158 161.163C89.3198 161.107 89.6309 161.079 89.9516 161.079L89.954 161.071ZM90.125 164.774C90.2461 164.692 90.3696 164.595 90.4955 164.48C90.6214 164.365 90.7306 164.24 90.8256 164.107C90.9206 163.971 90.999 163.826 91.0584 163.672C91.1201 163.517 91.1486 163.358 91.1486 163.195C91.1486 162.86 91.037 162.627 90.8114 162.495C90.5881 162.364 90.3007 162.298 89.9516 162.298C89.6476 162.298 89.3839 162.331 89.1583 162.395C88.935 162.461 88.7807 162.518 88.6975 162.566C89.0467 162.804 89.3459 163.113 89.5929 163.491C89.84 163.872 90.0157 164.298 90.1226 164.774H90.125Z" fill="white"/>
<path d="M96.6299 166.468C96.2499 166.468 95.9079 166.412 95.6015 166.302C95.2975 166.19 95.041 166.006 94.8367 165.75C94.7607 165.883 94.6681 165.99 94.5612 166.072C94.4543 166.154 94.3427 166.22 94.2287 166.264C94.1147 166.307 93.9959 166.34 93.8748 166.356C93.7537 166.371 93.6397 166.381 93.5328 166.381H93.1338C92.9818 166.381 92.8677 166.333 92.7917 166.238C92.7157 166.144 92.6777 165.985 92.6777 165.76C92.6777 165.52 92.7134 165.359 92.787 165.277C92.8582 165.196 92.9746 165.152 93.1338 165.152H93.5779C93.661 165.152 93.7442 165.134 93.8297 165.096C93.9128 165.06 93.9888 164.999 94.0577 164.912C94.1265 164.828 94.1836 164.713 94.2287 164.57C94.2738 164.426 94.2976 164.25 94.2976 164.038C94.2904 163.974 94.2857 163.913 94.2857 163.854V163.67C94.2928 163.197 94.3569 162.796 94.4733 162.467C94.5921 162.137 94.756 161.869 94.965 161.659C95.174 161.452 95.421 161.301 95.7012 161.207C95.9815 161.112 96.2926 161.066 96.6275 161.066C96.9624 161.066 97.2759 161.115 97.5657 161.215C97.8555 161.312 98.1049 161.468 98.3139 161.68C98.5229 161.892 98.6868 162.175 98.8055 162.525C98.9243 162.878 98.9836 163.302 98.9836 163.8C98.9836 164.299 98.9266 164.692 98.8126 165.027C98.6986 165.362 98.5395 165.635 98.3329 165.85C98.1262 166.062 97.8792 166.218 97.5918 166.315C97.3044 166.412 96.9838 166.463 96.6323 166.463L96.6299 166.468ZM96.6275 162.298C96.2641 162.298 95.9958 162.423 95.8224 162.676C95.649 162.929 95.5611 163.295 95.5611 163.775C95.5611 164.296 95.649 164.672 95.8224 164.899C95.9958 165.127 96.2641 165.242 96.6275 165.242C96.9909 165.242 97.2712 165.127 97.4446 164.894C97.618 164.662 97.7058 164.288 97.7058 163.777C97.7058 162.791 97.3472 162.301 96.6275 162.301V162.298Z" fill="white"/>
<path d="M12.4191 145.971C11.8253 145.971 11.4097 146.135 11.1769 146.462C10.9418 146.789 10.8349 147.157 10.8349 147.586V150.839H7.21289V147.586C7.21289 146.993 7.28414 146.482 7.44803 146.033C7.61191 145.583 7.82567 145.195 8.07743 144.867C8.32919 144.54 8.63558 144.275 8.97759 144.05C9.31961 143.825 9.69725 143.641 10.0939 143.498V143.416C9.98464 143.232 9.89676 143.028 9.80651 142.803C9.71625 142.578 9.645 142.333 9.57137 142.087C9.50012 141.842 9.44549 141.597 9.40986 141.352C9.37424 141.106 9.35524 140.881 9.35524 140.677C9.35524 138.937 9.75188 137.629 10.5428 136.75C11.3337 135.871 12.488 135.441 13.9843 135.441C15.4806 135.441 16.6492 135.871 17.4781 136.709C18.307 137.547 18.7203 138.878 18.7203 140.677C18.7203 141.536 18.8105 142.128 19.0077 142.458C19.2048 142.785 19.4756 142.949 19.8176 142.949H20.1596C20.2499 142.949 20.3401 142.969 20.4114 142.989C20.4826 143.01 20.5206 143.092 20.5206 143.235V145.649C20.5206 145.792 20.3947 145.874 20.143 145.874H19.6751C19.2238 145.874 18.8295 145.69 18.5041 145.322C18.1788 144.954 17.927 144.505 17.7655 143.994C17.5304 144.321 17.2786 144.607 17.0268 144.832C16.7751 145.057 16.5043 145.241 16.1979 145.404C15.8915 145.568 15.5685 145.67 15.2075 145.731C14.8465 145.792 14.4522 145.833 14.0009 145.833H12.4167V145.976L12.4191 145.971ZM12.9773 140.774C12.9773 141.53 13.0319 142.123 13.1388 142.552C13.248 142.982 13.5354 143.186 13.9843 143.186C14.4332 143.186 14.723 142.961 14.8299 142.532C14.9391 142.103 14.9914 141.51 14.9914 140.751C14.9914 139.992 14.9367 139.402 14.8299 138.97C14.7206 138.541 14.4332 138.316 13.9843 138.316C13.5354 138.316 13.2457 138.541 13.1388 138.97C13.0295 139.399 12.9773 139.992 12.9773 140.751V140.772V140.774Z" fill="white"/>
<path d="M20.198 145.808C19.9462 145.808 19.8203 145.726 19.8203 145.583V143.168C19.8203 143.025 19.8559 142.944 19.9272 142.923C19.9984 142.903 20.0887 142.882 20.179 142.882H22.1432C22.3783 142.882 22.6111 142.78 22.8272 142.596C23.0433 142.412 23.1526 142.085 23.1526 141.615V137.115H26.7722V141.533C26.7722 142.044 26.8625 142.392 27.024 142.596C27.1855 142.801 27.4207 142.903 27.708 142.903H28.7531C28.8433 142.903 28.9336 142.923 29.0048 142.944C29.0761 142.964 29.1141 143.046 29.1141 143.189V145.604C29.1141 145.747 28.9882 145.828 28.7365 145.828H27.6914C27.2401 145.828 26.8459 145.706 26.5205 145.46C26.1951 145.215 25.9267 144.868 25.7106 144.418C25.4944 144.704 25.2593 144.929 24.9909 145.113C24.7202 145.297 24.4494 145.44 24.162 145.542C23.8746 145.644 23.5849 145.726 23.2975 145.767C23.0101 145.808 22.7393 145.828 22.4686 145.828H20.1623L20.198 145.808ZM24.504 147.75V150.144H21.8558V147.75H24.504ZM27.9266 147.75V150.144H25.2783V147.75H27.9266Z" fill="white"/>
<path d="M34.9673 146.462C34.0672 146.462 33.3285 146.319 32.7514 146.012C32.1742 145.706 31.6517 145.236 31.1672 144.581C31.0057 145.011 30.7539 145.317 30.4119 145.522C30.0699 145.726 29.6922 145.828 29.2956 145.828H28.6472C28.3954 145.828 28.2695 145.747 28.2695 145.603V143.189C28.2695 143.046 28.3052 142.964 28.3788 142.944C28.45 142.923 28.5403 142.903 28.6305 142.903H29.1531C29.4595 142.903 29.7302 142.76 29.9464 142.453C30.1625 142.146 30.2694 141.676 30.2694 141.022C30.2694 139.221 30.685 137.871 31.5116 136.952C32.3405 136.032 33.5114 135.582 35.0053 135.582C36.4993 135.582 37.6702 136.032 38.4991 136.952C39.328 137.871 39.7413 139.223 39.7413 141.022C39.7413 141.676 39.8506 142.146 40.0643 142.453C40.2804 142.76 40.5512 142.903 40.8576 142.903H41.3801C41.4704 142.903 41.5606 142.923 41.6319 142.944C41.7031 142.964 41.7388 143.046 41.7388 143.189V145.603C41.7388 145.747 41.6129 145.828 41.3611 145.828H40.7127C40.3161 145.828 39.9384 145.726 39.5964 145.522C39.2544 145.317 39.0026 144.99 38.8411 144.561C38.5894 144.888 38.3376 145.174 38.0835 145.419C37.8293 145.665 37.5609 145.849 37.2546 145.992C36.9482 146.135 36.6252 146.237 36.2641 146.319C35.9031 146.401 35.5065 146.442 35.0576 146.442L34.9673 146.462ZM34.9673 143.782C35.2191 143.782 35.4186 143.7 35.5611 143.557C35.706 143.414 35.8129 143.23 35.8865 142.984C35.9578 142.739 35.9958 142.453 36.0124 142.126C36.0314 141.799 36.0314 141.451 36.0314 141.104C36.0314 140.756 36.0314 140.409 36.0124 140.082C35.9934 139.755 35.9578 139.468 35.8865 139.223C35.8152 138.978 35.706 138.773 35.5611 138.63C35.4162 138.487 35.2191 138.406 34.9673 138.406C34.7156 138.406 34.5161 138.467 34.3736 138.61C34.2287 138.753 34.1218 138.937 34.0672 139.182C34.0125 139.428 33.9769 139.714 33.9579 140.041C33.9389 140.368 33.9389 140.695 33.9389 141.042C33.9389 141.39 33.9389 141.717 33.9579 142.044C33.9769 142.371 34.0125 142.657 34.0672 142.903C34.1218 143.148 34.2287 143.332 34.3736 143.475C34.5184 143.618 34.7156 143.679 34.9673 143.679V143.782Z" fill="white"/>
<path d="M41.4148 145.829C41.163 145.829 41.0371 145.747 41.0371 145.604V143.189C41.0371 143.046 41.0727 142.964 41.1464 142.944C41.2176 142.923 41.3079 142.903 41.3981 142.903H43.8112V137.113H47.3953V145.829H41.3981H41.4171H41.4148ZM44.0274 131.18V133.574H41.3791V131.18H44.0274ZM47.4499 131.18V133.574H44.8017V131.18H47.4499Z" fill="white"/>
<path d="M57.9667 141.347C57.9667 142.164 57.9477 142.964 57.9121 143.741C57.8764 144.518 57.8028 145.254 57.6959 145.951C57.5867 146.646 57.4252 147.28 57.209 147.855C56.9929 148.427 56.6865 148.918 56.3089 149.347C55.9312 149.776 55.4443 150.103 54.8672 150.328C54.29 150.553 53.5894 150.676 52.7771 150.676C52.5253 150.676 52.2902 150.655 52.0574 150.614C51.8223 150.573 51.6252 150.533 51.4447 150.492C51.2285 150.43 51.0314 150.369 50.8509 150.308V147.648C50.9578 147.689 51.086 147.73 51.2285 147.77C51.3734 147.811 51.5159 147.852 51.6608 147.873C51.8057 147.893 51.9482 147.914 52.0931 147.934C52.2379 147.954 52.3638 147.954 52.4707 147.954C52.7058 147.954 52.922 147.914 53.1001 147.852C53.2806 147.791 53.4421 147.668 53.587 147.505C53.7319 147.341 53.8388 147.116 53.929 146.83C54.0193 146.544 54.0905 146.176 54.1452 145.747H52.8483C52.2546 145.747 51.713 145.624 51.2261 145.379C50.7393 145.133 50.326 144.806 49.984 144.377C49.642 143.948 49.3712 143.437 49.1907 142.844C49.0102 142.251 48.9199 141.597 48.9199 140.879C48.9199 140.102 48.9912 139.366 49.1171 138.689C49.2429 138.015 49.4781 137.422 49.8011 136.931C50.1265 136.441 50.5754 136.052 51.1525 135.766C51.7297 135.48 52.4683 135.337 53.3851 135.337C54.3019 135.337 55.0596 135.48 55.6557 135.766C56.2495 136.052 56.7174 136.461 57.0618 136.993C57.4038 137.524 57.6389 138.158 57.7648 138.896C57.8907 139.632 57.962 140.45 57.962 141.372V141.352L57.9667 141.347ZM52.5467 140.897C52.5467 141.572 52.637 142.083 52.7985 142.41C52.96 142.737 53.1951 142.9 53.4825 142.9H54.3114C54.3304 142.655 54.3304 142.41 54.3304 142.144V141.285C54.3304 140.304 54.2758 139.527 54.1689 138.973C54.0597 138.421 53.8079 138.135 53.3946 138.135C53.2141 138.135 53.0692 138.217 52.9624 138.401C52.8555 138.585 52.7652 138.809 52.7106 139.075C52.656 139.341 52.6203 139.627 52.6013 139.954C52.5823 140.281 52.5823 140.588 52.5823 140.874L52.5467 140.894V140.897Z" fill="white"/>
<path d="M69.3137 147.709C69.9431 147.709 70.43 147.606 70.7911 147.382C71.1521 147.157 71.4205 146.809 71.601 146.36C71.7815 145.91 71.8883 145.317 71.9264 144.579C71.9644 143.84 71.981 142.961 71.981 141.939V137.46H75.584V142C75.584 142.348 75.6386 142.593 75.7289 142.716C75.8192 142.838 76.0163 142.9 76.306 142.9C76.5958 142.9 76.7739 142.838 76.8642 142.716C76.9545 142.593 76.9901 142.348 76.9901 142V137.071H80.5385V141.919C80.5385 142.266 80.6097 142.511 80.7546 142.634C80.8995 142.757 81.0966 142.818 81.3318 142.818H81.745V136.619H85.4193V145.744H81.5835C81.422 145.744 81.2415 145.703 81.061 145.641C80.8805 145.58 80.7 145.498 80.5195 145.396C80.339 145.294 80.1775 145.151 80.0326 144.987C79.8877 144.824 79.7808 144.64 79.7072 144.435H79.6359C79.3652 144.906 79.0422 145.253 78.6621 145.478C78.2845 145.703 77.762 145.805 77.0946 145.805C76.4272 145.805 75.888 145.662 75.4724 145.396C75.3821 146.214 75.2206 146.95 74.9855 147.586C74.7504 148.22 74.4083 148.772 73.9594 149.221C73.5082 149.671 72.9144 150.019 72.1757 150.264C71.4371 150.509 70.5179 150.632 69.4016 150.632C68.3922 150.632 67.5467 150.53 66.8436 150.346C66.1406 150.162 65.5658 149.896 65.0955 149.548C64.6253 149.201 64.2666 148.772 63.9959 148.261C63.7251 147.75 63.528 147.177 63.4021 146.541C63.2762 145.907 63.186 145.212 63.1503 144.453C63.1147 143.697 63.0957 142.877 63.0957 141.998V139.236H66.6987V141.998C66.6987 143.02 66.7177 143.901 66.77 144.637C66.8246 145.373 66.9315 145.966 67.112 146.418C67.2925 146.868 67.5633 147.195 67.9219 147.42C68.2806 147.645 68.7675 147.747 69.3992 147.747L69.309 147.706L69.3137 147.709Z" fill="white"/>
<path d="M91.9362 142.902C92.0264 142.902 92.1167 142.922 92.188 142.943C92.2592 142.963 92.2972 143.045 92.2972 143.188V145.603C92.2972 145.746 92.1713 145.828 91.9196 145.828H87.2715V131.199H91.036V142.902H91.9362Z" fill="white"/>
<path d="M97.3381 137.542V142.082C97.3381 142.43 97.3927 142.675 97.483 142.798C97.5732 142.92 97.7703 142.982 98.0601 142.982C98.3499 142.982 98.528 142.92 98.6183 142.798C98.7085 142.675 98.7441 142.43 98.7441 142.082V137.153H102.293V142.001C102.293 142.348 102.364 142.593 102.509 142.716C102.654 142.839 102.851 142.9 103.086 142.9H103.499V136.701H107.173V145.826H103.338C103.176 145.826 102.996 145.785 102.815 145.724C102.635 145.662 102.454 145.58 102.274 145.478C102.093 145.376 101.932 145.233 101.787 145.069C101.642 144.906 101.535 144.722 101.461 144.517H101.39C101.119 144.988 100.796 145.335 100.419 145.56C100.041 145.785 99.5184 145.887 98.851 145.887C98.1836 145.887 97.6801 145.764 97.2835 145.519C96.8868 145.274 96.635 144.947 96.5092 144.558H96.4379C96.4189 144.64 96.3667 144.742 96.2574 144.885C96.1481 145.029 96.0223 145.172 95.8608 145.315C95.6993 145.458 95.5187 145.58 95.3026 145.683C95.0865 145.785 94.8703 145.826 94.6352 145.826H91.9323C91.6806 145.826 91.5547 145.744 91.5547 145.601V143.186C91.5547 143.043 91.5903 142.961 91.6639 142.941C91.7352 142.92 91.8255 142.9 91.9157 142.9H92.9774C93.1745 142.9 93.355 142.839 93.5165 142.716C93.678 142.593 93.7517 142.348 93.7517 141.98V137.521L97.3357 137.542H97.3381Z" fill="white"/>
<path d="M108.955 131.2H112.701V145.828H108.955V131.2ZM109.549 127.845V127.804C109.513 127.742 109.478 127.661 109.442 127.558C109.406 127.456 109.387 127.334 109.387 127.211C109.387 126.741 109.549 126.373 109.874 126.107C110.2 125.841 110.594 125.719 111.081 125.719C111.261 125.719 111.442 125.739 111.639 125.801C111.836 125.862 112.017 125.944 112.161 126.066C112.306 126.189 112.432 126.332 112.539 126.516C112.646 126.7 112.701 126.925 112.72 127.191H111.477C111.458 126.925 111.352 126.802 111.135 126.802C111.045 126.802 110.955 126.843 110.884 126.945C110.812 127.047 110.774 127.17 110.774 127.334C110.774 127.681 110.919 127.865 111.207 127.865H112.791V129.03H109.098V127.865L109.549 127.845Z" fill="white"/>
<path d="M101.076 163.289C100.811 163.27 100.557 163.359 100.371 163.549C100.185 163.738 100.082 164.012 100.084 164.298C100.086 164.584 100.194 164.856 100.383 165.042C100.572 165.228 100.827 165.312 101.092 165.289C101.304 165.27 101.516 165.252 101.729 165.233C105.552 164.9 109.376 164.566 113.2 164.232C113.412 164.214 113.625 164.195 113.837 164.177C113.624 164.162 113.412 164.147 113.199 164.132C109.371 163.866 105.543 163.6 101.714 163.333C101.502 163.319 101.289 163.304 101.076 163.289Z" fill="white"/>
<path d="M18.3984 165.401C18.6637 165.424 18.918 165.338 19.1055 165.15C19.2931 164.963 19.3984 164.689 19.3984 164.401C19.3984 164.114 19.2931 163.84 19.1055 163.653C18.918 163.465 18.6637 163.379 18.3984 163.401C18.1963 163.418 17.9942 163.435 17.7921 163.451C14.1544 163.751 10.5167 164.051 6.87891 164.351C6.67681 164.368 6.47472 164.385 6.27262 164.401C6.47472 164.418 6.67681 164.435 6.87891 164.451C10.5167 164.751 14.1544 165.051 17.7921 165.351C17.9942 165.368 18.1963 165.385 18.3984 165.401Z" fill="white"/>
<defs>
<filter id="filter0_dd_4678_5851" x="11.918" y="36.6865" width="108.73" height="62.7275" filterUnits="userSpaceOnUse" color-interpolation-filters="sRGB">
<feFlood flood-opacity="0" result="BackgroundImageFix"/>
<feColorMatrix in="SourceAlpha" type="matrix" values="0 0 0 0 0 0 0 0 0 0 0 0 0 0 0 0 0 0 127 0" result="hardAlpha"/>
<feMorphology radius="2" operator="dilate" in="SourceAlpha" result="effect1_dropShadow_4678_5851"/>
<feOffset dy="2"/>
<feGaussianBlur stdDeviation="3"/>
<feColorMatrix type="matrix" values="0 0 0 0 0 0 0 0 0 0 0 0 0 0 0 0 0 0 0.15 0"/>
<feBlend mode="normal" in2="BackgroundImageFix" result="effect1_dropShadow_4678_5851"/>
<feColorMatrix in="SourceAlpha" type="matrix" values="0 0 0 0 0 0 0 0 0 0 0 0 0 0 0 0 0 0 127 0" result="hardAlpha"/>
<feOffset dy="1"/>
<feGaussianBlur stdDeviation="1"/>
<feColorMatrix type="matrix" values="0 0 0 0 0 0 0 0 0 0 0 0 0 0 0 0 0 0 0.3 0"/>
<feBlend mode="normal" in2="effect1_dropShadow_4678_5851" result="effect2_dropShadow_4678_5851"/>
<feBlend mode="normal" in="SourceGraphic" in2="effect2_dropShadow_4678_5851" result="shape"/>
</filter>
</defs>
</svg>
