<svg width="32" height="32" viewBox="0 0 32 32" fill="none" xmlns="http://www.w3.org/2000/svg">
<path d="M5.23649 12.3696C5.23654 6.45568 10.0583 1.66699 15.9993 1.66699C21.9405 1.66699 26.7622 6.45572 26.7622 12.3697C26.7623 13.7454 26.8548 14.7835 27.4891 15.7167C27.7305 16.0667 28.1877 16.6585 28.4922 17.1343C28.8333 17.6674 29.1666 18.3102 29.2811 19.0592C29.6549 21.503 27.9319 23.0852 26.2161 23.7941C20.1725 26.2913 11.8262 26.2913 5.78263 23.7941C4.06676 23.0852 2.34383 21.503 2.71758 19.0592C2.83214 18.3102 3.16538 17.6674 3.50646 17.1343C3.81099 16.6584 4.26826 16.0665 4.50963 15.7166C5.14386 14.7834 5.23637 13.7452 5.23649 12.3696Z" fill="#2C58A2"/>
<path opacity="0.4" d="M19.7035 29.2681C18.6323 29.9418 17.3583 30.3303 15.998 30.3303C14.6376 30.3303 13.3636 29.9418 12.2925 29.2681C11.3417 28.6702 10.8664 28.3713 11.0327 27.8743C11.1991 27.3773 11.855 27.433 13.1669 27.5443C15.0432 27.7034 16.9528 27.7034 18.829 27.5443C20.1409 27.433 20.7968 27.3773 20.9632 27.8743C21.1295 28.3713 20.6542 28.6702 19.7035 29.2681Z" fill="#2C58A2"/>
</svg>
