<svg width="29" height="29" viewBox="0 0 29 29" fill="none" xmlns="http://www.w3.org/2000/svg">
<path fill-rule="evenodd" clip-rule="evenodd" d="M4.0004 12.3333C3.37186 12.3333 3.05759 12.3333 2.86233 12.1381C2.66706 11.9428 2.66706 11.6285 2.66706 11L2.66706 6.99998C2.66706 5.93891 3.42076 5.28752 4.02094 4.89063C4.62039 4.49422 5.47243 4.09067 6.43877 3.63298L10.5882 1.66713C12.6744 0.677576 14.1038 -0.000425891 15.6671 -0.000425895C17.2304 -0.000425899 18.6597 0.677576 20.7459 1.66713L24.8954 3.633C25.8617 4.09067 26.7138 4.49424 27.3132 4.89063C27.9134 5.28752 28.6671 5.93891 28.6671 6.99998L28.6671 21.215C28.6671 22.7089 27.5773 23.7024 26.236 24.5073C24.8781 25.3221 22.599 26.2849 20.0749 27.3511C18.1828 28.151 16.9631 28.6666 15.6671 28.6666C14.371 28.6666 13.1513 28.151 11.2592 27.3511C10.6445 27.0914 10.0438 26.8377 9.46795 26.5909C9.08047 26.4249 8.88674 26.3419 8.77662 26.1749C8.6665 26.0079 8.6665 25.7958 8.6665 25.3716L8.6665 15.6666C8.6665 13.8257 7.17411 12.3333 5.33316 12.3333L4.0004 12.3333ZM15.6672 2.54506C14.7742 2.54506 13.9134 2.91985 11.4571 4.0835L7.65954 5.88255C6.57861 6.39462 5.90142 6.71903 5.47696 6.99961C5.90142 7.28018 6.57861 7.6046 7.65954 8.11667L9.09291 8.79541L19.2865 3.80556L22.2419 5.20474L12.048 10.1947C14.0595 11.1402 14.8499 11.4542 15.6672 11.4542C16.5601 11.4542 17.4209 11.0794 19.8772 9.91572L23.6748 8.11668C24.7557 7.6046 25.4329 7.28018 25.8574 6.99961C25.4329 6.71903 24.7557 6.39462 23.6748 5.88254L19.2865 3.80556C17.2745 2.8599 16.4845 2.54506 15.6672 2.54506Z" fill="url(#paint0_linear_5007_15475)"/>
<path d="M0.000396355 15.6662C0.000396357 14.9299 0.597351 14.3329 1.33373 14.3329L5.33373 14.3329C6.07011 14.3329 6.66706 14.9299 6.66706 15.6662C6.66706 16.4026 6.07011 16.9996 5.33373 16.9996L1.33373 16.9996C0.597351 16.9996 0.000396355 16.4026 0.000396355 15.6662Z" fill="url(#paint1_linear_5007_15475)"/>
<path d="M0.000397044 19.6662C0.000397044 18.9299 0.597352 18.3329 1.33373 18.3329L5.33373 18.3329C6.07011 18.3329 6.66706 18.9299 6.66706 19.6662C6.66706 20.4026 6.07011 20.9996 5.33373 20.9996L1.33373 20.9996C0.597352 20.9996 0.000397044 20.4026 0.000397044 19.6662Z" fill="url(#paint2_linear_5007_15475)"/>
<path d="M0.000397733 23.6662C0.000397733 22.9299 0.59735 22.3329 1.33373 22.3329L5.33373 22.3329C6.07011 22.3329 6.66706 22.9299 6.66706 23.6662C6.66706 24.4026 6.07011 24.9996 5.33373 24.9996L1.33373 24.9996C0.59735 24.9996 0.000397732 24.4026 0.000397733 23.6662Z" fill="url(#paint3_linear_5007_15475)"/>
<defs>
<linearGradient id="paint0_linear_5007_15475" x1="28.8452" y1="13.9969" x2="-0.227574" y2="14.7374" gradientUnits="userSpaceOnUse">
<stop stop-color="#28A8E0"/>
<stop offset="0.53" stop-color="#2D6DB0"/>
<stop offset="1" stop-color="#2A3B8F"/>
</linearGradient>
<linearGradient id="paint1_linear_5007_15475" x1="28.8452" y1="13.9969" x2="-0.227574" y2="14.7374" gradientUnits="userSpaceOnUse">
<stop stop-color="#28A8E0"/>
<stop offset="0.53" stop-color="#2D6DB0"/>
<stop offset="1" stop-color="#2A3B8F"/>
</linearGradient>
<linearGradient id="paint2_linear_5007_15475" x1="28.8452" y1="13.9969" x2="-0.227574" y2="14.7374" gradientUnits="userSpaceOnUse">
<stop stop-color="#28A8E0"/>
<stop offset="0.53" stop-color="#2D6DB0"/>
<stop offset="1" stop-color="#2A3B8F"/>
</linearGradient>
<linearGradient id="paint3_linear_5007_15475" x1="28.8452" y1="13.9969" x2="-0.227574" y2="14.7374" gradientUnits="userSpaceOnUse">
<stop stop-color="#28A8E0"/>
<stop offset="0.53" stop-color="#2D6DB0"/>
<stop offset="1" stop-color="#2A3B8F"/>
</linearGradient>
</defs>
</svg>
