<svg width="32" height="32" viewBox="0 0 32 32" fill="none" xmlns="http://www.w3.org/2000/svg">
<path fill-rule="evenodd" clip-rule="evenodd" d="M5.28256 10.4415C5.54409 10.2361 5.76627 10.0638 5.80816 10.0381C6.23264 9.77734 6.91005 9.47585 7.99147 8.99991L10.0653 8.0872C10.712 7.80261 10.9833 7.09374 10.6713 6.50388C10.3593 5.91403 9.58217 5.66657 8.93553 5.95116L6.77352 6.90267C5.80714 7.32787 4.95518 7.70274 4.35578 8.07098C3.75654 8.43911 3.00044 9.04478 3.00044 10.034C3.00044 10.0665 3.00188 10.0988 3.0047 10.1307C3.00188 10.1614 3.00044 10.1924 3.00044 10.2237L3.00044 23.068C3.00044 24.5606 4.09228 25.5519 5.43265 26.3538C6.79043 27.1662 9.06896 28.1259 11.5931 29.1891C13.4856 29.9868 14.7049 30.5008 16.0004 30.5008C17.2959 30.5008 18.5152 29.9868 20.4078 29.1891C22.9319 28.1259 25.2104 27.1662 26.5682 26.3538C27.9086 25.5519 29.0004 24.5606 29.0004 23.068L29.0004 10.2237C29.0004 10.1924 28.999 10.1614 28.9962 10.1307C28.999 10.0988 29.0004 10.0665 29.0004 10.034C29.0004 9.04478 28.2443 8.43911 27.6451 8.07098C27.0457 7.70273 26.1937 7.32787 25.2273 6.90266L23.1233 5.97667C22.4767 5.69208 21.6995 5.93954 21.3876 6.5294C21.0756 7.11925 21.3469 7.82812 21.9935 8.11271L24.0094 8.99991C25.0908 9.47585 25.7682 9.77733 26.1927 10.0381C26.2346 10.0638 26.4568 10.2361 26.7183 10.4415C26.6943 10.4587 26.6683 10.4767 26.6403 10.4956C26.1801 10.8055 25.4587 11.1564 24.3596 11.6866L20.4647 13.5659C17.9745 14.7673 17.0113 15.2063 16.0004 15.2063C14.9896 15.2063 14.0264 14.7673 11.5362 13.5659L7.64127 11.6866C6.54221 11.1564 5.82073 10.8054 5.36062 10.4956C5.33259 10.4767 5.30662 10.4587 5.28256 10.4415ZM7.10323 17.2621C7.34687 16.7664 7.94617 16.5621 8.44181 16.8058L11.1085 18.1166C11.6041 18.3603 11.8084 18.9596 11.5648 19.4552C11.3211 19.9509 10.7218 20.1551 10.2262 19.9115L7.55951 18.6007C7.06387 18.357 6.85959 17.7577 7.10323 17.2621Z" fill="url(#paint0_linear_2179_33281)"/>
<path d="M19.5328 6.51366C20.0928 6.03559 20.1593 5.19399 19.6813 4.6339L18.3043 3.02065C18.0287 2.69757 17.7412 2.36048 17.4665 2.11492C17.1582 1.83938 16.6741 1.49952 16.0005 1.49952C15.3269 1.49952 14.8427 1.83938 14.5345 2.11492C14.2597 2.36048 13.9722 2.69755 13.6966 3.02063L12.3197 4.6339C11.8416 5.19399 11.9081 6.03559 12.4682 6.51366C12.717 6.72608 13.0215 6.83099 13.3249 6.83285L14.6671 6.83285L14.6671 12.1662C14.6671 12.9026 15.2641 13.4995 16.0005 13.4995C16.7368 13.4995 17.3338 12.9026 17.3338 12.1662L17.3338 6.83285L18.676 6.83285C18.9795 6.83098 19.2839 6.72607 19.5328 6.51366Z" fill="url(#paint1_linear_2179_33281)"/>
<defs>
<linearGradient id="paint0_linear_2179_33281" x1="29.1438" y1="15.6654" x2="2.82788" y2="16.3357" gradientUnits="userSpaceOnUse">
<stop stop-color="#28A8E0"/>
<stop offset="0.53" stop-color="#2D6DB0"/>
<stop offset="1" stop-color="#2A3B8F"/>
</linearGradient>
<linearGradient id="paint1_linear_2179_33281" x1="29.1438" y1="15.6654" x2="2.82788" y2="16.3357" gradientUnits="userSpaceOnUse">
<stop stop-color="#28A8E0"/>
<stop offset="0.53" stop-color="#2D6DB0"/>
<stop offset="1" stop-color="#2A3B8F"/>
</linearGradient>
</defs>
</svg>
