<svg width="18" height="20" viewBox="0 0 18 20" fill="none" xmlns="http://www.w3.org/2000/svg">
<g clip-path="url(#clip0_49_23815)">
<path d="M11.2023 17.7177C10.8811 18.4258 10.6687 19.1942 10.5874 20L17.3848 18.5635C17.706 17.8556 17.9181 17.0871 17.9996 16.2812L11.2023 17.7177Z" fill="black"/>
<path d="M17.3851 14.2599C17.7063 13.552 17.9187 12.7835 18 11.9776L12.7051 13.0972V10.945L17.385 9.9563C17.7062 9.2484 17.9185 8.47985 17.9998 7.67405L12.7049 8.79265V1.0527C11.8936 1.50558 11.173 2.10842 10.5873 2.81951V9.24028L8.46968 9.68776V0C7.65833 0.452726 6.93778 1.05572 6.35206 1.76681V10.1351L1.61387 11.136C1.29267 11.8439 1.08019 12.6125 0.998683 13.4183L6.35206 12.2873V14.9976L0.61487 16.2096C0.293664 16.9175 0.0813422 17.6861 0 18.4919L6.00523 17.2232C6.49408 17.1221 6.91425 16.8347 7.18741 16.4393L8.28874 14.8161V14.8158C8.40306 14.6478 8.46968 14.4454 8.46968 14.2273V11.8398L10.5873 11.3923V15.6967L17.385 14.2596L17.3851 14.2599Z" fill="black"/>
</g>
<defs>
<clipPath id="clip0_49_23815">
<rect width="18" height="20" fill="white"/>
</clipPath>
</defs>
</svg>
