<svg width="20" height="20" viewBox="0 0 20 20" fill="none" xmlns="http://www.w3.org/2000/svg">
<path fill-rule="evenodd" clip-rule="evenodd" d="M16.5038 2.80298C13.995 1.26787 11.7266 1.87733 10.3538 2.90535L10.3531 2.90588L9.99981 3.16937L9.6467 2.90588C8.27391 1.87778 6.00489 1.26781 3.49595 2.80298C1.7352 3.88036 0.768558 6.1131 1.10853 8.64173C1.45064 11.1862 3.09701 14.0331 6.53406 16.5708L6.63867 16.6481C7.80337 17.5089 8.63693 18.125 10.0001 18.125C11.3632 18.125 12.1968 17.5089 13.3615 16.6481L13.4661 16.5708C14.7975 15.5878 15.8592 14.5598 16.681 13.5203C16.6856 13.5145 16.6901 13.5086 16.6945 13.5027C20.0762 9.21024 19.3793 4.56245 16.5038 2.80298ZM11.0674 8.61711L14.9685 13.0321C14.3099 13.7777 13.4938 14.5287 12.4969 15.2647C11.1985 16.2234 10.7813 16.5 10.0001 16.5C9.21888 16.5 8.80163 16.2234 7.50319 15.2647C4.3283 12.9206 2.99301 10.4334 2.72307 8.42572C2.45101 6.40219 3.24194 4.86473 4.3477 4.18812C6.19324 3.05887 7.7282 3.51104 8.64825 4.1902L6.71838 5.65815C5.54733 6.54891 5.44113 8.26874 6.49374 9.29613C6.94821 9.7397 7.54258 9.97345 8.14483 9.98309C8.17029 9.9835 8.19578 9.98351 8.22126 9.98311C8.64997 9.97653 9.07985 9.85626 9.46339 9.61714L11.0674 8.61711Z" fill="#2C58A2"/>
</svg>
