<svg width="22" height="22" viewBox="0 0 22 22" fill="none" xmlns="http://www.w3.org/2000/svg">
<path d="M1.8335 1.83333H3.4285C4.4185 1.83333 5.19766 2.68583 5.11516 3.66667L4.35433 12.7967C4.226 14.2908 5.40849 15.5742 6.91182 15.5742H16.6743C17.9943 15.5742 19.1493 14.4925 19.2502 13.1817L19.7452 6.30667C19.8552 4.785 18.7002 3.54749 17.1693 3.54749H5.33517" stroke="#FF7817" stroke-width="1.5" stroke-miterlimit="10" stroke-linecap="round" stroke-linejoin="round"/>
<path d="M14.8958 20.1667C15.5287 20.1667 16.0417 19.6537 16.0417 19.0208C16.0417 18.388 15.5287 17.875 14.8958 17.875C14.263 17.875 13.75 18.388 13.75 19.0208C13.75 19.6537 14.263 20.1667 14.8958 20.1667Z" stroke="#FF7817" stroke-width="1.5" stroke-miterlimit="10" stroke-linecap="round" stroke-linejoin="round"/>
<path d="M7.56234 20.1667C8.19516 20.1667 8.70817 19.6537 8.70817 19.0208C8.70817 18.388 8.19516 17.875 7.56234 17.875C6.92951 17.875 6.4165 18.388 6.4165 19.0208C6.4165 19.6537 6.92951 20.1667 7.56234 20.1667Z" stroke="#FF7817" stroke-width="1.5" stroke-miterlimit="10" stroke-linecap="round" stroke-linejoin="round"/>
<path d="M8.25 7.33333H19.25" stroke="#FF7817" stroke-width="1.5" stroke-miterlimit="10" stroke-linecap="round" stroke-linejoin="round"/>
</svg>
