<svg width="24" height="24" viewBox="0 0 24 24" fill="none" xmlns="http://www.w3.org/2000/svg">
<path d="M12.0059 15C12.5581 15 13.0059 14.5523 13.0059 14V7.5L13.5884 7.50002C13.764 7.50014 13.9797 7.5003 14.1561 7.47823L14.1595 7.47781C14.2859 7.46204 14.862 7.39021 15.1363 6.82461C15.4113 6.25779 15.1093 5.75765 15.044 5.64944L15.0416 5.64541C14.9494 5.49239 14.8152 5.3215 14.7049 5.18095L14.6812 5.15071C14.3865 4.77488 14.0046 4.29067 13.6241 3.89966C13.4343 3.70455 13.217 3.50331 12.9861 3.34447C12.7809 3.20326 12.4307 3 12 3C11.5693 3 11.2191 3.20326 11.0139 3.34447C10.783 3.50331 10.5657 3.70455 10.3759 3.89966C9.99545 4.29067 9.61348 4.77488 9.31885 5.15071L9.29511 5.18095C9.18477 5.32151 9.05062 5.49239 8.95841 5.64541L8.95597 5.64944C8.89065 5.75765 8.58872 6.25779 8.86368 6.82461C9.13804 7.39021 9.71408 7.46204 9.84053 7.47781L9.84387 7.47823C10.0203 7.5003 10.236 7.50014 10.4116 7.50002L11.0059 7.5V14C11.0059 14.5523 11.4536 15 12.0059 15Z" fill="#FF7817"/>
<path d="M21.9433 14.3331C22.1271 13.8123 21.8539 13.2411 21.3331 13.0573C20.8123 12.8735 20.2411 13.1467 20.0573 13.6675L19.8234 14.3301C19.3608 15.6409 19.04 16.5453 18.713 17.2193C18.3971 17.8705 18.117 18.2146 17.7853 18.4493C17.4536 18.684 17.0358 18.8336 16.3166 18.9148C15.5722 18.9988 14.6126 19.0003 13.2225 19.0003H10.778C9.38798 19.0003 8.42839 18.9988 7.68392 18.9148C6.96471 18.8336 6.54696 18.684 6.21526 18.4493C5.88357 18.2146 5.60347 17.8705 5.28754 17.2193C4.96051 16.5453 4.63975 15.6409 4.17711 14.3301L3.94326 13.6675C3.75945 13.1467 3.18825 12.8735 2.66745 13.0573C2.14665 13.2411 1.87347 13.8123 2.05728 14.3331L2.31045 15.0504C2.74909 16.2933 3.10609 17.3049 3.48813 18.0923C3.88686 18.9142 4.35347 19.582 5.06012 20.082C5.76676 20.582 6.55186 20.7997 7.45957 20.9022C8.32925 21.0003 9.40189 21.0003 10.7198 21.0003H13.2806C14.5985 21.0003 15.6713 21.0003 16.541 20.9022C17.4487 20.7997 18.2338 20.582 18.9404 20.082C19.6471 19.582 20.1137 18.9142 20.5124 18.0923C20.8945 17.3049 21.2515 16.2933 21.6901 15.0504L21.9433 14.3331Z" fill="#FF7817"/>
</svg>
