<svg width="31" height="30" viewBox="0 0 31 30" fill="none" xmlns="http://www.w3.org/2000/svg">
<path d="M1.80078 18.75C1.80078 17.3167 2.13696 15.9833 2.80931 14.75C3.46565 13.55 4.35411 12.5833 5.47469 11.85C5.6828 10.2333 6.23109 8.75833 7.11955 7.425C8.00801 6.09167 9.1326 5.05 10.4933 4.3C11.902 3.51667 13.4068 3.125 15.0077 3.125C16.6085 3.125 18.1133 3.51667 19.522 4.3C20.8827 5.05 22.0073 6.09167 22.8958 7.425C23.7842 8.75833 24.3325 10.2333 24.5406 11.85C25.6612 12.5833 26.5497 13.55 27.206 14.75C27.8784 15.9833 28.2145 17.3083 28.2145 18.725C28.2145 20.1417 27.8944 21.4583 27.254 22.675C26.6137 23.8583 25.7452 24.825 24.6487 25.575C23.5521 26.325 22.3395 26.75 21.0108 26.85L9.00453 26.875C7.67584 26.7583 6.46321 26.325 5.36664 25.575C4.27007 24.825 3.40161 23.8583 2.76128 22.675C2.12095 21.4583 1.80078 20.15 1.80078 18.75ZM20.8187 24.35C21.7472 24.2833 22.5916 23.9917 23.352 23.475C24.1124 22.9583 24.7127 22.2833 25.1529 21.45C25.5932 20.6167 25.8133 19.7125 25.8133 18.7375C25.8133 17.7625 25.5852 16.8542 25.1289 16.0125C24.6727 15.1708 24.0524 14.4917 23.268 13.975L22.3075 13.35L22.1634 12.175C22.0033 10.9417 21.5871 9.82917 20.9147 8.8375C20.2424 7.84583 19.3899 7.0625 18.3574 6.4875C17.3249 5.9125 16.2083 5.625 15.0077 5.625C13.807 5.625 12.6904 5.9125 11.6579 6.4875C10.6254 7.0625 9.77293 7.84583 9.10058 8.8375C8.42823 9.82917 8.01201 10.9417 7.85193 12.175L7.70786 13.35L6.74736 13.975C5.96295 14.4917 5.34263 15.1708 4.88639 16.0125C4.43015 16.8542 4.20203 17.7625 4.20203 18.7375C4.20203 19.7125 4.42215 20.6167 4.86238 21.45C5.3026 22.2833 5.90292 22.9583 6.66331 23.475C7.42371 23.9917 8.26815 24.2833 9.19663 24.35L9.38873 24.375H20.6266L20.8187 24.35ZM16.2083 16.875V21.875H13.807V16.875H10.2052L15.0077 10.625L19.8102 16.875H16.2083Z" fill="#25A07C"/>
</svg>
