<svg width="168" height="106" viewBox="0 0 168 106" fill="none" xmlns="http://www.w3.org/2000/svg">
<path d="M52.1805 58.3984L53.8447 50.4918L64.7209 45.9384C61.1883 43.3339 56.4122 42.61 52.063 44.4227C47.4848 46.3468 44.6018 50.5908 44.1935 55.2123L22.2123 64.4242C19.5397 47.052 29.5744 29.7232 46.7857 23.8087C51.6794 22.126 56.6844 21.5259 61.5347 21.8847L77.0385 12.6851C76.9828 12.6604 76.9271 12.6418 76.8715 12.6171C75.6651 12.1469 74.9474 10.9095 75.1577 9.6227L75.9868 4.63006C76.2219 3.24425 75.3619 1.89556 74.007 1.53673C71.4891 0.856198 68.9216 0.355075 66.3046 0.0209949C64.9188 -0.152232 63.6134 0.763395 63.3041 2.14302L62.1967 7.06761C61.9121 8.33588 60.7676 9.22676 59.4622 9.2082C56.7772 9.16489 54.0674 9.3443 51.3639 9.77118C50.0647 9.96297 48.8211 9.24532 48.3633 8.02036L46.5816 3.28756C46.099 1.97599 44.6823 1.2274 43.3274 1.5986C42.0715 1.93886 40.8094 2.32862 39.5659 2.76169C38.31 3.18857 37.0912 3.65876 35.891 4.15988C34.5918 4.7043 33.9422 6.15817 34.3629 7.50068L35.8663 12.3386C36.2498 13.576 35.7054 14.9061 34.5794 15.5495C32.179 16.8797 29.9395 18.4078 27.8422 20.0906C26.8214 20.901 25.3799 20.9134 24.3715 20.0844L20.4677 16.8735C19.3788 15.9888 17.7827 16.0506 16.7928 17.0467C14.943 18.9151 13.2293 20.901 11.6455 22.9797C10.7979 24.0995 10.9588 25.6833 11.9858 26.636L15.7163 30.0758C16.6691 30.9543 16.8609 32.3835 16.1989 33.5032C14.8131 35.8294 13.6252 38.2608 12.6354 40.7911C12.1652 42.0037 10.9217 42.7338 9.63484 42.5172L4.62983 41.6882C3.24402 41.4593 1.90151 42.3131 1.54269 43.6679C0.862156 46.1921 0.354851 48.7596 0.0207709 51.3703C-0.152456 52.7685 0.775543 54.0615 2.1428 54.3709L7.07975 55.4845C8.3542 55.7691 9.23889 56.9074 9.21415 58.2128C9.18321 60.8978 9.36263 63.6076 9.77713 66.3173C9.9751 67.6041 9.26364 68.8539 8.04487 69.3117L3.2997 71.0934C1.97576 71.5884 1.23954 72.9927 1.61074 74.3476C1.95101 75.6097 2.34077 76.8656 2.76765 78.1091C3.20072 79.3526 3.6709 80.5838 4.17202 81.7902C4.71644 83.0894 6.16412 83.739 7.50044 83.3183L12.0909 81.8768L12.2889 81.8211L12.3322 81.8026L26.0542 76.0551C26.0233 75.9995 25.9986 75.9438 25.9676 75.8881L48.8397 66.2988C52.428 69.2498 57.4825 70.1716 62.0544 68.2538C66.4036 66.4287 69.2309 62.5063 69.8496 58.1633L58.9858 62.7229L52.1867 58.3798L52.1805 58.3984Z" fill="url(#paint0_linear_503_7305)"/>
<path d="M84.908 88.3975C83.6892 88.6388 82.4209 88.812 81.1403 88.9358C79.3461 90.2721 77.4345 91.4414 75.4238 92.4374L81.196 91.9858C82.2786 91.7816 83.5531 91.6641 84.3511 90.8351C84.6852 90.4948 86.0215 88.1872 84.908 88.4037V88.3975ZM166.417 103.92C165.093 103.864 163.757 103.982 162.439 103.92C161.87 103.889 161.338 103.623 160.775 103.592C157.31 103.425 153.796 103.468 150.332 103.258C151.798 101.854 152.25 100.264 152.974 98.4385L161.245 97.9188L162.266 92.9757H154.644C155.566 89.6534 158.702 89.5297 161.567 88.9729L161.932 84.0236L155.789 86.6715C155.281 86.7519 155.244 86.7024 155.306 86.1889C155.423 85.3166 157.447 78.5669 157.805 78.072C158.795 76.7357 162.885 77.9544 162.922 76.8965C162.161 74.8364 160.732 74.5146 158.622 74.7374C158.95 73.5248 159.779 72.9865 159.952 71.5945C160.478 67.2453 159.117 60.341 160.014 56.4063C160.342 54.9833 163.015 52.6015 163.281 50.7145C163.54 48.84 161.672 37.1719 160.75 35.6314C160.49 35.1922 158.956 33.9363 158.622 34.2827C158.665 36.9739 160.503 45.2641 159.105 47.2067C157.917 48.8709 155.009 48.0048 153.215 48.2151C152.757 48.1038 152.188 45.79 151.142 45.9075L136.894 44.5526L136.4 45.5549L149.008 47.2129V48.2027L132.644 47.8934L130.547 44.9547L115.526 43.5627L115.742 44.565C117.586 45.2332 127.423 45.8085 128.147 46.687C128.462 47.0644 128.499 47.4047 128.456 47.8811H113.033C112.494 47.8811 110.329 46.8726 109.871 46.3901C107.817 44.1814 108.621 37.2029 108.572 34.1033C108.535 31.9999 107.341 29.4695 109.549 27.8177L157.954 30.6264C157.434 29.6489 157.824 27.8981 156.457 27.6568C144.919 26.5432 133.269 25.9369 121.811 24.3346L122.653 23.6602L155.108 25.9617L155.64 24.3408L149.002 24.0067C149.775 21.8228 151.204 21.3588 153.314 20.8639C151.229 18.8965 148.742 17.2694 146.143 16.0939C143.78 15.036 137.909 12.6913 135.54 12.4438C134.618 12.3448 133.677 12.4129 132.756 12.4067L134.741 15.7166C132.7 14.3555 130.609 13.0872 128.196 12.4933C121.7 11.8746 115.099 11.72 108.553 11.7447L109.382 14.405C106.852 12.45 104.693 11.0456 101.42 10.7487C99.094 10.5507 90.1419 11.1075 88.3477 12.2582C87.2774 12.9511 86.7206 15.7475 86.436 16.9848C85.341 21.6991 84.6234 26.5556 84.1284 31.4616C84.0233 32.4329 83.9366 33.4104 83.8562 34.3817C83.8377 34.5178 83.8315 34.6601 83.8191 34.7962C83.7387 35.7737 83.6644 36.7512 83.6026 37.7287C83.2747 42.7276 83.1076 47.7511 82.953 52.7066C82.8602 55.4906 82.7859 58.2561 82.6808 60.9844C82.6622 61.3927 82.9344 62.2217 82.3529 62.1475L82.0621 50.0959L81.7218 36.1387L81.6414 32.8722V32.6062L81.5548 29.3149L81.1898 14.3988L67.2698 22.658C69.0577 23.0601 70.8085 23.5922 72.5099 24.248L76.0425 22.3549L75.9806 25.8132L75.9249 29.2035L75.8692 32.6062L75.7517 39.8569L75.5042 55.7567L75.3496 65.7605L75.1763 65.8224L41.7436 77.7441L38.1616 79.0185L36.4045 79.6496L33.4411 80.7075L31.6284 81.3509L29.8034 82.0067L28.3 82.545L29.9024 82.1366L31.9254 81.6108L33.7628 81.1406L37.0974 80.2806L38.8978 79.8166L42.7026 78.8391L74.0627 70.7532L74.236 70.7099L75.2196 70.4562L75.2382 72.7886L73.0914 73.3454L72.9182 73.3949L44.6885 80.7508L40.927 81.7345L39.4669 82.1119L35.427 83.1636L34.3134 83.4544L31.6284 84.1535L30.6571 84.4071L30.6695 88.3109L35.9282 89.6844L35.3652 91.8744L35.2538 92.3137L31.2882 92.3323V96.9784L34.4557 96.7248L36.2622 103.611L29.4445 103.592L22.998 104.26C29.0362 104.693 35.0497 104.681 41.0755 104.916C79.9029 106.413 119.04 106.407 157.793 104.6C161.047 104.446 164.314 104.47 167.568 104.26C167.648 103.679 166.813 103.945 166.417 103.938V103.92ZM154.267 75.851C154.05 77.7317 151.736 89.7029 150.858 90.3587C144.949 91.231 138.565 91.8497 132.576 91.6703C130.881 91.6146 128.32 91.4723 126.668 91.2743C124.113 90.9774 122.158 90.866 121.62 88.0201L122.034 87.3829L145.129 85.6878L146.02 84.0236L120.661 82.6996C120.203 82.6996 120.085 82.4893 119.887 82.149C119.72 81.8706 119.083 80.1012 119.479 79.8723L149.843 78.0596C150.437 78.171 151.241 76.6305 150.994 76.4016L118.996 75.0776L118.217 74.5332L118.161 71.4337L151.489 70.1097L152.318 69.1137L117.982 67.8083C117.827 66.1193 117.122 63.7498 119.312 63.4591C124.75 62.7352 133.232 63.6076 138.874 63.8241C141.002 63.8983 153.419 64.0654 154.229 64.882C154.601 65.3955 154.601 66.0018 154.644 66.6143C154.854 69.0766 154.545 73.3516 154.26 75.8633L154.267 75.851ZM137.247 57.4889L155.634 58.8315L154.483 59.1593L135.236 59.1779L119.992 58.1633L117.505 57.4951L137.247 57.4828V57.4889ZM51.1783 85.9724L52.7373 85.7558L59.6354 84.7969L62.7845 84.3576V84.4443L62.7968 87.9397V89.4678L62.8092 92.159L51.2896 93.2603L50.8566 93.3036V93.1303L50.8689 91.3362L61.4667 90.1422V87.8655V86.6838L56.8886 87.1107L56.2637 87.1726L51.1164 87.6613L50.8689 87.6861V87.5747L50.8566 86.028L51.1907 85.9847L51.1783 85.9724ZM37.7532 102.59C35.526 100.035 36.1756 95.8153 36.8129 92.5674C36.8562 92.3694 36.8933 92.1714 36.9304 91.9796C38.1615 91.8311 37.3325 92.4684 37.2583 92.7777C37.2583 92.7962 37.2583 92.8024 37.2583 92.8148C37.2583 94.5718 37.0232 97.1702 37.2583 98.7788C37.4996 100.424 39.603 101.34 37.7594 102.59H37.7532ZM43.5749 102.243C42.851 101.773 42.3623 97.8569 42.5417 94.6151C42.5788 93.848 42.6531 93.118 42.7768 92.4746C42.9686 91.4414 43.2779 90.6495 43.7234 90.3278C43.6429 90.9898 43.5378 91.8559 43.4697 92.8148C43.414 93.452 43.3769 94.1326 43.3645 94.8193C43.3212 96.8733 43.5006 98.9582 44.2554 100.09C44.5214 100.492 45.0968 100.542 45.1772 100.653C45.5237 101.124 44.3111 102.751 43.5749 102.243ZM67.4306 102.596L50.8566 102.924L51.8526 98.6179C53.0466 98.8035 54.1603 98.3395 55.3172 98.2653C56.8824 98.1725 63.0752 98.0178 64.2136 98.3457C64.9745 98.5808 67.9008 102.175 67.4368 102.596H67.4306ZM67.5853 97.9683C67.4492 97.1022 67.3811 96.1989 67.3688 95.2957C67.3688 94.9183 67.3688 94.5409 67.3935 94.1573C67.443 93.1118 67.5667 92.0724 67.7647 91.064C67.8637 90.5876 67.9627 90.1236 68.0926 89.6658C68.637 89.5916 68.4576 90.2907 68.3958 90.6804C68.3958 90.7175 68.3772 90.7485 68.3772 90.7794C68.3091 91.5589 68.1792 92.7591 68.1854 93.9965C68.1854 94.3615 68.204 94.7265 68.2287 95.0853C68.371 96.8671 68.9031 98.457 70.4126 98.6117C69.3918 102.361 68.0555 100.938 67.5791 97.9621L67.5853 97.9683ZM72.7388 92.6478L72.9986 92.623L75.4238 92.4312L81.196 91.9796C82.2786 91.7754 83.5531 91.6579 84.3511 90.8289C84.6852 90.4886 86.0215 88.181 84.908 88.3975C83.6892 88.6388 82.4209 88.812 81.1403 88.9358C80.8186 88.9729 80.5092 89.0038 80.1875 89.0286C77.6881 89.2513 75.1454 89.3688 72.7388 89.6658C72.6831 89.0348 72.6398 88.3047 72.6769 87.5747V87.5438C72.6893 87.2159 72.714 86.8818 72.7635 86.5601C72.9739 85.1805 73.5616 83.9431 74.9722 83.4482C75.6094 83.2255 76.3332 83.0646 77.1128 82.9471C78.2697 82.7553 79.5503 82.6377 80.8309 82.5202C81.097 82.4955 81.363 82.4707 81.629 82.446C83.318 82.2913 84.9822 82.1057 86.3371 81.7097L86.3866 83.8194V84.1968L86.6711 96.6382L72.7388 96.9661V92.654V92.6478ZM82.0188 102.262L83.5654 99.9913C85.6318 100.066 87.7724 99.3294 89.8325 99.5892C91.2802 99.7748 91.1441 101.21 91.9669 102.256H82.0188V102.262ZM93.6311 101.124C91.1379 99.8676 91.1008 92.9757 91.3483 90.5319C91.5091 88.8801 92.0473 86.6343 93.1362 85.3599C92.8269 88.8863 92.2824 91.7878 93.0681 95.3761C93.3899 96.8238 93.8229 99.02 95.6232 98.9582C95.9078 99.2428 94.4787 101.662 93.6373 101.13L93.6311 101.124ZM95.6171 93.6438H94.6272C94.4973 92.4127 94.1199 91.0269 95.1221 90.0061C96.1244 91.0269 95.7408 92.4065 95.6171 93.6438ZM99.261 96.632L99.2981 94.0088L104.569 93.3159C104.254 96.168 101.779 96.83 99.261 96.632ZM94.887 67.8764L95.0664 67.9877L105.893 74.9044V88.9977L98.4444 85.6816C97.6772 82.5016 97.0771 75.0281 92.2082 76.1356C92.1154 76.1603 92.0226 76.1851 91.936 76.216C91.8865 76.2345 91.8308 76.2531 91.7813 76.2779C90.612 76.8037 90.179 78.2328 89.5665 78.4865C88.5024 78.9381 87.1166 78.6288 85.9906 78.7092C85.9906 78.5174 85.9906 78.3133 85.9782 78.1215C85.9782 78.0039 85.9782 77.8864 85.9782 77.7626C85.805 67.4618 85.2853 57.0373 85.6565 46.6994C85.6751 45.9879 85.9659 45.3569 85.9968 44.7197C86.0525 43.5256 86.102 42.0656 86.1886 40.4385C86.2319 39.5167 86.2876 38.5454 86.3494 37.5369C86.368 37.3018 86.3804 37.0606 86.3989 36.8193C86.4608 35.8851 86.5289 34.9262 86.6155 33.9549C87.1475 27.8362 88.1745 21.3588 90.3708 18.2593C94.0518 13.0625 103.165 11.0147 105.231 18.6923C103.239 17.851 101.847 16.3847 99.6631 15.8155C98.6485 15.5495 96.6007 14.9308 95.9511 16.0506C100.597 15.9083 103.981 20.604 105.547 24.5264L105.893 70.1036C105.553 70.4933 98.4134 67.7959 95.2335 67.3072C95.1592 67.2948 95.0788 67.2824 95.0108 67.2762C94.5406 67.2144 94.1756 67.2082 93.9528 67.2886L94.887 67.8825V67.8764ZM108.058 17.6963C110.917 18.649 115.012 17.9561 115.847 21.6805H107.891L108.058 17.6963ZM109.605 76.5006C109.382 75.9995 107.935 74.4033 108.225 74.0754C110.001 74.8116 112.408 74.8116 113.855 76.2346C114.691 77.0388 118.928 86.6034 118.495 86.9994L111.238 86.3064C110.855 85.9847 110.304 78.1029 109.611 76.5006H109.605ZM111.535 89.3317C114.134 89.87 118.266 89.839 118.495 93.3036L112.21 92.9633L111.535 89.3317ZM116.843 102.596L118.712 98.9891L131.766 98.6179V101.272H139.06L139.722 102.93L116.85 102.602L116.843 102.596Z" fill="url(#paint1_linear_503_7305)"/>
<path d="M60.0251 30.7564L58.7012 30.6574C58.2619 30.6388 57.8165 30.6574 57.3773 30.645C56.4864 30.6141 55.6017 30.7254 54.7108 30.7811C52.9414 30.9914 51.1658 31.3317 49.4583 31.9133C44.9544 33.3176 40.8651 36.0274 37.6913 39.5909C37.1469 39.4239 36.5715 39.3373 35.9776 39.3373C32.7296 39.3373 30.0879 41.9728 30.0879 45.227C30.0879 48.4812 32.7234 51.1167 35.9776 51.1167C39.2318 51.1167 41.8673 48.4812 41.8673 45.227C41.8673 44.0639 41.527 42.975 40.9393 42.0532C43.4511 38.9289 46.7486 36.3862 50.5286 34.7901C56.4121 32.235 63.3721 32.0741 69.7444 34.3013L69.9547 33.8435C66.948 32.1731 63.5515 31.0657 60.0313 30.744L60.0251 30.7564ZM38.5141 47.1386L35.594 48.3884L33.0575 46.4767L33.4411 43.3277L35.4394 42.4739L36.3612 42.078L38.8977 43.9896L38.7616 45.1032L38.5141 47.1386Z" fill="#293242"/>
<defs>
<linearGradient id="paint0_linear_503_7305" x1="-0.0101624" y1="41.7253" x2="77.0323" y2="41.7253" gradientUnits="userSpaceOnUse">
<stop stop-color="#FF7817"/>
<stop offset="1" stop-color="#FFD537"/>
</linearGradient>
<linearGradient id="paint1_linear_503_7305" x1="78.3563" y1="-6.92046" x2="96.5698" y2="95.1534" gradientUnits="userSpaceOnUse">
<stop stop-color="#4B5569"/>
<stop offset="0.44" stop-color="#323B4D"/>
<stop offset="1" stop-color="#0E1724"/>
</linearGradient>
</defs>
</svg>
