<svg width="21" height="20" viewBox="0 0 21 20" fill="none" xmlns="http://www.w3.org/2000/svg">
<path d="M10.414 18.3333C9.28096 18.3333 8.1979 18.1166 7.16483 17.6833C6.17618 17.261 5.29585 16.6638 4.52382 15.8916C3.75179 15.1194 3.15472 14.2388 2.7326 13.2499C2.29938 12.2166 2.08276 11.1333 2.08276 9.99992C2.08276 8.86659 2.29938 7.78325 2.7326 6.74992C3.15472 5.76103 3.75179 4.88048 4.52382 4.10825C5.29585 3.33603 6.17618 2.73881 7.16483 2.31659C8.1979 1.88325 9.28096 1.66659 10.414 1.66659C11.5471 1.66659 12.6301 1.88325 13.6632 2.31659C14.6518 2.73881 15.5322 3.33603 16.3042 4.10825C17.0762 4.88048 17.6733 5.76103 18.0954 6.74992C18.5287 7.78325 18.7453 8.86659 18.7453 9.99992C18.7453 11.1333 18.5287 12.2166 18.0954 13.2499C17.6733 14.2388 17.0762 15.1194 16.3042 15.8916C15.5322 16.6638 14.6518 17.261 13.6632 17.6833C12.6301 18.1166 11.5471 18.3333 10.414 18.3333ZM10.414 16.6666C11.6248 16.6666 12.7468 16.361 13.7798 15.7499C14.7796 15.161 15.5738 14.3666 16.1626 13.3666C16.7735 12.3333 17.079 11.211 17.079 9.99992C17.079 8.78881 16.7735 7.66659 16.1626 6.63325C15.5738 5.63325 14.7796 4.83881 13.7798 4.24992C12.7468 3.63881 11.6248 3.33325 10.414 3.33325C9.20321 3.33325 8.08126 3.63881 7.04819 4.24992C6.04844 4.83881 5.25419 5.63325 4.66545 6.63325C4.05449 7.66659 3.74901 8.78881 3.74901 9.99992C3.74901 11.211 4.05449 12.3333 4.66545 13.3666C5.25419 14.3666 6.04844 15.161 7.04819 15.7499C8.08126 16.361 9.20321 16.6666 10.414 16.6666ZM7.49808 11.6666H12.0803C12.1913 11.6666 12.2885 11.6249 12.3719 11.5416C12.4552 11.4583 12.4968 11.361 12.4968 11.2499C12.4968 11.1388 12.4552 11.0416 12.3719 10.9583C12.2885 10.8749 12.1913 10.8333 12.0803 10.8333H8.74776C8.37008 10.8333 8.02295 10.7388 7.70636 10.5499C7.38977 10.361 7.13706 10.1083 6.94821 9.79159C6.75937 9.47492 6.66495 9.1277 6.66495 8.74992C6.66495 8.37214 6.75937 8.02492 6.94821 7.70825C7.13706 7.39159 7.38977 7.13881 7.70636 6.94992C8.02295 6.76103 8.37008 6.66659 8.74776 6.66659H9.58089V4.99992H11.2471V6.66659H13.33V8.33325H8.74776C8.63668 8.33325 8.53948 8.37492 8.45617 8.45825C8.37286 8.54159 8.3312 8.63881 8.3312 8.74992C8.3312 8.86103 8.37286 8.95825 8.45617 9.04159C8.53948 9.12492 8.63668 9.16659 8.74776 9.16659H12.0803C12.4579 9.16659 12.8051 9.26103 13.1217 9.44992C13.4383 9.63881 13.691 9.89159 13.8798 10.2083C14.0687 10.5249 14.1631 10.8721 14.1631 11.2499C14.1631 11.6277 14.0687 11.9749 13.8798 12.2916C13.691 12.6083 13.4383 12.861 13.1217 13.0499C12.8051 13.2388 12.4579 13.3333 12.0803 13.3333H11.2471V14.9999H9.58089V13.3333H7.49808V11.6666Z" fill="#25A07C"/>
</svg>
