<svg width="21" height="20" viewBox="0 0 21 20" fill="none" xmlns="http://www.w3.org/2000/svg">
<path d="M15.7128 4.7L14.5298 5.88333C13.9966 5.33889 13.3801 4.92222 12.6802 4.63333C11.9582 4.32222 11.2028 4.16667 10.4141 4.16667C9.35885 4.16667 8.37576 4.43333 7.46488 4.96667C6.58732 5.47778 5.89305 6.17222 5.38207 7.05C4.84887 7.96111 4.58227 8.94444 4.58227 10C4.58227 11.0556 4.84887 12.0389 5.38207 12.95C5.89305 13.8278 6.58732 14.5222 7.46488 15.0333C8.37576 15.5667 9.35885 15.8333 10.4141 15.8333C11.4694 15.8333 12.4525 15.5667 13.3634 15.0333C14.241 14.5222 14.9352 13.8278 15.4462 12.95C15.9794 12.0389 16.246 11.0556 16.246 10H17.9123C17.9123 11.3556 17.5735 12.6167 16.8959 13.7833C16.2294 14.9167 15.3296 15.8167 14.1965 16.4833C13.0302 17.1611 11.7694 17.5 10.4141 17.5C9.05892 17.5 7.79813 17.1611 6.63175 16.4833C5.4987 15.8167 4.59893 14.9167 3.93243 13.7833C3.25482 12.6167 2.91602 11.3556 2.91602 10C2.91602 8.64444 3.25482 7.38333 3.93243 6.21667C4.59893 5.08333 5.4987 4.18333 6.63175 3.51667C7.79813 2.83889 9.05892 2.5 10.4141 2.5C11.4361 2.5 12.4081 2.69444 13.3301 3.08333C14.2299 3.47222 15.0241 4.01111 15.7128 4.7Z" fill="#086EC1"/>
</svg>
