<svg width="17" height="17" viewBox="0 0 17 17" fill="none" xmlns="http://www.w3.org/2000/svg">
<path d="M14.1631 16.6667H2.49938C2.04393 16.6667 1.62459 16.5556 1.24136 16.3334C0.858119 16.1112 0.555417 15.8084 0.33325 15.4251C0.111083 15.0417 0 14.6223 0 14.1667V0.833416C0 0.600082 0.0805354 0.402861 0.241606 0.241749C0.402677 0.080637 0.59985 8.2016e-05 0.833125 8.2016e-05H12.4969C12.7302 8.2016e-05 12.9273 0.080637 13.0884 0.241749C13.2495 0.402861 13.33 0.600082 13.33 0.833416V10.8334H16.6625V14.1667C16.6625 14.6223 16.5514 15.0417 16.3293 15.4251C16.1071 15.8084 15.8044 16.1112 15.4211 16.3334C15.0379 16.5556 14.6186 16.6667 14.1631 16.6667ZM13.33 12.5001V14.1667C13.33 14.4001 13.4105 14.5973 13.5716 14.7584C13.7327 14.9195 13.9299 15.0001 14.1631 15.0001C14.3964 15.0001 14.5936 14.9195 14.7546 14.7584C14.9157 14.5973 14.9963 14.4001 14.9963 14.1667V12.5001H13.33ZM11.6638 15.0001V1.66675H1.66625V14.1667C1.66625 14.4001 1.74679 14.5973 1.90786 14.7584C2.06893 14.9195 2.2661 15.0001 2.49938 15.0001H11.6638ZM3.3325 4.16675H9.9975V5.83342H3.3325V4.16675ZM3.3325 7.50008H9.9975V9.16675H3.3325V7.50008ZM3.3325 10.8334H7.49813V12.5001H3.3325V10.8334Z" fill="#0E3B64"/>
</svg>
