<svg width="20" height="20" viewBox="0 0 20 20" fill="none" xmlns="http://www.w3.org/2000/svg">
<g clip-path="url(#clip0_15091_7413)">
<path d="M17.9168 3.33332H10.0001C9.95536 3.33332 9.91095 3.34035 9.86841 3.35414L9.76841 3.38746C9.55005 3.46012 9.43192 3.69602 9.50458 3.91434C9.50501 3.91566 9.50548 3.91695 9.50591 3.91828L13.6942 16.1575L10.9359 19.3091C10.7845 19.4824 10.8022 19.7457 10.9755 19.8971C11.0515 19.9635 11.1491 20.0001 11.25 20H17.9167C19.0674 20 20.0001 19.0673 20.0001 17.9167V5.41668C20.0001 4.26606 19.0674 3.33332 17.9168 3.33332Z" fill="#FAFAFA"/>
<path d="M14.5458 16.0775C14.4781 15.9288 14.3299 15.8334 14.1666 15.8333H9.99993C9.76981 15.8333 9.58325 16.0199 9.58325 16.25C9.58325 16.3001 9.59228 16.3498 9.60993 16.3967L10.8599 19.73C10.9115 19.8672 11.0315 19.9672 11.1758 19.9933C11.2002 19.9975 11.225 19.9998 11.2499 20C11.37 19.9999 11.4842 19.9479 11.5633 19.8575L14.4799 16.5242C14.5876 16.4011 14.6134 16.2264 14.5458 16.0775Z" fill="#0E3B64"/>
<path d="M17.9168 9.16668H12.0834C11.8533 9.16668 11.6667 8.98012 11.6667 8.75C11.6667 8.51988 11.8533 8.33332 12.0834 8.33332H17.9167C18.1469 8.33332 18.3334 8.51988 18.3334 8.75C18.3334 8.98012 18.1469 9.16668 17.9168 9.16668Z" fill="#0E3B64"/>
<path d="M14.5834 9.16668C14.3533 9.16668 14.1667 8.98012 14.1667 8.75V7.91668C14.1667 7.68656 14.3533 7.5 14.5834 7.5C14.8135 7.5 15.0001 7.68656 15.0001 7.91668V8.75C15.0001 8.98012 14.8135 9.16668 14.5834 9.16668Z" fill="#0E3B64"/>
<path d="M13.333 14.1667C13.1029 14.1665 12.9165 13.9798 12.9167 13.7496C12.9169 13.6151 12.9819 13.489 13.0914 13.4108C14.9164 12.1142 16.2497 9.47081 16.2497 8.74999C16.2497 8.51987 16.4363 8.33331 16.6664 8.33331C16.8965 8.33331 17.0831 8.51987 17.0831 8.74999C17.0831 9.84831 15.4773 12.7383 13.5748 14.0892C13.5042 14.1395 13.4197 14.1666 13.333 14.1667Z" fill="#0E3B64"/>
<path d="M16.6668 15C16.5625 15.0001 16.462 14.9612 16.3851 14.8908C16.0834 14.6141 13.4201 12.1541 12.9476 10.99C12.8608 10.7767 12.9634 10.5334 13.1768 10.4467C13.3901 10.3599 13.6333 10.4625 13.7201 10.6759C14.0609 11.5159 16.1668 13.5592 16.9493 14.275C17.1195 14.4298 17.1321 14.6933 16.9773 14.8636C16.8979 14.9511 16.7849 15.0006 16.6668 15Z" fill="#0E3B64"/>
<path d="M14.5608 16.115L9.14418 0.28168C9.08648 0.113203 8.92809 0 8.75 0H2.08332C0.932734 0 0 0.932734 0 2.08332V14.5833C0 15.7339 0.932734 16.6666 2.08332 16.6666H14.1666C14.3968 16.6666 14.5833 16.4801 14.5833 16.25C14.5833 16.2041 14.5757 16.1584 14.5608 16.115Z" fill="#0E3B64"/>
<path d="M7.91646 11.6667C7.74029 11.6667 7.58314 11.5559 7.52396 11.39L5.83314 6.655L4.14232 11.39C4.05626 11.6034 3.81349 11.7067 3.60005 11.6206C3.39869 11.5395 3.29341 11.3172 3.35814 11.11L5.44146 5.27668C5.54337 5.06016 5.80154 4.96723 6.01806 5.0691C6.10927 5.11203 6.18267 5.18543 6.22564 5.27668L8.30896 11.11C8.38654 11.3261 8.27474 11.5642 8.05896 11.6425C8.01318 11.6587 7.96497 11.6669 7.91646 11.6667Z" fill="white"/>
<path d="M6.66686 9.16669H5.00018C4.77006 9.16669 4.5835 8.98013 4.5835 8.75001C4.5835 8.51989 4.77006 8.33333 5.00018 8.33333H6.66686C6.89697 8.33333 7.08353 8.51989 7.08353 8.75001C7.0835 8.98013 6.89697 9.16669 6.66686 9.16669Z" fill="white"/>
</g>
<defs>
<clipPath id="clip0_15091_7413">
<rect width="20" height="20" fill="white"/>
</clipPath>
</defs>
</svg>
