<svg width="24" height="24" viewBox="0 0 24 24" fill="none" xmlns="http://www.w3.org/2000/svg">
<path fill-rule="evenodd" clip-rule="evenodd" d="M3.98725 8.04258C4.17023 7.90406 4.32167 7.79095 4.35038 7.774C4.66892 7.58589 5.17731 7.36842 5.98831 7.02533C6.47459 6.81962 6.6813 6.30224 6.45001 5.86973C6.21873 5.43723 5.63702 5.25337 5.15075 5.45909L5.08472 5.48701C4.35986 5.79359 3.72118 6.06372 3.27179 6.32909C2.82594 6.59237 2.24993 7.03217 2.24993 7.75763L2.24993 17.2103C2.24993 18.3359 3.05914 19.0901 4.06884 19.7055C5.08745 20.3263 6.79906 21.0607 8.69195 21.8729C10.1092 22.4814 11.0256 22.875 11.9999 22.875C12.9742 22.875 13.8907 22.4815 15.3079 21.8729C17.2008 21.0608 18.9124 20.3263 19.931 19.7055C20.9407 19.0901 21.7499 18.3359 21.7499 17.2103L21.7499 7.75763C21.7499 7.03217 21.1739 6.59237 20.7281 6.32909C20.2787 6.06372 19.64 5.79361 18.9152 5.48704L18.8491 5.45909C18.3628 5.25337 17.7811 5.43723 17.5499 5.86973C17.3186 6.30224 17.5253 6.81962 18.0116 7.02533C18.8226 7.36842 19.3309 7.58589 19.6495 7.774C19.6782 7.79095 19.8296 7.90405 20.0126 8.04258C19.6674 8.27179 19.0973 8.55067 18.2731 8.9427L15.3519 10.3321C13.4853 11.2199 12.7609 11.5457 11.9999 11.5457C11.239 11.5457 10.5146 11.2199 8.64799 10.3321L5.72679 8.9427C4.90255 8.55067 4.33249 8.27179 3.98725 8.04258ZM5.65485 13.1155C5.83276 12.7415 6.28022 12.5825 6.65428 12.7604L8.64816 13.7087C9.02222 13.8866 9.18123 14.3341 9.00332 14.7082C8.8254 15.0822 8.37794 15.2412 8.00388 15.0633L6.01 14.115C5.63594 13.9371 5.47693 13.4896 5.65485 13.1155Z" fill="white"/>
<path d="M13 2.125C13 1.57271 12.5523 1.12499 12 1.12499C11.4477 1.125 11 1.57271 11 2.125L11 4.125C11 4.67728 11.4477 5.125 12 5.12499C12.5523 5.12499 13 4.67728 13 4.125L13 2.125Z" fill="white"/>
<path d="M8.79999 2.525C8.46862 2.08317 7.84182 1.99362 7.39999 2.325C6.95816 2.65636 6.86862 3.28317 7.19999 3.725L8.69999 5.72499C9.03136 6.16682 9.65816 6.25636 10.1 5.92499C10.5418 5.59362 10.6314 4.96682 10.3 4.52499L8.79999 2.525Z" fill="white"/>
<path d="M16.8 3.725C17.1314 3.28317 17.0418 2.65636 16.6 2.325C16.1582 1.99362 15.5314 2.08317 15.2 2.525L13.7 4.525C13.3686 4.96682 13.4582 5.59362 13.9 5.92499C14.3418 6.25637 14.9686 6.16682 15.3 5.72499L16.8 3.725Z" fill="white"/>
</svg>
