<svg width="17" height="16" viewBox="0 0 17 16" fill="none" xmlns="http://www.w3.org/2000/svg">
<path d="M14.3245 8.82675V13.3334H14.9908V14.6667H1.66576V13.3334H2.33201V8.82675C1.92338 8.55119 1.59914 8.19564 1.35929 7.76008C1.11944 7.32453 0.999512 6.84897 0.999512 6.33342C0.999512 5.77342 1.14165 5.2623 1.42591 4.80008L3.22479 1.66675C3.28697 1.56008 3.36914 1.47786 3.4713 1.42008C3.57346 1.3623 3.68672 1.33342 3.81109 1.33342H12.8454C12.9698 1.33342 13.0831 1.3623 13.1852 1.42008C13.2874 1.47786 13.3696 1.56008 13.4317 1.66675L15.2306 4.78675C15.5149 5.25786 15.657 5.77342 15.657 6.33342C15.657 6.84897 15.5371 7.32453 15.2972 7.76008C15.0574 8.19564 14.7331 8.55119 14.3245 8.82675ZM12.992 9.32008C12.8854 9.32897 12.7744 9.33342 12.6589 9.33342C12.2414 9.33342 11.8461 9.25342 11.473 9.09341C11.0999 8.93341 10.7756 8.70675 10.5002 8.41341C10.216 8.70675 9.88729 8.93341 9.51419 9.09341C9.14109 9.25342 8.74578 9.33342 8.32826 9.33342C7.91075 9.33342 7.51544 9.25342 7.14234 9.09341C6.76924 8.93341 6.44499 8.70675 6.16961 8.41341C5.88534 8.70675 5.55666 8.93341 5.18356 9.09341C4.81046 9.25342 4.41515 9.33342 3.99764 9.33342C3.88215 9.33342 3.77111 9.32897 3.66451 9.32008V13.3334H12.992V9.32008ZM4.18419 2.66675L2.57186 5.48008C2.41196 5.73786 2.33201 6.02008 2.33201 6.32675C2.33201 6.63342 2.40752 6.91341 2.55854 7.16675C2.70955 7.42008 2.91165 7.6223 3.16482 7.77342C3.418 7.92453 3.6956 8.00008 3.99764 8.00008C4.34409 8.00008 4.65722 7.90453 4.93705 7.71342C5.21687 7.5223 5.41897 7.26675 5.54334 6.94675C5.6144 6.76897 5.73433 6.64675 5.90311 6.58008C6.0719 6.51342 6.2429 6.51342 6.41612 6.58008C6.58935 6.64675 6.71149 6.76897 6.78256 6.94675C6.90693 7.26675 7.10902 7.5223 7.38885 7.71342C7.66867 7.90453 7.98181 8.00008 8.32826 8.00008C8.67471 8.00008 8.98785 7.90453 9.26767 7.71342C9.5475 7.5223 9.7496 7.26675 9.87396 6.94675C9.94503 6.76897 10.065 6.64675 10.2337 6.58008C10.4025 6.51342 10.5735 6.51342 10.7467 6.58008C10.92 6.64675 11.0421 6.76897 11.1132 6.94675C11.2376 7.26675 11.4396 7.5223 11.7195 7.71342C11.9993 7.90453 12.3124 8.00008 12.6589 8.00008C12.9609 8.00008 13.2385 7.92453 13.4917 7.77342C13.7449 7.6223 13.947 7.42008 14.098 7.16675C14.249 6.91341 14.3245 6.63342 14.3245 6.32675C14.3245 6.02008 14.2446 5.73341 14.0847 5.46675L12.4723 2.66675H4.18419Z" fill="white" fill-opacity="0.7"/>
</svg>
