<svg width="17" height="16" viewBox="0 0 17 16" fill="none" xmlns="http://www.w3.org/2000/svg">
<path d="M9.66078 14C9.47423 14 9.31655 13.9356 9.18774 13.8067C9.05894 13.6778 8.99453 13.52 8.99453 13.3333V8C8.99453 7.81333 9.05894 7.65556 9.18774 7.52667C9.31655 7.39778 9.47423 7.33333 9.66078 7.33333H13.6583C13.8448 7.33333 14.0025 7.39778 14.1313 7.52667C14.2601 7.65556 14.3245 7.81333 14.3245 8V13.3333C14.3245 13.52 14.2601 13.6778 14.1313 13.8067C14.0025 13.9356 13.8448 14 13.6583 14H9.66078ZM2.99828 8.66667C2.81173 8.66667 2.65405 8.60222 2.52524 8.47333C2.39644 8.34444 2.33203 8.18667 2.33203 8V2.66667C2.33203 2.48 2.39644 2.32222 2.52524 2.19333C2.65405 2.06444 2.81173 2 2.99828 2H6.99578C7.18233 2 7.34001 2.06444 7.46882 2.19333C7.59763 2.32222 7.66203 2.48 7.66203 2.66667V8C7.66203 8.18667 7.59763 8.34444 7.46882 8.47333C7.34001 8.60222 7.18233 8.66667 6.99578 8.66667H2.99828ZM6.32953 7.33333V3.33333H3.66453V7.33333H6.32953ZM2.99828 14C2.81173 14 2.65405 13.9356 2.52524 13.8067C2.39644 13.6778 2.33203 13.52 2.33203 13.3333V10.6667C2.33203 10.48 2.39644 10.3222 2.52524 10.1933C2.65405 10.0644 2.81173 10 2.99828 10H6.99578C7.18233 10 7.34001 10.0644 7.46882 10.1933C7.59763 10.3222 7.66203 10.48 7.66203 10.6667V13.3333C7.66203 13.52 7.59763 13.6778 7.46882 13.8067C7.34001 13.9356 7.18233 14 6.99578 14H2.99828ZM3.66453 12.6667H6.32953V11.3333H3.66453V12.6667ZM10.327 12.6667H12.992V8.66667H10.327V12.6667ZM8.99453 2.66667C8.99453 2.48 9.05894 2.32222 9.18774 2.19333C9.31655 2.06444 9.47423 2 9.66078 2H13.6583C13.8448 2 14.0025 2.06444 14.1313 2.19333C14.2601 2.32222 14.3245 2.48 14.3245 2.66667V5.33333C14.3245 5.52 14.2601 5.67778 14.1313 5.80667C14.0025 5.93556 13.8448 6 13.6583 6H9.66078C9.47423 6 9.31655 5.93556 9.18774 5.80667C9.05894 5.67778 8.99453 5.52 8.99453 5.33333V2.66667ZM10.327 3.33333V4.66667H12.992V3.33333H10.327Z" fill="white" fill-opacity="0.7"/>
</svg>
