<svg width="17" height="16" viewBox="0 0 17 16" fill="none" xmlns="http://www.w3.org/2000/svg">
<path d="M14.6575 4.66667H15.3238V11.3333H14.6575V13.3333C14.6575 13.52 14.5931 13.6778 14.4643 13.8067C14.3355 13.9356 14.1778 14 13.9913 14H1.99877C1.81222 14 1.65454 13.9356 1.52573 13.8067C1.39692 13.6778 1.33252 13.52 1.33252 13.3333V2.66667C1.33252 2.48 1.39692 2.32222 1.52573 2.19333C1.65454 2.06444 1.81222 2 1.99877 2H13.9913C14.1778 2 14.3355 2.06444 14.4643 2.19333C14.5931 2.32222 14.6575 2.48 14.6575 2.66667V4.66667ZM13.325 11.3333H9.32752C8.72345 11.3333 8.16602 11.1844 7.65523 10.8867C7.14444 10.5889 6.74025 10.1844 6.44266 9.67333C6.14507 9.16222 5.99627 8.60444 5.99627 8C5.99627 7.39556 6.14507 6.83778 6.44266 6.32667C6.74025 5.81556 7.14444 5.41111 7.65523 5.11333C8.16602 4.81556 8.72345 4.66667 9.32752 4.66667H13.325V3.33333H2.66502V12.6667H13.325V11.3333ZM13.9913 10V6H9.32752C8.9633 6 8.62796 6.08889 8.32148 6.26667C8.01501 6.44444 7.77294 6.68667 7.59527 6.99333C7.4176 7.3 7.32877 7.63556 7.32877 8C7.32877 8.36444 7.4176 8.7 7.59527 9.00667C7.77294 9.31333 8.01501 9.55556 8.32148 9.73333C8.62796 9.91111 8.9633 10 9.32752 10H13.9913ZM9.32752 7.33333H11.3263V8.66667H9.32752V7.33333Z" fill="white" fill-opacity="0.7"/>
</svg>
