<svg width="17" height="16" viewBox="0 0 17 16" fill="none" xmlns="http://www.w3.org/2000/svg">
<path d="M8.32803 14.6667C7.42193 14.6667 6.5558 14.4934 5.72965 14.1467C4.93904 13.809 4.23503 13.3312 3.61764 12.7134C3.00025 12.0956 2.52277 11.3912 2.1852 10.6001C1.83875 9.77342 1.66553 8.90675 1.66553 8.00008C1.66553 7.09342 1.83875 6.22675 2.1852 5.40008C2.52277 4.60897 3.00025 3.90453 3.61764 3.28675C4.23503 2.66897 4.93904 2.19119 5.72965 1.85342C6.5558 1.50675 7.42193 1.33342 8.32803 1.33342C9.23413 1.33342 10.1003 1.50675 10.9264 1.85342C11.717 2.19119 12.421 2.66897 13.0384 3.28675C13.6558 3.90453 14.1333 4.60897 14.4709 5.40008C14.8173 6.22675 14.9905 7.09342 14.9905 8.00008C14.9905 8.90675 14.8173 9.77342 14.4709 10.6001C14.1333 11.3912 13.6558 12.0956 13.0384 12.7134C12.421 13.3312 11.717 13.809 10.9264 14.1467C10.1003 14.4934 9.23413 14.6667 8.32803 14.6667ZM8.32803 13.3334C9.29631 13.3334 10.1935 13.089 11.0197 12.6001C11.8192 12.129 12.4543 11.4934 12.9252 10.6934C13.4137 9.86675 13.658 8.96897 13.658 8.00008C13.658 7.03119 13.4137 6.13342 12.9252 5.30675C12.4543 4.50675 11.8192 3.87119 11.0197 3.40008C10.1935 2.91119 9.29631 2.66675 8.32803 2.66675C7.35974 2.66675 6.46253 2.91119 5.63638 3.40008C4.83688 3.87119 4.20172 4.50675 3.7309 5.30675C3.24232 6.13342 2.99803 7.03119 2.99803 8.00008C2.99803 8.96897 3.24232 9.86675 3.7309 10.6934C4.20172 11.4934 4.83688 12.129 5.63638 12.6001C6.46253 13.089 7.35974 13.3334 8.32803 13.3334ZM5.99615 9.33342H9.66053C9.74936 9.33342 9.82709 9.30008 9.89371 9.23342C9.96034 9.16675 9.99365 9.08897 9.99365 9.00008C9.99365 8.91119 9.96034 8.83342 9.89371 8.76675C9.82709 8.70008 9.74936 8.66675 9.66053 8.66675H6.99553C6.69349 8.66675 6.41589 8.59119 6.16271 8.44008C5.90954 8.28897 5.70744 8.08675 5.55643 7.83342C5.40541 7.58008 5.3299 7.3023 5.3299 7.00008C5.3299 6.69786 5.40541 6.42008 5.55643 6.16675C5.70744 5.91341 5.90954 5.71119 6.16271 5.56008C6.41589 5.40897 6.69349 5.33342 6.99553 5.33342H7.66178V4.00008H8.99428V5.33342H10.6599V6.66675H6.99553C6.90669 6.66675 6.82896 6.70008 6.76234 6.76675C6.69571 6.83342 6.6624 6.91119 6.6624 7.00008C6.6624 7.08897 6.69571 7.16675 6.76234 7.23342C6.82896 7.30008 6.90669 7.33342 6.99553 7.33342H9.66053C9.96256 7.33342 10.2402 7.40897 10.4933 7.56008C10.7465 7.71119 10.9486 7.91341 11.0996 8.16675C11.2506 8.42008 11.3262 8.69786 11.3262 9.00008C11.3262 9.3023 11.2506 9.58008 11.0996 9.83342C10.9486 10.0867 10.7465 10.289 10.4933 10.4401C10.2402 10.5912 9.96256 10.6667 9.66053 10.6667H8.99428V12.0001H7.66178V10.6667H5.99615V9.33342Z" fill="white" fill-opacity="0.7"/>
</svg>
