<svg width="17" height="16" viewBox="0 0 17 16" fill="none" xmlns="http://www.w3.org/2000/svg">
<path d="M13.6183 5.33325H14.3245C14.5644 5.33325 14.7864 5.39325 14.9908 5.51325C15.1951 5.63325 15.3572 5.79547 15.4771 5.99992C15.597 6.20436 15.657 6.42659 15.657 6.66658V9.33325C15.657 9.57325 15.597 9.79547 15.4771 9.99992C15.3572 10.2044 15.1951 10.3666 14.9908 10.4866C14.7864 10.6066 14.5644 10.6666 14.3245 10.6666H13.6183C13.5117 11.5377 13.2097 12.3288 12.7122 13.0399C12.2147 13.751 11.5884 14.3066 10.8334 14.7066C10.0516 15.1244 9.21659 15.3333 8.32826 15.3333V13.9999C9.04781 13.9999 9.7185 13.8177 10.3403 13.4533C10.9444 13.0977 11.4241 12.6177 11.7794 12.0133C12.1437 11.391 12.3258 10.7199 12.3258 9.99992V5.99992C12.3258 5.27992 12.1437 4.60881 11.7794 3.98658C11.4241 3.38214 10.9444 2.90214 10.3403 2.54659C9.7185 2.18214 9.04781 1.99992 8.32826 1.99992C7.60871 1.99992 6.93802 2.18214 6.31619 2.54659C5.71212 2.90214 5.23242 3.38214 4.87709 3.98658C4.51287 4.60881 4.33076 5.27992 4.33076 5.99992V10.6666H2.33201C2.09216 10.6666 1.87008 10.6066 1.66576 10.4866C1.46145 10.3666 1.29932 10.2044 1.1794 9.99992C1.05947 9.79547 0.999512 9.57325 0.999512 9.33325V6.66658C0.999512 6.42659 1.05947 6.20436 1.1794 5.99992C1.29932 5.79547 1.46145 5.63325 1.66576 5.51325C1.87008 5.39325 2.09216 5.33325 2.33201 5.33325H3.03824C3.14484 4.46214 3.44687 3.67103 3.94434 2.95992C4.4418 2.24881 5.06808 1.69325 5.82316 1.29325C6.6049 0.875474 7.43993 0.666585 8.32826 0.666585C9.21659 0.666585 10.0516 0.875474 10.8334 1.29325C11.5884 1.69325 12.2147 2.24881 12.7122 2.95992C13.2097 3.67103 13.5117 4.46214 13.6183 5.33325ZM2.33201 6.66658V9.33325H2.99826V6.66658H2.33201ZM13.6583 6.66658V9.33325H14.3245V6.66658H13.6583ZM5.50336 10.5199L6.20959 9.38659C6.85807 9.79547 7.5643 9.99992 8.32826 9.99992C9.09223 9.99992 9.79845 9.79547 10.4469 9.38659L11.1532 10.5199C10.7356 10.7866 10.287 10.9888 9.80734 11.1266C9.32764 11.2644 8.83461 11.3333 8.32826 11.3333C7.82191 11.3333 7.32889 11.2644 6.84919 11.1266C6.36949 10.9888 5.92088 10.7866 5.50336 10.5199Z" fill="white" fill-opacity="0.7"/>
</svg>
