<svg width="17" height="16" viewBox="0 0 17 16" fill="none" xmlns="http://www.w3.org/2000/svg">
<path d="M12.9918 14.6667H3.66428C3.30006 14.6667 2.96471 14.5779 2.65824 14.4001C2.35176 14.2223 2.10969 13.9801 1.93203 13.6734C1.75436 13.3667 1.66553 13.0312 1.66553 12.6667V2.00008C1.66553 1.81342 1.72993 1.65564 1.85874 1.52675C1.98755 1.39786 2.14523 1.33342 2.33178 1.33342H11.6593C11.8458 1.33342 12.0035 1.39786 12.1323 1.52675C12.2611 1.65564 12.3255 1.81342 12.3255 2.00008V10.0001H14.9905V12.6667C14.9905 13.0312 14.9017 13.3667 14.724 13.6734C14.5464 13.9801 14.3043 14.2223 13.9978 14.4001C13.6913 14.5779 13.356 14.6667 12.9918 14.6667ZM12.3255 11.3334V12.6667C12.3255 12.8534 12.3899 13.0112 12.5187 13.1401C12.6475 13.269 12.8052 13.3334 12.9918 13.3334C13.1783 13.3334 13.336 13.269 13.4648 13.1401C13.5936 13.0112 13.658 12.8534 13.658 12.6667V11.3334H12.3255ZM10.993 13.3334V2.66675H2.99803V12.6667C2.99803 12.8534 3.06243 13.0112 3.19124 13.1401C3.32005 13.269 3.47773 13.3334 3.66428 13.3334H10.993ZM4.33053 4.66675H9.66053V6.00008H4.33053V4.66675ZM4.33053 7.33342H9.66053V8.66675H4.33053V7.33342ZM4.33053 10.0001H7.66178V11.3334H4.33053V10.0001Z" fill="white" fill-opacity="0.7"/>
</svg>
